ISO-10303-21;
HEADER;
FILE_DESCRIPTION (( 'STEP AP203' ),
    '1' );
FILE_NAME ('Pin ochelari de la Raul.STEP',
    '2026-09-03T17:53:55',
    ( '' ),
    ( '' ),
    'SwSTEP 2.0',
    'SolidWorks 2026',
    '' );
FILE_SCHEMA (( 'CONFIG_CONTROL_DESIGN' ));
ENDSEC;

DATA;
#1 = EDGE_CURVE ( 'NONE', #158, #83, #334, .T. ) ;
#2 = ORIENTED_EDGE ( 'NONE', *, *, #350, .T. ) ;
#3 = CALENDAR_DATE ( 2026, 3, 9 ) ;
#4 = DIRECTION ( 'NONE',  ( 0.000000000000000000, -0.000000000000000000, 1.000000000000000000 ) ) ;
#5 = LOCAL_TIME ( 20, 53, 55.00000000000000000, #276 ) ;
#6 = DIRECTION ( 'NONE',  ( -0.000000000000000000, -1.000000000000000000, -0.000000000000000000 ) ) ;
#7 = DATE_AND_TIME ( #280, #175 ) ;
#8 = ORIENTED_EDGE ( 'NONE', *, *, #189, .F. ) ;
#9 = CIRCLE ( 'NONE', #209, 0.4499999999999869660 ) ;
#10 = DIRECTION ( 'NONE',  ( 0.000000000000000000, 0.000000000000000000, 1.000000000000000000 ) ) ;
#11 = EDGE_CURVE ( 'NONE', #304, #83, #178, .T. ) ;
#12 = CARTESIAN_POINT ( 'NONE',  ( 0.000000000000000000, 20.00000000000000000, 0.000000000000000000 ) ) ;
#13 = DIRECTION ( 'NONE',  ( 0.000000000000000000, 0.7071067811865460184, 0.7071067811865490160 ) ) ;
#14 = ADVANCED_FACE ( 'NONE', ( #343 ), #166, .F. ) ;
#15 = FACE_OUTER_BOUND ( 'NONE', #297, .T. ) ;
#16 = DIRECTION ( 'NONE',  ( 0.000000000000000000, 1.000000000000000000, 0.000000000000000000 ) ) ;
#17 = DIRECTION ( 'NONE',  ( 8.659560562354951347E-17, 0.7071067811865460184, -0.7071067811865490160 ) ) ;
#18 = CIRCLE ( 'NONE', #221, 1.500000000000000222 ) ;
#19 = DIRECTION ( 'NONE',  ( -0.000000000000000000, -1.000000000000000000, -0.000000000000000000 ) ) ;
#20 = VERTEX_POINT ( 'NONE', #169 ) ;
#21 = CARTESIAN_POINT ( 'NONE',  ( 0.000000000000000000, 0.5000000000000108802, 0.000000000000000000 ) ) ;
#22 = APPROVAL_PERSON_ORGANIZATION ( #225, #74, #108 ) ;
#23 =( NAMED_UNIT ( * ) PLANE_ANGLE_UNIT ( ) SI_UNIT ( $, .RADIAN. ) );
#24 = ORIENTED_EDGE ( 'NONE', *, *, #309, .F. ) ;
#25 = DIRECTION ( 'NONE',  ( -0.000000000000000000, 1.000000000000000000, -0.000000000000000000 ) ) ;
#26 = VERTEX_POINT ( 'NONE', #142 ) ;
#27 = AXIS2_PLACEMENT_3D ( 'NONE', #321, #25, #293 ) ;
#28 = ORIENTED_EDGE ( 'NONE', *, *, #206, .T. ) ;
#29 = ORIENTED_EDGE ( 'NONE', *, *, #123, .T. ) ;
#30 = CARTESIAN_POINT ( 'NONE',  ( 0.000000000000000000, 0.5000000000000108802, -0.9499999999999999556 ) ) ;
#31 = CYLINDRICAL_SURFACE ( 'NONE', #59, 1.500000000000000222 ) ;
#32 = EDGE_LOOP ( 'NONE', ( #327, #168 ) ) ;
#33 = ADVANCED_FACE ( 'NONE', ( #282, #308 ), #224, .F. ) ;
#34 = EDGE_LOOP ( 'NONE', ( #105, #29 ) ) ;
#35 = CIRCLE ( 'NONE', #114, 1.500000000000000222 ) ;
#36 = CARTESIAN_POINT ( 'NONE',  ( 0.000000000000000000, 0.5000000000000108802, 0.9499999999999999556 ) ) ;
#37 = DIRECTION ( 'NONE',  ( 0.000000000000000000, 0.000000000000000000, -1.000000000000000000 ) ) ;
#38 = CC_DESIGN_PERSON_AND_ORGANIZATION_ASSIGNMENT ( #222, #255, ( #266 ) ) ;
#39 = DIRECTION ( 'NONE',  ( 0.000000000000000000, 0.000000000000000000, 1.000000000000000000 ) ) ;
#40 = FACE_OUTER_BOUND ( 'NONE', #241, .T. ) ;
#41 = AXIS2_PLACEMENT_3D ( 'NONE', #235, #93, #316 ) ;
#42 = PLANE ( 'NONE',  #49 ) ;
#43 = DIRECTION ( 'NONE',  ( 0.000000000000000000, 0.000000000000000000, 1.000000000000000000 ) ) ;
#44 = CC_DESIGN_DATE_AND_TIME_ASSIGNMENT ( #190, #301, ( #238 ) ) ;
#45 = CARTESIAN_POINT ( 'NONE',  ( 0.000000000000000000, 20.00000000000000000, -0.9499999999999999556 ) ) ;
#46 = EDGE_LOOP ( 'NONE', ( #161, #133, #203, #332 ) ) ;
#47 = PERSON_AND_ORGANIZATION_ROLE ( 'design_owner' ) ;
#48 = VERTEX_POINT ( 'NONE', #30 ) ;
#49 = AXIS2_PLACEMENT_3D ( 'NONE', #60, #96, #259 ) ;
#50 = DIRECTION ( 'NONE',  ( -0.000000000000000000, -1.000000000000000000, -0.000000000000000000 ) ) ;
#51 = AXIS2_PLACEMENT_3D ( 'NONE', #204, #63, #261 ) ;
#52 = DIRECTION ( 'NONE',  ( 0.000000000000000000, 1.000000000000000000, 0.000000000000000000 ) ) ;
#53 = CIRCLE ( 'NONE', #258, 0.9499999999999999556 ) ;
#54 = DIRECTION ( 'NONE',  ( 0.000000000000000000, 1.000000000000000000, 0.000000000000000000 ) ) ;
#55 = DIRECTION ( 'NONE',  ( 0.000000000000000000, 0.000000000000000000, 1.000000000000000000 ) ) ;
#56 = DIRECTION ( 'NONE',  ( 0.000000000000000000, 1.000000000000000000, 0.000000000000000000 ) ) ;
#57 = EDGE_CURVE ( 'NONE', #78, #302, #254, .T. ) ;
#58 = CARTESIAN_POINT ( 'NONE',  ( 1.469576158976823799E-16, 20.00000000000000000, -1.200000000000000178 ) ) ;
#59 = AXIS2_PLACEMENT_3D ( 'NONE', #230, #6, #85 ) ;
#60 = CARTESIAN_POINT ( 'NONE',  ( 0.000000000000000000, 0.000000000000000000, 0.000000000000000000 ) ) ;
#61 = LOCAL_TIME ( 20, 53, 55.00000000000000000, #219 ) ;
#62 = SECURITY_CLASSIFICATION ( '', '', #248 ) ;
#63 = DIRECTION ( 'NONE',  ( 0.000000000000000000, 1.000000000000000000, 0.000000000000000000 ) ) ;
#64 = CARTESIAN_POINT ( 'NONE',  ( 0.000000000000000000, 0.000000000000000000, 0.000000000000000000 ) ) ;
#65 = VECTOR ( 'NONE', #13, 1000.000000000000227 ) ;
#66 = CARTESIAN_POINT ( 'NONE',  ( 1.469576158976823799E-16, 19.75000000000000000, -1.200000000000000178 ) ) ;
#67 = CIRCLE ( 'NONE', #271, 1.200000000000000178 ) ;
#68 = ADVANCED_BREP_SHAPE_REPRESENTATION ( 'Pin ochelari de la Raul', ( #89, #145 ), #174 ) ;
#69 = ADVANCED_FACE ( 'NONE', ( #247 ), #31, .T. ) ;
#70 = CARTESIAN_POINT ( 'NONE',  ( 1.163414459189985682E-16, 19.75000000000000000, 0.9499999999999999556 ) ) ;
#71 = APPLICATION_CONTEXT ( 'configuration controlled 3d designs of mechanical parts and assemblies' ) ;
#72 = PERSON_AND_ORGANIZATION ( #119, #286 ) ;
#73 = CARTESIAN_POINT ( 'NONE',  ( 1.836970198721030181E-16, 20.00000000000000000, 1.500000000000000222 ) ) ;
#74 = APPROVAL ( #337, 'UNSPECIFIED' ) ;
#75 = EDGE_CURVE ( 'NONE', #281, #302, #318, .T. ) ;
#76 = EDGE_LOOP ( 'NONE', ( #167, #300, #164, #212 ) ) ;
#77 = LINE ( 'NONE', #45, #98 ) ;
#78 = VERTEX_POINT ( 'NONE', #138 ) ;
#79 = CARTESIAN_POINT ( 'NONE',  ( 0.000000000000000000, 20.00000000000000000, 0.000000000000000000 ) ) ;
#80 = VERTEX_POINT ( 'NONE', #341 ) ;
#81 = AXIS2_PLACEMENT_3D ( 'NONE', #135, #109, #37 ) ;
#82 = COORDINATED_UNIVERSAL_TIME_OFFSET ( 2, 0, .AHEAD. ) ;
#83 = VERTEX_POINT ( 'NONE', #199 ) ;
#84 = COORDINATED_UNIVERSAL_TIME_OFFSET ( 2, 0, .AHEAD. ) ;
#85 = DIRECTION ( 'NONE',  ( 0.000000000000000000, 0.000000000000000000, -1.000000000000000000 ) ) ;
#86 = PERSON_AND_ORGANIZATION ( #119, #286 ) ;
#87 = ORIENTED_EDGE ( 'NONE', *, *, #279, .T. ) ;
#88 = ADVANCED_FACE ( 'NONE', ( #275 ), #310, .T. ) ;
#89 = MANIFOLD_SOLID_BREP ( 'Chamfer1', #227 ) ;
#90 = DIRECTION ( 'NONE',  ( 0.000000000000000000, 0.000000000000000000, 1.000000000000000000 ) ) ;
#91 = PLANE ( 'NONE',  #51 ) ;
#92 = FACE_OUTER_BOUND ( 'NONE', #32, .T. ) ;
#93 = DIRECTION ( 'NONE',  ( 0.000000000000000000, 1.000000000000000000, 0.000000000000000000 ) ) ;
#94 = DIRECTION ( 'NONE',  ( -0.000000000000000000, -1.000000000000000000, -0.000000000000000000 ) ) ;
#95 = EDGE_CURVE ( 'NONE', #80, #48, #205, .T. ) ;
#96 = DIRECTION ( 'NONE',  ( 0.000000000000000000, 1.000000000000000000, 0.000000000000000000 ) ) ;
#97 = AXIS2_PLACEMENT_3D ( 'NONE', #181, #94, #319 ) ;
#98 = VECTOR ( 'NONE', #19, 1000.000000000000000 ) ;
#99 = ORIENTED_EDGE ( 'NONE', *, *, #132, .F. ) ;
#100 = EDGE_CURVE ( 'NONE', #20, #304, #146, .T. ) ;
#101 = FACE_OUTER_BOUND ( 'NONE', #76, .T. ) ;
#102 = ORIENTED_EDGE ( 'NONE', *, *, #75, .T. ) ;
#103 = MECHANICAL_CONTEXT ( 'NONE', #346, 'mechanical' ) ;
#104 = DIRECTION ( 'NONE',  ( 1.224646799147353454E-16, 0.000000000000000000, -1.000000000000000000 ) ) ;
#105 = ORIENTED_EDGE ( 'NONE', *, *, #132, .T. ) ;
#106 = PERSON_AND_ORGANIZATION ( #119, #286 ) ;
#107 = CC_DESIGN_PERSON_AND_ORGANIZATION_ASSIGNMENT ( #355, #268, ( #238 ) ) ;
#108 = APPROVAL_ROLE ( '' ) ;
#109 = DIRECTION ( 'NONE',  ( -0.000000000000000000, -1.000000000000000000, -0.000000000000000000 ) ) ;
#110 = LOCAL_TIME ( 20, 53, 55.00000000000000000, #82 ) ;
#111 = PERSON_AND_ORGANIZATION_ROLE ( 'design_supplier' ) ;
#112 = ADVANCED_FACE ( 'NONE', ( #347 ), #176, .T. ) ;
#113 = DIRECTION ( 'NONE',  ( 0.000000000000000000, 0.000000000000000000, 1.000000000000000000 ) ) ;
#114 = AXIS2_PLACEMENT_3D ( 'NONE', #12, #237, #312 ) ;
#115 = DIRECTION ( 'NONE',  ( -0.000000000000000000, -1.000000000000000000, -0.000000000000000000 ) ) ;
#116 = CIRCLE ( 'NONE', #290, 0.9499999999999999556 ) ;
#117 = EDGE_LOOP ( 'NONE', ( #184, #99, #186, #243 ) ) ;
#118 = AXIS2_PLACEMENT_3D ( 'NONE', #296, #244, #131 ) ;
#119 = PERSON ( 'UNSPECIFIED', 'UNSPECIFIED', 'UNSPECIFIED', ('UNSPECIFIED'), ('UNSPECIFIED'), ('UNSPECIFIED') ) ;
#120 = CARTESIAN_POINT ( 'NONE',  ( 0.000000000000000000, 22.00000000000000000, 0.000000000000000000 ) ) ;
#121 = LINE ( 'NONE', #287, #269 ) ;
#122 = DIRECTION ( 'NONE',  ( 0.000000000000000000, 0.000000000000000000, 1.000000000000000000 ) ) ;
#123 = EDGE_CURVE ( 'NONE', #20, #158, #333, .T. ) ;
#124 = CARTESIAN_POINT ( 'NONE',  ( 0.000000000000000000, 22.00000000000000000, 0.000000000000000000 ) ) ;
#125 = AXIS2_PLACEMENT_3D ( 'NONE', #250, #54, #4 ) ;
#126 = APPROVAL_PERSON_ORGANIZATION ( #72, #170, #183 ) ;
#127 = CALENDAR_DATE ( 2026, 3, 9 ) ;
#128 = PERSON_AND_ORGANIZATION ( #119, #286 ) ;
#129 = ORIENTED_EDGE ( 'NONE', *, *, #338, .F. ) ;
#130 = TOROIDAL_SURFACE ( 'NONE', #41, 1.200000000000000178, 0.2500000000000000000 ) ;
#131 = DIRECTION ( 'NONE',  ( 0.000000000000000000, 0.000000000000000000, 1.000000000000000000 ) ) ;
#132 = EDGE_CURVE ( 'NONE', #158, #20, #18, .T. ) ;
#133 = ORIENTED_EDGE ( 'NONE', *, *, #100, .T. ) ;
#134 = APPROVAL_DATE_TIME ( #193, #345 ) ;
#135 = CARTESIAN_POINT ( 'NONE',  ( 0.000000000000000000, 20.00000000000000000, 0.000000000000000000 ) ) ;
#136 = EDGE_LOOP ( 'NONE', ( #265, #249, #156, #8 ) ) ;
#137 = ADVANCED_FACE ( 'NONE', ( #92 ), #42, .F. ) ;
#138 = CARTESIAN_POINT ( 'NONE',  ( 0.000000000000000000, 19.75000000000000000, -0.9499999999999999556 ) ) ;
#139 = APPROVAL_ROLE ( '' ) ;
#140 = AXIS2_PLACEMENT_3D ( 'NONE', #256, #165, #10 ) ;
#141 = PRODUCT_RELATED_PRODUCT_CATEGORY ( 'detail', '', ( #251 ) ) ;
#142 = CARTESIAN_POINT ( 'NONE',  ( 1.163414459189985682E-16, 0.5000000000000108802, 0.9499999999999999556 ) ) ;
#143 = CIRCLE ( 'NONE', #342, 0.4499999999999869660 ) ;
#144 = CARTESIAN_POINT ( 'NONE',  ( 0.000000000000000000, 22.00000000000000000, 0.000000000000000000 ) ) ;
#145 = AXIS2_PLACEMENT_3D ( 'NONE', #357, #43, #299 ) ;
#146 = LINE ( 'NONE', #289, #192 ) ;
#147 = DIRECTION ( 'NONE',  ( 0.000000000000000000, 0.000000000000000000, 1.000000000000000000 ) ) ;
#148 = EDGE_CURVE ( 'NONE', #83, #304, #35, .T. ) ;
#149 = DIRECTION ( 'NONE',  ( -0.000000000000000000, -1.000000000000000000, -0.000000000000000000 ) ) ;
#150 = DIRECTION ( 'NONE',  ( 1.000000000000000000, -0.000000000000000000, 1.224646799147353207E-16 ) ) ;
#151 = DIRECTION ( 'NONE',  ( -0.000000000000000000, 1.000000000000000000, -0.000000000000000000 ) ) ;
#152 = ORIENTED_EDGE ( 'NONE', *, *, #338, .T. ) ;
#153 = APPLICATION_PROTOCOL_DEFINITION ( 'international standard', 'config_control_design', 1994, #71 ) ;
#154 = CC_DESIGN_APPROVAL ( #74, ( #62 ) ) ;
#155 =( LENGTH_UNIT ( ) NAMED_UNIT ( * ) SI_UNIT ( .MILLI., .METRE. ) );
#156 = ORIENTED_EDGE ( 'NONE', *, *, #211, .F. ) ;
#157 = DATE_AND_TIME ( #127, #163 ) ;
#158 = VERTEX_POINT ( 'NONE', #288 ) ;
#159 = VECTOR ( 'NONE', #17, 1000.000000000000227 ) ;
#160 = EDGE_CURVE ( 'NONE', #223, #80, #9, .T. ) ;
#161 = ORIENTED_EDGE ( 'NONE', *, *, #123, .F. ) ;
#162 = AXIS2_PLACEMENT_3D ( 'NONE', #21, #151, #326 ) ;
#163 = LOCAL_TIME ( 20, 53, 55.00000000000000000, #294 ) ;
#164 = ORIENTED_EDGE ( 'NONE', *, *, #189, .T. ) ;
#165 = DIRECTION ( 'NONE',  ( -0.000000000000000000, -1.000000000000000000, -0.000000000000000000 ) ) ;
#166 = TOROIDAL_SURFACE ( 'NONE', #214, 1.200000000000000178, 0.2500000000000000000 ) ;
#167 = ORIENTED_EDGE ( 'NONE', *, *, #95, .F. ) ;
#168 = ORIENTED_EDGE ( 'NONE', *, *, #242, .T. ) ;
#169 = CARTESIAN_POINT ( 'NONE',  ( 1.836970198721030181E-16, 22.00000000000000000, 1.500000000000000222 ) ) ;
#170 = APPROVAL ( #217, 'UNSPECIFIED' ) ;
#171 = AXIS2_PLACEMENT_3D ( 'NONE', #120, #313, #260 ) ;
#172 = DIRECTION ( 'NONE',  ( -0.000000000000000000, -1.000000000000000000, -0.000000000000000000 ) ) ;
#173 = LINE ( 'NONE', #36, #65 ) ;
#174 =( GEOMETRIC_REPRESENTATION_CONTEXT ( 3 ) GLOBAL_UNCERTAINTY_ASSIGNED_CONTEXT ( ( #216 ) ) GLOBAL_UNIT_ASSIGNED_CONTEXT ( ( #155, #23, #239 ) ) REPRESENTATION_CONTEXT ( 'NONE', 'WORKASPACE' ) );
#175 = LOCAL_TIME ( 20, 53, 55.00000000000000000, #84 ) ;
#176 = CYLINDRICAL_SURFACE ( 'NONE', #283, 1.500000000000000222 ) ;
#177 = CC_DESIGN_PERSON_AND_ORGANIZATION_ASSIGNMENT ( #106, #111, ( #266 ) ) ;
#178 = CIRCLE ( 'NONE', #278, 1.500000000000000222 ) ;
#179 = DIRECTION ( 'NONE',  ( -0.000000000000000000, -1.000000000000000000, -0.000000000000000000 ) ) ;
#180 = CONICAL_SURFACE ( 'NONE', #27, 0.9499999999999999556, 0.7853981633974503884 ) ;
#181 = CARTESIAN_POINT ( 'NONE',  ( 0.000000000000000000, 20.00000000000000000, 0.000000000000000000 ) ) ;
#182 = APPLICATION_PROTOCOL_DEFINITION ( 'international standard', 'config_control_design', 1994, #346 ) ;
#183 = APPROVAL_ROLE ( '' ) ;
#184 = ORIENTED_EDGE ( 'NONE', *, *, #100, .F. ) ;
#185 = DIRECTION ( 'NONE',  ( 0.000000000000000000, 0.000000000000000000, 1.000000000000000000 ) ) ;
#186 = ORIENTED_EDGE ( 'NONE', *, *, #1, .T. ) ;
#187 = DIRECTION ( 'NONE',  ( 0.000000000000000000, 0.000000000000000000, 1.000000000000000000 ) ) ;
#188 = VERTEX_POINT ( 'NONE', #58 ) ;
#189 = EDGE_CURVE ( 'NONE', #223, #26, #173, .T. ) ;
#190 = DATE_AND_TIME ( #328, #61 ) ;
#191 = EDGE_LOOP ( 'NONE', ( #311, #28 ) ) ;
#192 = VECTOR ( 'NONE', #149, 1000.000000000000000 ) ;
#193 = DATE_AND_TIME ( #307, #5 ) ;
#194 = ORIENTED_EDGE ( 'NONE', *, *, #317, .T. ) ;
#195 = AXIS2_PLACEMENT_3D ( 'NONE', #66, #150, #104 ) ;
#196 = CARTESIAN_POINT ( 'NONE',  ( 0.000000000000000000, 19.75000000000000000, 0.000000000000000000 ) ) ;
#197 = DIRECTION ( 'NONE',  ( -1.000000000000000000, 0.000000000000000000, 0.000000000000000000 ) ) ;
#198 = PERSON_AND_ORGANIZATION_ROLE ( 'classification_officer' ) ;
#199 = CARTESIAN_POINT ( 'NONE',  ( 0.000000000000000000, 20.00000000000000000, -1.500000000000000222 ) ) ;
#200 = PRODUCT_DEFINITION_SHAPE ( 'NONE', 'NONE',  #238 ) ;
#201 = ORIENTED_EDGE ( 'NONE', *, *, #75, .F. ) ;
#202 = EDGE_CURVE ( 'NONE', #302, #26, #121, .T. ) ;
#203 = ORIENTED_EDGE ( 'NONE', *, *, #11, .T. ) ;
#204 = CARTESIAN_POINT ( 'NONE',  ( 0.000000000000000000, 22.00000000000000000, 0.000000000000000000 ) ) ;
#205 = LINE ( 'NONE', #263, #159 ) ;
#206 = EDGE_CURVE ( 'NONE', #188, #281, #210, .T. ) ;
#207 = DIRECTION ( 'NONE',  ( -0.000000000000000000, -1.000000000000000000, -0.000000000000000000 ) ) ;
#208 = CARTESIAN_POINT ( 'NONE',  ( 0.000000000000000000, 0.000000000000000000, 0.000000000000000000 ) ) ;
#209 = AXIS2_PLACEMENT_3D ( 'NONE', #208, #207, #39 ) ;
#210 = CIRCLE ( 'NONE', #257, 1.200000000000000178 ) ;
#211 = EDGE_CURVE ( 'NONE', #26, #48, #116, .T. ) ;
#212 = ORIENTED_EDGE ( 'NONE', *, *, #317, .F. ) ;
#213 = CARTESIAN_POINT ( 'NONE',  ( 0.000000000000000000, 20.00000000000000000, 1.200000000000000178 ) ) ;
#214 = AXIS2_PLACEMENT_3D ( 'NONE', #196, #56, #113 ) ;
#215 = ORIENTED_EDGE ( 'NONE', *, *, #57, .T. ) ;
#216 = UNCERTAINTY_MEASURE_WITH_UNIT (LENGTH_MEASURE( 1.000000000000000082E-05 ), #155, 'distance_accuracy_value', 'NONE');
#217 = APPROVAL_STATUS ( 'not_yet_approved' ) ;
#218 = ORIENTED_EDGE ( 'NONE', *, *, #211, .T. ) ;
#219 = COORDINATED_UNIVERSAL_TIME_OFFSET ( 2, 0, .AHEAD. ) ;
#220 = EDGE_LOOP ( 'NONE', ( #306, #24, #102, #329 ) ) ;
#221 = AXIS2_PLACEMENT_3D ( 'NONE', #144, #16, #234 ) ;
#222 = PERSON_AND_ORGANIZATION ( #119, #286 ) ;
#223 = VERTEX_POINT ( 'NONE', #231 ) ;
#224 = PLANE ( 'NONE',  #125 ) ;
#225 = PERSON_AND_ORGANIZATION ( #119, #286 ) ;
#226 = ORIENTED_EDGE ( 'NONE', *, *, #206, .F. ) ;
#227 = CLOSED_SHELL ( 'NONE', ( #330, #233, #69, #274, #88, #137, #112, #229, #33, #14, #291 ) ) ;
#228 = CARTESIAN_POINT ( 'NONE',  ( 0.000000000000000000, 22.00000000000000000, -1.500000000000000222 ) ) ;
#229 = ADVANCED_FACE ( 'NONE', ( #314 ), #91, .T. ) ;
#230 = CARTESIAN_POINT ( 'NONE',  ( 0.000000000000000000, 22.00000000000000000, 0.000000000000000000 ) ) ;
#231 = CARTESIAN_POINT ( 'NONE',  ( 0.000000000000000000, 0.000000000000000000, 0.4499999999999869660 ) ) ;
#232 = CC_DESIGN_PERSON_AND_ORGANIZATION_ASSIGNMENT ( #86, #198, ( #62 ) ) ;
#233 = ADVANCED_FACE ( 'NONE', ( #15 ), #130, .F. ) ;
#234 = DIRECTION ( 'NONE',  ( 0.000000000000000000, 0.000000000000000000, 1.000000000000000000 ) ) ;
#235 = CARTESIAN_POINT ( 'NONE',  ( 0.000000000000000000, 19.75000000000000000, 0.000000000000000000 ) ) ;
#236 = DIRECTION ( 'NONE',  ( 0.000000000000000000, 0.000000000000000000, 1.000000000000000000 ) ) ;
#237 = DIRECTION ( 'NONE',  ( 0.000000000000000000, 1.000000000000000000, 0.000000000000000000 ) ) ;
#238 = PRODUCT_DEFINITION ( 'UNKNOWN', '', #266, #298 ) ;
#239 =( NAMED_UNIT ( * ) SI_UNIT ( $, .STERADIAN. ) SOLID_ANGLE_UNIT ( ) );
#240 = APPROVAL_DATE_TIME ( #157, #170 ) ;
#241 = EDGE_LOOP ( 'NONE', ( #215, #246, #218, #129 ) ) ;
#242 = EDGE_CURVE ( 'NONE', #80, #223, #143, .T. ) ;
#243 = ORIENTED_EDGE ( 'NONE', *, *, #148, .T. ) ;
#244 = DIRECTION ( 'NONE',  ( -0.000000000000000000, 1.000000000000000000, -0.000000000000000000 ) ) ;
#245 = ORIENTED_EDGE ( 'NONE', *, *, #350, .F. ) ;
#246 = ORIENTED_EDGE ( 'NONE', *, *, #202, .T. ) ;
#247 = FACE_OUTER_BOUND ( 'NONE', #46, .T. ) ;
#248 = SECURITY_CLASSIFICATION_LEVEL ( 'unclassified' ) ;
#249 = ORIENTED_EDGE ( 'NONE', *, *, #95, .T. ) ;
#250 = CARTESIAN_POINT ( 'NONE',  ( 0.000000000000000000, 20.00000000000000000, 0.000000000000000000 ) ) ;
#251 = PRODUCT ( 'Pin ochelari de la Raul', 'Pin ochelari de la Raul', '', ( #103 ) ) ;
#252 = APPROVAL_STATUS ( 'not_yet_approved' ) ;
#253 = ORIENTED_EDGE ( 'NONE', *, *, #11, .F. ) ;
#254 = CIRCLE ( 'NONE', #140, 0.9499999999999999556 ) ;
#255 = PERSON_AND_ORGANIZATION_ROLE ( 'creator' ) ;
#256 = CARTESIAN_POINT ( 'NONE',  ( 0.000000000000000000, 19.75000000000000000, 0.000000000000000000 ) ) ;
#257 = AXIS2_PLACEMENT_3D ( 'NONE', #349, #292, #147 ) ;
#258 = AXIS2_PLACEMENT_3D ( 'NONE', #356, #50, #187 ) ;
#259 = DIRECTION ( 'NONE',  ( 0.000000000000000000, -0.000000000000000000, 1.000000000000000000 ) ) ;
#260 = DIRECTION ( 'NONE',  ( 0.000000000000000000, 0.000000000000000000, 1.000000000000000000 ) ) ;
#261 = DIRECTION ( 'NONE',  ( 0.000000000000000000, -0.000000000000000000, 1.000000000000000000 ) ) ;
#262 = CYLINDRICAL_SURFACE ( 'NONE', #97, 0.9499999999999999556 ) ;
#263 = CARTESIAN_POINT ( 'NONE',  ( 1.163414459189985682E-16, 0.5000000000000108802, -0.9499999999999999556 ) ) ;
#264 = AXIS2_PLACEMENT_3D ( 'NONE', #344, #197, #90 ) ;
#265 = ORIENTED_EDGE ( 'NONE', *, *, #242, .F. ) ;
#266 = PRODUCT_DEFINITION_FORMATION_WITH_SPECIFIED_SOURCE ( 'ANY', '', #251, .NOT_KNOWN. ) ;
#267 = CC_DESIGN_APPROVAL ( #345, ( #266 ) ) ;
#268 = PERSON_AND_ORGANIZATION_ROLE ( 'creator' ) ;
#269 = VECTOR ( 'NONE', #348, 1000.000000000000000 ) ;
#270 = PERSON_AND_ORGANIZATION ( #119, #286 ) ;
#271 = AXIS2_PLACEMENT_3D ( 'NONE', #79, #322, #185 ) ;
#272 = EDGE_LOOP ( 'NONE', ( #325, #253 ) ) ;
#273 = SHAPE_DEFINITION_REPRESENTATION ( #200, #68 ) ;
#274 = ADVANCED_FACE ( 'NONE', ( #40 ), #262, .T. ) ;
#275 = FACE_OUTER_BOUND ( 'NONE', #295, .T. ) ;
#276 = COORDINATED_UNIVERSAL_TIME_OFFSET ( 2, 0, .AHEAD. ) ;
#277 = CARTESIAN_POINT ( 'NONE',  ( 0.000000000000000000, 20.00000000000000000, 0.000000000000000000 ) ) ;
#278 = AXIS2_PLACEMENT_3D ( 'NONE', #277, #52, #55 ) ;
#279 = EDGE_CURVE ( 'NONE', #188, #78, #353, .T. ) ;
#280 = CALENDAR_DATE ( 2026, 3, 9 ) ;
#281 = VERTEX_POINT ( 'NONE', #213 ) ;
#282 = FACE_BOUND ( 'NONE', #191, .T. ) ;
#283 = AXIS2_PLACEMENT_3D ( 'NONE', #124, #172, #352 ) ;
#284 = CC_DESIGN_DATE_AND_TIME_ASSIGNMENT ( #7, #331, ( #62 ) ) ;
#285 = DIRECTION ( 'NONE',  ( -0.000000000000000000, 1.000000000000000000, -0.000000000000000000 ) ) ;
#286 = ORGANIZATION ( 'UNSPECIFIED', 'UNSPECIFIED', '' ) ;
#287 = CARTESIAN_POINT ( 'NONE',  ( 1.163414459189985682E-16, 20.00000000000000000, 0.9499999999999999556 ) ) ;
#288 = CARTESIAN_POINT ( 'NONE',  ( 0.000000000000000000, 22.00000000000000000, -1.500000000000000222 ) ) ;
#289 = CARTESIAN_POINT ( 'NONE',  ( 1.836970198721030181E-16, 22.00000000000000000, 1.500000000000000222 ) ) ;
#290 = AXIS2_PLACEMENT_3D ( 'NONE', #351, #285, #122 ) ;
#291 = ADVANCED_FACE ( 'NONE', ( #101 ), #180, .T. ) ;
#292 = DIRECTION ( 'NONE',  ( 0.000000000000000000, 1.000000000000000000, 0.000000000000000000 ) ) ;
#293 = DIRECTION ( 'NONE',  ( 0.000000000000000000, 0.000000000000000000, 1.000000000000000000 ) ) ;
#294 = COORDINATED_UNIVERSAL_TIME_OFFSET ( 2, 0, .AHEAD. ) ;
#295 = EDGE_LOOP ( 'NONE', ( #339, #2, #152, #194 ) ) ;
#296 = CARTESIAN_POINT ( 'NONE',  ( 0.000000000000000000, 0.5000000000000108802, 0.000000000000000000 ) ) ;
#297 = EDGE_LOOP ( 'NONE', ( #226, #87, #245, #201 ) ) ;
#298 = DESIGN_CONTEXT ( 'detailed design', #71, 'design' ) ;
#299 = DIRECTION ( 'NONE',  ( 1.000000000000000000, 0.000000000000000000, 0.000000000000000000 ) ) ;
#300 = ORIENTED_EDGE ( 'NONE', *, *, #160, .F. ) ;
#301 = DATE_TIME_ROLE ( 'creation_date' ) ;
#302 = VERTEX_POINT ( 'NONE', #70 ) ;
#303 = CC_DESIGN_PERSON_AND_ORGANIZATION_ASSIGNMENT ( #128, #47, ( #251 ) ) ;
#304 = VERTEX_POINT ( 'NONE', #73 ) ;
#305 = APPROVAL_DATE_TIME ( #340, #74 ) ;
#306 = ORIENTED_EDGE ( 'NONE', *, *, #279, .F. ) ;
#307 = CALENDAR_DATE ( 2026, 3, 9 ) ;
#308 = FACE_OUTER_BOUND ( 'NONE', #272, .T. ) ;
#309 = EDGE_CURVE ( 'NONE', #281, #188, #67, .T. ) ;
#310 = CYLINDRICAL_SURFACE ( 'NONE', #81, 0.9499999999999999556 ) ;
#311 = ORIENTED_EDGE ( 'NONE', *, *, #309, .T. ) ;
#312 = DIRECTION ( 'NONE',  ( 0.000000000000000000, 0.000000000000000000, 1.000000000000000000 ) ) ;
#313 = DIRECTION ( 'NONE',  ( 0.000000000000000000, 1.000000000000000000, 0.000000000000000000 ) ) ;
#314 = FACE_OUTER_BOUND ( 'NONE', #34, .T. ) ;
#315 = CC_DESIGN_SECURITY_CLASSIFICATION ( #62, ( #266 ) ) ;
#316 = DIRECTION ( 'NONE',  ( 0.000000000000000000, 0.000000000000000000, 1.000000000000000000 ) ) ;
#317 = EDGE_CURVE ( 'NONE', #48, #26, #320, .T. ) ;
#318 = CIRCLE ( 'NONE', #264, 0.2500000000000000000 ) ;
#319 = DIRECTION ( 'NONE',  ( 0.000000000000000000, 0.000000000000000000, -1.000000000000000000 ) ) ;
#320 = CIRCLE ( 'NONE', #162, 0.9499999999999999556 ) ;
#321 = CARTESIAN_POINT ( 'NONE',  ( 0.000000000000000000, 0.5000000000000108802, 0.000000000000000000 ) ) ;
#322 = DIRECTION ( 'NONE',  ( 0.000000000000000000, 1.000000000000000000, 0.000000000000000000 ) ) ;
#323 = VECTOR ( 'NONE', #115, 1000.000000000000000 ) ;
#324 = FACE_OUTER_BOUND ( 'NONE', #136, .T. ) ;
#325 = ORIENTED_EDGE ( 'NONE', *, *, #148, .F. ) ;
#326 = DIRECTION ( 'NONE',  ( 0.000000000000000000, 0.000000000000000000, 1.000000000000000000 ) ) ;
#327 = ORIENTED_EDGE ( 'NONE', *, *, #160, .T. ) ;
#328 = CALENDAR_DATE ( 2026, 3, 9 ) ;
#329 = ORIENTED_EDGE ( 'NONE', *, *, #57, .F. ) ;
#330 = ADVANCED_FACE ( 'NONE', ( #324 ), #354, .T. ) ;
#331 = DATE_TIME_ROLE ( 'classification_date' ) ;
#332 = ORIENTED_EDGE ( 'NONE', *, *, #1, .F. ) ;
#333 = CIRCLE ( 'NONE', #171, 1.500000000000000222 ) ;
#334 = LINE ( 'NONE', #228, #323 ) ;
#335 = CC_DESIGN_APPROVAL ( #170, ( #238 ) ) ;
#336 = APPROVAL_PERSON_ORGANIZATION ( #270, #345, #139 ) ;
#337 = APPROVAL_STATUS ( 'not_yet_approved' ) ;
#338 = EDGE_CURVE ( 'NONE', #78, #48, #77, .T. ) ;
#339 = ORIENTED_EDGE ( 'NONE', *, *, #202, .F. ) ;
#340 = DATE_AND_TIME ( #3, #110 ) ;
#341 = CARTESIAN_POINT ( 'NONE',  ( 8.572527594031391838E-17, 0.000000000000000000, -0.4499999999999869660 ) ) ;
#342 = AXIS2_PLACEMENT_3D ( 'NONE', #64, #179, #236 ) ;
#343 = FACE_OUTER_BOUND ( 'NONE', #220, .T. ) ;
#344 = CARTESIAN_POINT ( 'NONE',  ( 0.000000000000000000, 19.75000000000000000, 1.200000000000000178 ) ) ;
#345 = APPROVAL ( #252, 'UNSPECIFIED' ) ;
#346 = APPLICATION_CONTEXT ( 'configuration controlled 3d designs of mechanical parts and assemblies' ) ;
#347 = FACE_OUTER_BOUND ( 'NONE', #117, .T. ) ;
#348 = DIRECTION ( 'NONE',  ( -0.000000000000000000, -1.000000000000000000, -0.000000000000000000 ) ) ;
#349 = CARTESIAN_POINT ( 'NONE',  ( 0.000000000000000000, 20.00000000000000000, 0.000000000000000000 ) ) ;
#350 = EDGE_CURVE ( 'NONE', #302, #78, #53, .T. ) ;
#351 = CARTESIAN_POINT ( 'NONE',  ( 0.000000000000000000, 0.5000000000000108802, 0.000000000000000000 ) ) ;
#352 = DIRECTION ( 'NONE',  ( 0.000000000000000000, 0.000000000000000000, -1.000000000000000000 ) ) ;
#353 = CIRCLE ( 'NONE', #195, 0.2500000000000000000 ) ;
#354 = CONICAL_SURFACE ( 'NONE', #118, 0.9499999999999999556, 0.7853981633974503884 ) ;
#355 = PERSON_AND_ORGANIZATION ( #119, #286 ) ;
#356 = CARTESIAN_POINT ( 'NONE',  ( 0.000000000000000000, 19.75000000000000000, 0.000000000000000000 ) ) ;
#357 = CARTESIAN_POINT ( 'NONE',  ( 0.000000000000000000, 0.000000000000000000, 0.000000000000000000 ) ) ;
ENDSEC;
END-ISO-10303-21;
