ISO-10303-21;
HEADER;
FILE_DESCRIPTION (( 'STEP AP203' ),
    '1' );
FILE_NAME ('Rama transversala V1 de la Raul.STEP',
    '2026-09-03T17:53:16',
    ( '' ),
    ( '' ),
    'SwSTEP 2.0',
    'SolidWorks 2026',
    '' );
FILE_SCHEMA (( 'CONFIG_CONTROL_DESIGN' ));
ENDSEC;

DATA;
#1 = CARTESIAN_POINT ( 'NONE',  ( 3.000000000000000000, 7.299999999999999822, 11.50000000000000000 ) ) ;
#2 = EDGE_CURVE ( 'NONE', #509, #648, #749, .T. ) ;
#3 = ORIENTED_EDGE ( 'NONE', *, *, #659, .T. ) ;
#4 = ORIENTED_EDGE ( 'NONE', *, *, #1026, .T. ) ;
#5 = CARTESIAN_POINT ( 'NONE',  ( 85.00000000000001421, 0.000000000000000000, 6.000000000000000000 ) ) ;
#6 = AXIS2_PLACEMENT_3D ( 'NONE', #1025, #382, #1015 ) ;
#7 = ORIENTED_EDGE ( 'NONE', *, *, #251, .F. ) ;
#8 = DIRECTION ( 'NONE',  ( 0.000000000000000000, 0.000000000000000000, 1.000000000000000000 ) ) ;
#9 = LINE ( 'NONE', #526, #1139 ) ;
#10 = ORIENTED_EDGE ( 'NONE', *, *, #274, .T. ) ;
#11 = CIRCLE ( 'NONE', #881, 3.000000000000000000 ) ;
#12 = DIRECTION ( 'NONE',  ( 0.000000000000000000, -1.000000000000000000, 0.000000000000000000 ) ) ;
#13 = CYLINDRICAL_SURFACE ( 'NONE', #358, 1.000000000000000888 ) ;
#14 = COORDINATED_UNIVERSAL_TIME_OFFSET ( 2, 0, .AHEAD. ) ;
#15 = ADVANCED_FACE ( 'NONE', ( #1016, #826 ), #562, .F. ) ;
#16 = ORIENTED_EDGE ( 'NONE', *, *, #663, .F. ) ;
#17 = CARTESIAN_POINT ( 'NONE',  ( 137.0000000000000000, 7.299999999999999822, 14.00000000000000000 ) ) ;
#18 = ORIENTED_EDGE ( 'NONE', *, *, #343, .F. ) ;
#19 = DIRECTION ( 'NONE',  ( 0.9375000000000045519, 0.3479852726768642990, -0.000000000000000000 ) ) ;
#20 = VECTOR ( 'NONE', #874, 1000.000000000000000 ) ;
#21 = VERTEX_POINT ( 'NONE', #1110 ) ;
#22 = DIRECTION ( 'NONE',  ( 0.000000000000000000, -0.000000000000000000, -1.000000000000000000 ) ) ;
#23 = VECTOR ( 'NONE', #81, 1000.000000000000000 ) ;
#24 = EDGE_LOOP ( 'NONE', ( #181, #115 ) ) ;
#25 = CYLINDRICAL_SURFACE ( 'NONE', #444, 3.000000000000000000 ) ;
#26 = VERTEX_POINT ( 'NONE', #297 ) ;
#27 = CARTESIAN_POINT ( 'NONE',  ( 137.0000000000000000, 0.000000000000000000, 3.000000000000000000 ) ) ;
#28 = ORIENTED_EDGE ( 'NONE', *, *, #995, .F. ) ;
#29 = DIRECTION ( 'NONE',  ( -0.000000000000000000, 1.000000000000000000, -0.000000000000000000 ) ) ;
#30 = AXIS2_PLACEMENT_3D ( 'NONE', #583, #217, #55 ) ;
#31 = PLANE ( 'NONE',  #1079 ) ;
#32 = ADVANCED_FACE ( 'NONE', ( #665 ), #31, .F. ) ;
#33 = FACE_BOUND ( 'NONE', #844, .T. ) ;
#34 = ORIENTED_EDGE ( 'NONE', *, *, #702, .F. ) ;
#35 = ADVANCED_FACE ( 'NONE', ( #196 ), #573, .T. ) ;
#36 = FACE_OUTER_BOUND ( 'NONE', #555, .T. ) ;
#37 = FACE_OUTER_BOUND ( 'NONE', #721, .T. ) ;
#38 = CIRCLE ( 'NONE', #703, 3.000000000000000000 ) ;
#39 = CARTESIAN_POINT ( 'NONE',  ( 137.0000000000000000, 0.000000000000000000, 0.000000000000000000 ) ) ;
#40 = VERTEX_POINT ( 'NONE', #655 ) ;
#41 = PRODUCT_DEFINITION ( 'UNKNOWN', '', #632, #129 ) ;
#42 = DIRECTION ( 'NONE',  ( 0.000000000000000000, 1.000000000000000000, 0.000000000000000000 ) ) ;
#43 = CARTESIAN_POINT ( 'NONE',  ( 78.00000000000000000, -30.00000000000000000, 0.000000000000000000 ) ) ;
#44 = LINE ( 'NONE', #399, #571 ) ;
#45 = ORIENTED_EDGE ( 'NONE', *, *, #464, .F. ) ;
#46 = CARTESIAN_POINT ( 'NONE',  ( 5.500000000000000888, 7.300000000000000711, 12.50000000000000000 ) ) ;
#47 = CARTESIAN_POINT ( 'NONE',  ( 80.00000000000000000, -29.99999999999999645, 0.000000000000000000 ) ) ;
#48 = CARTESIAN_POINT ( 'NONE',  ( 137.0000000000000000, 8.000000000000000000, 6.000000000000000000 ) ) ;
#49 = ADVANCED_FACE ( 'NONE', ( #205 ), #110, .F. ) ;
#50 = CC_DESIGN_APPROVAL ( #59, ( #632 ) ) ;
#51 = LINE ( 'NONE', #417, #869 ) ;
#52 = PERSON_AND_ORGANIZATION ( #191, #268 ) ;
#53 = EDGE_CURVE ( 'NONE', #800, #1071, #201, .T. ) ;
#54 = ORIENTED_EDGE ( 'NONE', *, *, #397, .T. ) ;
#55 = DIRECTION ( 'NONE',  ( 0.000000000000000000, -0.000000000000000000, 1.000000000000000000 ) ) ;
#56 = DIRECTION ( 'NONE',  ( 0.000000000000000000, -1.000000000000000000, 0.000000000000000000 ) ) ;
#57 = DIRECTION ( 'NONE',  ( -0.000000000000000000, -0.000000000000000000, -1.000000000000000000 ) ) ;
#58 = PERSON_AND_ORGANIZATION_ROLE ( 'creator' ) ;
#59 = APPROVAL ( #589, 'UNSPECIFIED' ) ;
#60 = CARTESIAN_POINT ( 'NONE',  ( 66.25000000000001421, -24.29753166064966052, 0.000000000000000000 ) ) ;
#61 = ORIENTED_EDGE ( 'NONE', *, *, #750, .T. ) ;
#62 = DIRECTION ( 'NONE',  ( -1.000000000000000000, 0.000000000000000000, 0.000000000000000000 ) ) ;
#63 = LINE ( 'NONE', #341, #394 ) ;
#64 = MECHANICAL_CONTEXT ( 'NONE', #678, 'mechanical' ) ;
#65 = ORIENTED_EDGE ( 'NONE', *, *, #1076, .T. ) ;
#66 = ADVANCED_FACE ( 'NONE', ( #834 ), #13, .F. ) ;
#67 = DIRECTION ( 'NONE',  ( 0.000000000000000000, -1.000000000000000000, -0.000000000000000000 ) ) ;
#68 = DIRECTION ( 'NONE',  ( 0.000000000000000000, 1.000000000000000000, 0.000000000000000000 ) ) ;
#69 = APPROVAL_DATE_TIME ( #1040, #845 ) ;
#70 = AXIS2_PLACEMENT_3D ( 'NONE', #113, #194, #125 ) ;
#71 = ORIENTED_EDGE ( 'NONE', *, *, #483, .F. ) ;
#72 = ADVANCED_FACE ( 'NONE', ( #741 ), #462, .T. ) ;
#73 = PLANE ( 'NONE',  #430 ) ;
#74 = APPLICATION_PROTOCOL_DEFINITION ( 'international standard', 'config_control_design', 1994, #434 ) ;
#75 = ORIENTED_EDGE ( 'NONE', *, *, #288, .F. ) ;
#76 = VERTEX_POINT ( 'NONE', #561 ) ;
#77 = CIRCLE ( 'NONE', #374, 3.999999999999976019 ) ;
#78 = DIRECTION ( 'NONE',  ( 1.000000000000000000, 1.734723475976807094E-16, 0.000000000000000000 ) ) ;
#79 = AXIS2_PLACEMENT_3D ( 'NONE', #357, #89, #727 ) ;
#80 = EDGE_LOOP ( 'NONE', ( #460, #465, #956, #996 ) ) ;
#81 = DIRECTION ( 'NONE',  ( 1.000000000000000000, 0.000000000000000000, 0.000000000000000000 ) ) ;
#82 = EDGE_LOOP ( 'NONE', ( #696, #265, #1105, #924, #540, #121 ) ) ;
#83 = LOCAL_TIME ( 20, 53, 16.00000000000000000, #775 ) ;
#84 = DIRECTION ( 'NONE',  ( 0.000000000000000000, 0.000000000000000000, -1.000000000000000000 ) ) ;
#85 = ADVANCED_FACE ( 'NONE', ( #760 ), #746, .F. ) ;
#86 = EDGE_CURVE ( 'NONE', #323, #405, #128, .T. ) ;
#87 = EDGE_CURVE ( 'NONE', #293, #26, #1020, .T. ) ;
#88 = ORIENTED_EDGE ( 'NONE', *, *, #921, .F. ) ;
#89 = DIRECTION ( 'NONE',  ( 0.000000000000000000, -1.000000000000000000, 0.000000000000000000 ) ) ;
#90 = CARTESIAN_POINT ( 'NONE',  ( 134.5000000000000000, 7.299999999999998934, 14.00000000000000000 ) ) ;
#91 = CIRCLE ( 'NONE', #900, 1.000000000000000888 ) ;
#92 = VERTEX_POINT ( 'NONE', #481 ) ;
#93 = DIRECTION ( 'NONE',  ( -0.000000000000000000, -0.000000000000000000, -1.000000000000000000 ) ) ;
#94 = DIRECTION ( 'NONE',  ( -2.312964634635742957E-16, 1.000000000000000000, 0.000000000000000000 ) ) ;
#95 = DIRECTION ( 'NONE',  ( 0.000000000000000000, 0.000000000000000000, -1.000000000000000000 ) ) ;
#96 = CIRCLE ( 'NONE', #759, 1.000000000000000888 ) ;
#97 = VERTEX_POINT ( 'NONE', #916 ) ;
#98 = CARTESIAN_POINT ( 'NONE',  ( 73.75000000000000000, -24.29753166064965342, 6.000000000000000000 ) ) ;
#99 = ORIENTED_EDGE ( 'NONE', *, *, #921, .T. ) ;
#100 = CARTESIAN_POINT ( 'NONE',  ( 134.5000000000000000, 0.6999999999999992895, 11.50000000000000000 ) ) ;
#101 = AXIS2_PLACEMENT_3D ( 'NONE', #551, #1098, #940 ) ;
#102 = ORIENTED_EDGE ( 'NONE', *, *, #673, .T. ) ;
#103 = LINE ( 'NONE', #1023, #947 ) ;
#104 = EDGE_LOOP ( 'NONE', ( #383, #75, #390, #636 ) ) ;
#105 = DIRECTION ( 'NONE',  ( 1.000000000000000000, 0.000000000000000000, 0.000000000000000000 ) ) ;
#106 = ORIENTED_EDGE ( 'NONE', *, *, #87, .F. ) ;
#107 = DIRECTION ( 'NONE',  ( -1.000000000000000000, -1.734723475976807094E-16, 0.000000000000000000 ) ) ;
#108 = ORIENTED_EDGE ( 'NONE', *, *, #514, .T. ) ;
#109 = AXIS2_PLACEMENT_3D ( 'NONE', #773, #1045, #951 ) ;
#110 = PLANE ( 'NONE',  #548 ) ;
#111 = VECTOR ( 'NONE', #865, 1000.000000000000000 ) ;
#112 = ORIENTED_EDGE ( 'NONE', *, *, #1129, .T. ) ;
#113 = CARTESIAN_POINT ( 'NONE',  ( 85.00000000000001421, -5.000000000000000000, 0.000000000000000000 ) ) ;
#114 = AXIS2_PLACEMENT_3D ( 'NONE', #723, #272, #94 ) ;
#115 = ORIENTED_EDGE ( 'NONE', *, *, #155, .T. ) ;
#116 = DIRECTION ( 'NONE',  ( 0.000000000000000000, 0.000000000000000000, 1.000000000000000000 ) ) ;
#117 = EDGE_CURVE ( 'NONE', #127, #299, #369, .T. ) ;
#118 = CARTESIAN_POINT ( 'NONE',  ( 63.87500000000000000, -30.69597054535374880, 0.000000000000000000 ) ) ;
#119 = ADVANCED_FACE ( 'NONE', ( #928 ), #25, .T. ) ;
#120 = PLANE ( 'NONE',  #263 ) ;
#121 = ORIENTED_EDGE ( 'NONE', *, *, #818, .F. ) ;
#122 = APPROVAL_PERSON_ORGANIZATION ( #506, #59, #424 ) ;
#123 = CARTESIAN_POINT ( 'NONE',  ( 3.000000000000000000, 0.6999999999999992895, 14.00000000000000000 ) ) ;
#124 = VECTOR ( 'NONE', #1136, 1000.000000000000000 ) ;
#125 = DIRECTION ( 'NONE',  ( -1.000000000000000000, -1.734723475976805517E-15, 0.000000000000000000 ) ) ;
#126 = VECTOR ( 'NONE', #935, 1000.000000000000000 ) ;
#127 = VERTEX_POINT ( 'NONE', #387 ) ;
#128 = LINE ( 'NONE', #470, #565 ) ;
#129 = DESIGN_CONTEXT ( 'detailed design', #434, 'design' ) ;
#130 = VECTOR ( 'NONE', #528, 1000.000000000000000 ) ;
#131 = DIRECTION ( 'NONE',  ( -0.000000000000000000, -1.000000000000000000, -0.000000000000000000 ) ) ;
#132 = EDGE_LOOP ( 'NONE', ( #683, #108, #1159, #18 ) ) ;
#133 = PLANE ( 'NONE',  #30 ) ;
#134 = DIRECTION ( 'NONE',  ( 1.000000000000000000, 0.000000000000000000, 0.000000000000000000 ) ) ;
#135 = ADVANCED_FACE ( 'NONE', ( #37 ), #649, .F. ) ;
#136 = EDGE_CURVE ( 'NONE', #76, #1042, #474, .T. ) ;
#137 = CARTESIAN_POINT ( 'NONE',  ( 0.000000000000000000, 0.000000000000000000, 0.000000000000000000 ) ) ;
#138 = ORIENTED_EDGE ( 'NONE', *, *, #1046, .T. ) ;
#139 = DIRECTION ( 'NONE',  ( 1.000000000000000000, 0.000000000000000000, 0.000000000000000000 ) ) ;
#140 = CARTESIAN_POINT ( 'NONE',  ( 3.000000000000000000, 0.6999999999999992895, 11.50000000000000000 ) ) ;
#141 = AXIS2_PLACEMENT_3D ( 'NONE', #1138, #226, #854 ) ;
#142 = COORDINATED_UNIVERSAL_TIME_OFFSET ( 2, 0, .AHEAD. ) ;
#143 = CARTESIAN_POINT ( 'NONE',  ( 137.0000000000000000, 0.000000000000000000, 6.000000000000000000 ) ) ;
#144 = ORIENTED_EDGE ( 'NONE', *, *, #804, .T. ) ;
#145 = CARTESIAN_POINT ( 'NONE',  ( 137.0000000000000000, 0.6999999999999992895, 11.50000000000000000 ) ) ;
#146 = DIRECTION ( 'NONE',  ( 0.3479852726768642435, -0.9375000000000044409, -0.000000000000000000 ) ) ;
#147 = ORIENTED_EDGE ( 'NONE', *, *, #1043, .T. ) ;
#148 = CIRCLE ( 'NONE', #720, 2.500000000000000444 ) ;
#149 = CARTESIAN_POINT ( 'NONE',  ( 85.00000000000001421, -5.000000000000000000, 6.000000000000000000 ) ) ;
#150 = PLANE ( 'NONE',  #1092 ) ;
#151 = DIRECTION ( 'NONE',  ( 0.000000000000000000, -1.000000000000000000, 0.000000000000000000 ) ) ;
#152 = DATE_AND_TIME ( #418, #896 ) ;
#153 = ADVANCED_FACE ( 'NONE', ( #392 ), #841, .T. ) ;
#154 = ORIENTED_EDGE ( 'NONE', *, *, #836, .T. ) ;
#155 = EDGE_CURVE ( 'NONE', #942, #752, #755, .T. ) ;
#156 = DIRECTION ( 'NONE',  ( -4.625929269271485914E-16, -1.000000000000000000, 0.000000000000000000 ) ) ;
#157 = CARTESIAN_POINT ( 'NONE',  ( 76.12499999999998579, -30.69597054535373104, 6.000000000000000000 ) ) ;
#158 = PLANE ( 'NONE',  #943 ) ;
#159 = APPLICATION_PROTOCOL_DEFINITION ( 'international standard', 'config_control_design', 1994, #678 ) ;
#160 = ORIENTED_EDGE ( 'NONE', *, *, #768, .F. ) ;
#161 = CC_DESIGN_PERSON_AND_ORGANIZATION_ASSIGNMENT ( #609, #409, ( #632 ) ) ;
#162 = DIRECTION ( 'NONE',  ( -0.000000000000000000, 1.000000000000000000, -0.000000000000000000 ) ) ;
#163 = ORIENTED_EDGE ( 'NONE', *, *, #1060, .F. ) ;
#164 = CARTESIAN_POINT ( 'NONE',  ( 140.0000000000000000, 0.000000000000000000, 3.000000000000000000 ) ) ;
#165 = ORIENTED_EDGE ( 'NONE', *, *, #155, .F. ) ;
#166 = DIRECTION ( 'NONE',  ( -1.000000000000000000, 0.000000000000000000, 0.000000000000000000 ) ) ;
#167 = EDGE_CURVE ( 'NONE', #797, #914, #599, .T. ) ;
#168 = ORIENTED_EDGE ( 'NONE', *, *, #750, .F. ) ;
#169 = EDGE_CURVE ( 'NONE', #517, #76, #637, .T. ) ;
#170 = EDGE_CURVE ( 'NONE', #690, #1042, #91, .T. ) ;
#171 = AXIS2_PLACEMENT_3D ( 'NONE', #27, #762, #298 ) ;
#172 = ORIENTED_EDGE ( 'NONE', *, *, #1008, .T. ) ;
#173 = FACE_OUTER_BOUND ( 'NONE', #254, .T. ) ;
#174 = ORIENTED_EDGE ( 'NONE', *, *, #908, .T. ) ;
#175 = DIRECTION ( 'NONE',  ( 0.000000000000000000, 0.000000000000000000, 1.000000000000000000 ) ) ;
#176 = ORIENTED_EDGE ( 'NONE', *, *, #117, .F. ) ;
#177 = DIRECTION ( 'NONE',  ( 0.000000000000000000, 0.000000000000000000, 1.000000000000000000 ) ) ;
#178 = VECTOR ( 'NONE', #591, 1000.000000000000000 ) ;
#179 = CYLINDRICAL_SURFACE ( 'NONE', #230, 2.000000000000001776 ) ;
#180 = DIRECTION ( 'NONE',  ( 0.000000000000000000, -1.000000000000000000, 0.000000000000000000 ) ) ;
#181 = ORIENTED_EDGE ( 'NONE', *, *, #663, .T. ) ;
#182 = DIRECTION ( 'NONE',  ( 0.000000000000000000, -1.000000000000000000, 0.000000000000000000 ) ) ;
#183 = CARTESIAN_POINT ( 'NONE',  ( 62.00000000000001421, -30.00000000000000000, 0.000000000000000000 ) ) ;
#184 = VERTEX_POINT ( 'NONE', #765 ) ;
#185 = FACE_OUTER_BOUND ( 'NONE', #815, .T. ) ;
#186 = CIRCLE ( 'NONE', #487, 1.999999999999988010 ) ;
#187 = CARTESIAN_POINT ( 'NONE',  ( 3.000000000000000000, 7.299999999999999822, 14.00000000000000000 ) ) ;
#188 = FACE_OUTER_BOUND ( 'NONE', #308, .T. ) ;
#189 = ORIENTED_EDGE ( 'NONE', *, *, #464, .T. ) ;
#190 = DIRECTION ( 'NONE',  ( -0.000000000000000000, 1.000000000000000000, -0.000000000000000000 ) ) ;
#191 = PERSON ( 'UNSPECIFIED', 'UNSPECIFIED', 'UNSPECIFIED', ('UNSPECIFIED'), ('UNSPECIFIED'), ('UNSPECIFIED') ) ;
#192 = ORIENTED_EDGE ( 'NONE', *, *, #375, .T. ) ;
#193 = LOCAL_TIME ( 20, 53, 16.00000000000000000, #14 ) ;
#194 = DIRECTION ( 'NONE',  ( -0.000000000000000000, -0.000000000000000000, 1.000000000000000000 ) ) ;
#195 = EDGE_LOOP ( 'NONE', ( #452, #472, #564, #1066, #733 ) ) ;
#196 = FACE_OUTER_BOUND ( 'NONE', #80, .T. ) ;
#197 = EDGE_LOOP ( 'NONE', ( #1061, #557, #4, #1099 ) ) ;
#198 = DIRECTION ( 'NONE',  ( 0.000000000000000000, 0.000000000000000000, -1.000000000000000000 ) ) ;
#199 = ORIENTED_EDGE ( 'NONE', *, *, #789, .F. ) ;
#200 = ADVANCED_FACE ( 'NONE', ( #1142 ), #959, .T. ) ;
#201 = LINE ( 'NONE', #373, #1118 ) ;
#202 = EDGE_CURVE ( 'NONE', #939, #363, #698, .T. ) ;
#203 = ORIENTED_EDGE ( 'NONE', *, *, #1046, .F. ) ;
#204 = FACE_OUTER_BOUND ( 'NONE', #197, .T. ) ;
#205 = FACE_OUTER_BOUND ( 'NONE', #851, .T. ) ;
#206 = CALENDAR_DATE ( 2026, 3, 9 ) ;
#207 = LINE ( 'NONE', #832, #1038 ) ;
#208 = EDGE_LOOP ( 'NONE', ( #771, #168, #905, #549 ) ) ;
#209 = CARTESIAN_POINT ( 'NONE',  ( 5.500000000000000888, -32.00100000000000477, 11.50000000000000000 ) ) ;
#210 = AXIS2_PLACEMENT_3D ( 'NONE', #17, #372, #107 ) ;
#211 = CARTESIAN_POINT ( 'NONE',  ( 5.500000000000000888, 0.6999999999999992895, 12.50000000000000000 ) ) ;
#212 = EDGE_LOOP ( 'NONE', ( #521, #623, #1166, #437, #1069 ) ) ;
#213 = DIRECTION ( 'NONE',  ( 0.000000000000000000, 0.000000000000000000, -1.000000000000000000 ) ) ;
#214 = FACE_OUTER_BOUND ( 'NONE', #847, .T. ) ;
#215 = VECTOR ( 'NONE', #692, 1000.000000000000000 ) ;
#216 = ORIENTED_EDGE ( 'NONE', *, *, #291, .T. ) ;
#217 = DIRECTION ( 'NONE',  ( 0.000000000000000000, 1.000000000000000000, 0.000000000000000000 ) ) ;
#218 = FACE_OUTER_BOUND ( 'NONE', #1067, .T. ) ;
#219 = DIRECTION ( 'NONE',  ( 0.000000000000000000, 0.000000000000000000, -1.000000000000000000 ) ) ;
#220 = CARTESIAN_POINT ( 'NONE',  ( 78.00000000000000000, -30.00000000000000000, 6.000000000000000000 ) ) ;
#221 = AXIS2_PLACEMENT_3D ( 'NONE', #607, #93, #448 ) ;
#222 = ORIENTED_EDGE ( 'NONE', *, *, #237, .F. ) ;
#223 = DIRECTION ( 'NONE',  ( 0.000000000000000000, -1.000000000000000000, 0.000000000000000000 ) ) ;
#224 = CARTESIAN_POINT ( 'NONE',  ( 137.0000000000000000, 0.000000000000000000, 3.000000000000000000 ) ) ;
#225 = CARTESIAN_POINT ( 'NONE',  ( 8.000000000000000000, 0.6999999999999992895, 14.00000000000000000 ) ) ;
#226 = DIRECTION ( 'NONE',  ( -0.000000000000000000, 1.000000000000000000, -0.000000000000000000 ) ) ;
#227 = CIRCLE ( 'NONE', #141, 3.000000000000000000 ) ;
#228 = CARTESIAN_POINT ( 'NONE',  ( 137.0000000000000000, 0.6999999999999992895, 14.00000000000000000 ) ) ;
#229 = DATE_TIME_ROLE ( 'creation_date' ) ;
#230 = AXIS2_PLACEMENT_3D ( 'NONE', #1089, #277, #717 ) ;
#231 = ORIENTED_EDGE ( 'NONE', *, *, #2, .T. ) ;
#232 = CARTESIAN_POINT ( 'NONE',  ( 137.0000000000000000, 7.299999999999999822, 6.000000000000000000 ) ) ;
#233 = FACE_BOUND ( 'NONE', #833, .T. ) ;
#234 = CARTESIAN_POINT ( 'NONE',  ( 3.000000000000000000, 8.000000000000000000, 3.000000000000000000 ) ) ;
#235 = EDGE_CURVE ( 'NONE', #40, #648, #310, .T. ) ;
#236 = DIRECTION ( 'NONE',  ( -0.9375000000000042188, 0.3479852726768650206, 0.000000000000000000 ) ) ;
#237 = EDGE_CURVE ( 'NONE', #648, #1014, #77, .T. ) ;
#238 = ORIENTED_EDGE ( 'NONE', *, *, #673, .F. ) ;
#239 = CIRCLE ( 'NONE', #904, 3.000000000000000000 ) ;
#240 = LINE ( 'NONE', #511, #215 ) ;
#241 = CARTESIAN_POINT ( 'NONE',  ( 3.000000000000000000, 0.000000000000000000, 6.000000000000000000 ) ) ;
#242 = APPROVAL_ROLE ( '' ) ;
#243 = PRODUCT_RELATED_PRODUCT_CATEGORY ( 'detail', '', ( #1104 ) ) ;
#244 = CLOSED_SHELL ( 'NONE', ( #976, #611, #1094, #639, #714, #872, #499, #981, #793, #994, #49, #393, #362, #414, #359, #85, #119, #922, #532, #35, #32, #249, #303, #15, #455, #463, #135, #805, #568, #72, #582, #153, #200, #66 ) ) ;
#245 = VERTEX_POINT ( 'NONE', #421 ) ;
#246 = CARTESIAN_POINT ( 'NONE',  ( 137.0000000000000000, 0.6999999999999992895, 6.000000000000000000 ) ) ;
#247 = CARTESIAN_POINT ( 'NONE',  ( 62.00000000000001421, -30.00000000000000000, 6.000000000000000000 ) ) ;
#248 = APPROVAL_ROLE ( '' ) ;
#249 = ADVANCED_FACE ( 'NONE', ( #233, #218 ), #150, .F. ) ;
#250 = ORIENTED_EDGE ( 'NONE', *, *, #885, .F. ) ;
#251 = EDGE_CURVE ( 'NONE', #21, #299, #401, .T. ) ;
#252 = DIRECTION ( 'NONE',  ( -0.000000000000000000, -1.000000000000000000, -0.000000000000000000 ) ) ;
#253 = EDGE_CURVE ( 'NONE', #1014, #479, #791, .T. ) ;
#254 = EDGE_LOOP ( 'NONE', ( #593, #581, #340, #290 ) ) ;
#255 = CARTESIAN_POINT ( 'NONE',  ( 60.00000000000000711, -4.999999999999999112, 6.000000000000000000 ) ) ;
#256 = AXIS2_PLACEMENT_3D ( 'NONE', #225, #578, #945 ) ;
#257 = ORIENTED_EDGE ( 'NONE', *, *, #253, .F. ) ;
#258 = DIRECTION ( 'NONE',  ( -0.000000000000000000, 1.000000000000000000, -0.000000000000000000 ) ) ;
#259 = EDGE_CURVE ( 'NONE', #986, #40, #240, .T. ) ;
#260 = ORIENTED_EDGE ( 'NONE', *, *, #1053, .F. ) ;
#261 = AXIS2_PLACEMENT_3D ( 'NONE', #1115, #300, #572 ) ;
#262 = CARTESIAN_POINT ( 'NONE',  ( 0.000000000000000000, 8.000000000000000000, 6.000000000000000000 ) ) ;
#263 = AXIS2_PLACEMENT_3D ( 'NONE', #839, #484, #666 ) ;
#264 = ORIENTED_EDGE ( 'NONE', *, *, #836, .F. ) ;
#265 = ORIENTED_EDGE ( 'NONE', *, *, #587, .T. ) ;
#266 = PLANE ( 'NONE',  #339 ) ;
#267 = EDGE_CURVE ( 'NONE', #914, #527, #886, .T. ) ;
#268 = ORGANIZATION ( 'UNSPECIFIED', 'UNSPECIFIED', '' ) ;
#269 = ORIENTED_EDGE ( 'NONE', *, *, #1117, .F. ) ;
#270 = CARTESIAN_POINT ( 'NONE',  ( 0.000000000000000000, 0.000000000000000000, 0.000000000000000000 ) ) ;
#271 = AXIS2_PLACEMENT_3D ( 'NONE', #926, #283, #198 ) ;
#272 = DIRECTION ( 'NONE',  ( 1.000000000000000000, 2.312964634635742957E-16, -0.000000000000000000 ) ) ;
#273 = CYLINDRICAL_SURFACE ( 'NONE', #925, 1.000000000000000888 ) ;
#274 = EDGE_CURVE ( 'NONE', #912, #975, #311, .T. ) ;
#275 = ORIENTED_EDGE ( 'NONE', *, *, #2, .F. ) ;
#276 = CARTESIAN_POINT ( 'NONE',  ( 0.000000000000000000, 0.000000000000000000, 0.000000000000000000 ) ) ;
#277 = DIRECTION ( 'NONE',  ( -0.000000000000000000, -0.000000000000000000, -1.000000000000000000 ) ) ;
#278 = ORIENTED_EDGE ( 'NONE', *, *, #753, .F. ) ;
#279 = DIRECTION ( 'NONE',  ( 0.000000000000000000, 1.000000000000000000, 0.000000000000000000 ) ) ;
#280 = VECTOR ( 'NONE', #151, 1000.000000000000000 ) ;
#281 = VECTOR ( 'NONE', #569, 1000.000000000000000 ) ;
#282 = ORIENTED_EDGE ( 'NONE', *, *, #965, .T. ) ;
#283 = DIRECTION ( 'NONE',  ( -0.000000000000000000, 1.000000000000000000, -0.000000000000000000 ) ) ;
#284 = VERTEX_POINT ( 'NONE', #47 ) ;
#285 = CARTESIAN_POINT ( 'NONE',  ( 3.000000000000000000, 0.000000000000000000, 3.000000000000000000 ) ) ;
#286 = AXIS2_PLACEMENT_3D ( 'NONE', #862, #684, #156 ) ;
#287 = ORIENTED_EDGE ( 'NONE', *, *, #938, .T. ) ;
#288 = EDGE_CURVE ( 'NONE', #616, #1071, #973, .T. ) ;
#289 = DIRECTION ( 'NONE',  ( -0.000000000000000000, -0.000000000000000000, -1.000000000000000000 ) ) ;
#290 = ORIENTED_EDGE ( 'NONE', *, *, #550, .T. ) ;
#291 = EDGE_CURVE ( 'NONE', #184, #316, #671, .T. ) ;
#292 = DIRECTION ( 'NONE',  ( -0.000000000000000000, 1.000000000000000000, -0.000000000000000000 ) ) ;
#293 = VERTEX_POINT ( 'NONE', #1147 ) ;
#294 = CARTESIAN_POINT ( 'NONE',  ( 55.00000000000000711, 0.000000000000000000, 0.000000000000000000 ) ) ;
#295 = CARTESIAN_POINT ( 'NONE',  ( 134.5000000000000000, -32.00100000000000477, 11.50000000000000000 ) ) ;
#296 = VECTOR ( 'NONE', #974, 1000.000000000000000 ) ;
#297 = CARTESIAN_POINT ( 'NONE',  ( 8.000000000000000000, 0.6999999999999992895, 11.50000000000000000 ) ) ;
#298 = DIRECTION ( 'NONE',  ( 0.000000000000000000, 0.000000000000000000, 1.000000000000000000 ) ) ;
#299 = VERTEX_POINT ( 'NONE', #1031 ) ;
#300 = DIRECTION ( 'NONE',  ( -0.000000000000000000, -0.000000000000000000, -1.000000000000000000 ) ) ;
#301 = DIRECTION ( 'NONE',  ( 1.000000000000000000, 0.000000000000000000, 0.000000000000000000 ) ) ;
#302 = CARTESIAN_POINT ( 'NONE',  ( 63.87500000000000000, -30.69597054535374880, 6.000000000000000000 ) ) ;
#303 = ADVANCED_FACE ( 'NONE', ( #214 ), #595, .F. ) ;
#304 = FACE_OUTER_BOUND ( 'NONE', #972, .T. ) ;
#305 = EDGE_LOOP ( 'NONE', ( #231, #1146, #830, #837 ) ) ;
#306 = CARTESIAN_POINT ( 'NONE',  ( 55.00000000000000711, 0.000000000000000000, 6.000000000000000000 ) ) ;
#307 = APPROVAL_DATE_TIME ( #761, #631 ) ;
#308 = EDGE_LOOP ( 'NONE', ( #250, #982, #658, #176 ) ) ;
#309 = CARTESIAN_POINT ( 'NONE',  ( 55.00000000000000711, -5.000000000000000000, 6.000000000000000000 ) ) ;
#310 = LINE ( 'NONE', #968, #20 ) ;
#311 = CIRCLE ( 'NONE', #109, 2.500000000000000444 ) ;
#312 = LINE ( 'NONE', #679, #314 ) ;
#313 = PERSON_AND_ORGANIZATION ( #191, #268 ) ;
#314 = VECTOR ( 'NONE', #219, 1000.000000000000000 ) ;
#315 = FACE_OUTER_BOUND ( 'NONE', #195, .T. ) ;
#316 = VERTEX_POINT ( 'NONE', #1126 ) ;
#317 = VECTOR ( 'NONE', #1158, 1000.000000000000000 ) ;
#318 = CARTESIAN_POINT ( 'NONE',  ( 132.0000000000000000, 7.299999999999998934, 11.50000000000000000 ) ) ;
#319 = LINE ( 'NONE', #685, #730 ) ;
#320 = CARTESIAN_POINT ( 'NONE',  ( 76.12499999999998579, -30.69597054535373104, 0.000000000000000000 ) ) ;
#321 = CARTESIAN_POINT ( 'NONE',  ( 0.000000000000000000, 0.000000000000000000, 3.000000000000000000 ) ) ;
#322 = DIRECTION ( 'NONE',  ( -0.000000000000000000, -0.000000000000000000, 1.000000000000000000 ) ) ;
#323 = VERTEX_POINT ( 'NONE', #140 ) ;
#324 = LINE ( 'NONE', #145, #592 ) ;
#325 = DIRECTION ( 'NONE',  ( 0.3479852726768642435, -0.9375000000000044409, -0.000000000000000000 ) ) ;
#326 = DIRECTION ( 'NONE',  ( -0.000000000000000000, 1.000000000000000000, -0.000000000000000000 ) ) ;
#327 = EDGE_CURVE ( 'NONE', #1093, #931, #1135, .T. ) ;
#328 = VECTOR ( 'NONE', #960, 1000.000000000000000 ) ;
#329 = LINE ( 'NONE', #877, #508 ) ;
#330 = DIRECTION ( 'NONE',  ( 0.000000000000000000, 0.000000000000000000, 1.000000000000000000 ) ) ;
#331 = AXIS2_PLACEMENT_3D ( 'NONE', #757, #558, #22 ) ;
#332 = VERTEX_POINT ( 'NONE', #1125 ) ;
#333 = AXIS2_PLACEMENT_3D ( 'NONE', #1003, #677, #407 ) ;
#334 = CARTESIAN_POINT ( 'NONE',  ( 134.5000000000000000, 0.6999999999999992895, 11.50000000000000000 ) ) ;
#335 = CARTESIAN_POINT ( 'NONE',  ( 137.0000000000000000, 8.000000000000000000, 0.000000000000000000 ) ) ;
#336 = CC_DESIGN_DATE_AND_TIME_ASSIGNMENT ( #964, #229, ( #41 ) ) ;
#337 = DIRECTION ( 'NONE',  ( -0.3479852726768650206, -0.9375000000000042188, 0.000000000000000000 ) ) ;
#338 = ORIENTED_EDGE ( 'NONE', *, *, #327, .T. ) ;
#339 = AXIS2_PLACEMENT_3D ( 'NONE', #262, #630, #1072 ) ;
#340 = ORIENTED_EDGE ( 'NONE', *, *, #659, .F. ) ;
#341 = CARTESIAN_POINT ( 'NONE',  ( 8.000000000000000000, 0.6999999999999992895, 14.00000000000000000 ) ) ;
#342 = DIRECTION ( 'NONE',  ( 1.000000000000000000, 0.000000000000000000, 0.000000000000000000 ) ) ;
#343 = EDGE_CURVE ( 'NONE', #975, #797, #1062, .T. ) ;
#344 = EDGE_CURVE ( 'NONE', #355, #670, #880, .T. ) ;
#345 = ORIENTED_EDGE ( 'NONE', *, *, #1008, .F. ) ;
#346 = FACE_OUTER_BOUND ( 'NONE', #1087, .T. ) ;
#347 = DIRECTION ( 'NONE',  ( 0.000000000000000000, 1.000000000000000000, 0.000000000000000000 ) ) ;
#348 = EDGE_LOOP ( 'NONE', ( #264, #1132, #443, #600 ) ) ;
#349 = FACE_OUTER_BOUND ( 'NONE', #371, .T. ) ;
#350 = LINE ( 'NONE', #978, #831 ) ;
#351 = ORIENTED_EDGE ( 'NONE', *, *, #995, .T. ) ;
#352 = LINE ( 'NONE', #441, #745 ) ;
#353 = VECTOR ( 'NONE', #546, 1000.000000000000000 ) ;
#354 = CARTESIAN_POINT ( 'NONE',  ( 132.0000000000000000, 0.6999999999999992895, 6.000000000000000000 ) ) ;
#355 = VERTEX_POINT ( 'NONE', #232 ) ;
#356 = LINE ( 'NONE', #276, #560 ) ;
#357 = CARTESIAN_POINT ( 'NONE',  ( 5.500000000000000000, 0.000000000000000000, 11.50000000000000000 ) ) ;
#358 = AXIS2_PLACEMENT_3D ( 'NONE', #295, #920, #1091 ) ;
#359 = ADVANCED_FACE ( 'NONE', ( #518 ), #967, .F. ) ;
#360 = ORIENTED_EDGE ( 'NONE', *, *, #1009, .F. ) ;
#361 = LINE ( 'NONE', #626, #130 ) ;
#362 = ADVANCED_FACE ( 'NONE', ( #697 ), #493, .F. ) ;
#363 = VERTEX_POINT ( 'NONE', #427 ) ;
#364 = CARTESIAN_POINT ( 'NONE',  ( 5.500000000000000000, 0.6999999999999992895, 11.50000000000000000 ) ) ;
#365 = CIRCLE ( 'NONE', #1017, 4.999999999999997335 ) ;
#366 = DIRECTION ( 'NONE',  ( -0.000000000000000000, -0.000000000000000000, -1.000000000000000000 ) ) ;
#367 = VERTEX_POINT ( 'NONE', #1153 ) ;
#368 = FACE_OUTER_BOUND ( 'NONE', #620, .T. ) ;
#369 = LINE ( 'NONE', #1011, #537 ) ;
#370 = CC_DESIGN_PERSON_AND_ORGANIZATION_ASSIGNMENT ( #52, #403, ( #1104 ) ) ;
#371 = EDGE_LOOP ( 'NONE', ( #785, #360, #203, #1029 ) ) ;
#372 = DIRECTION ( 'NONE',  ( -1.734723475976807094E-16, 1.000000000000000000, 0.000000000000000000 ) ) ;
#373 = CARTESIAN_POINT ( 'NONE',  ( 0.000000000000000000, 0.000000000000000000, 6.000000000000000000 ) ) ;
#374 = AXIS2_PLACEMENT_3D ( 'NONE', #415, #1037, #134 ) ;
#375 = EDGE_CURVE ( 'NONE', #527, #92, #324, .T. ) ;
#376 = CIRCLE ( 'NONE', #985, 1.999999999999988010 ) ;
#377 = EDGE_CURVE ( 'NONE', #731, #878, #650, .T. ) ;
#378 = ORIENTED_EDGE ( 'NONE', *, *, #961, .T. ) ;
#379 = EDGE_CURVE ( 'NONE', #643, #97, #873, .T. ) ;
#380 = DIRECTION ( 'NONE',  ( 1.000000000000000000, -3.469446951953613696E-16, 0.000000000000000000 ) ) ;
#381 = ORIENTED_EDGE ( 'NONE', *, *, #700, .F. ) ;
#382 = DIRECTION ( 'NONE',  ( 0.000000000000000000, -1.000000000000000000, 0.000000000000000000 ) ) ;
#383 = ORIENTED_EDGE ( 'NONE', *, *, #716, .F. ) ;
#384 = VECTOR ( 'NONE', #1143, 1000.000000000000000 ) ;
#385 = LINE ( 'NONE', #1013, #281 ) ;
#386 = ORIENTED_EDGE ( 'NONE', *, *, #539, .F. ) ;
#387 = CARTESIAN_POINT ( 'NONE',  ( 60.00000000000001421, -29.99999999999999645, 6.000000000000000000 ) ) ;
#388 = DIRECTION ( 'NONE',  ( -1.734723475976807094E-16, -1.000000000000000000, 0.000000000000000000 ) ) ;
#389 = DIRECTION ( 'NONE',  ( -0.000000000000000000, 1.000000000000000000, -0.000000000000000000 ) ) ;
#390 = ORIENTED_EDGE ( 'NONE', *, *, #397, .F. ) ;
#391 = CYLINDRICAL_SURFACE ( 'NONE', #261, 3.999999999999976019 ) ;
#392 = FACE_OUTER_BOUND ( 'NONE', #1124, .T. ) ;
#393 = ADVANCED_FACE ( 'NONE', ( #173 ), #179, .T. ) ;
#394 = VECTOR ( 'NONE', #794, 1000.000000000000000 ) ;
#395 = CARTESIAN_POINT ( 'NONE',  ( 137.0000000000000000, 7.299999999999999822, 11.50000000000000000 ) ) ;
#396 = ORIENTED_EDGE ( 'NONE', *, *, #903, .T. ) ;
#397 = EDGE_CURVE ( 'NONE', #21, #616, #1049, .T. ) ;
#398 = CARTESIAN_POINT ( 'NONE',  ( 60.00000000000000711, 3.061616997868385015E-15, 0.000000000000000000 ) ) ;
#399 = CARTESIAN_POINT ( 'NONE',  ( 134.5000000000000000, -32.00100000000000477, 10.49999999999999822 ) ) ;
#400 = VERTEX_POINT ( 'NONE', #642 ) ;
#401 = LINE ( 'NONE', #398, #579 ) ;
#402 = DIRECTION ( 'NONE',  ( 1.000000000000000000, 0.000000000000000000, -0.000000000000000000 ) ) ;
#403 = PERSON_AND_ORGANIZATION_ROLE ( 'design_owner' ) ;
#404 = DIRECTION ( 'NONE',  ( 0.000000000000000000, 1.000000000000000000, 0.000000000000000000 ) ) ;
#405 = VERTEX_POINT ( 'NONE', #1 ) ;
#406 = CARTESIAN_POINT ( 'NONE',  ( 55.00000000000000711, -5.000000000000000000, 6.000000000000000000 ) ) ;
#407 = DIRECTION ( 'NONE',  ( 0.000000000000000000, 0.000000000000000000, 1.000000000000000000 ) ) ;
#408 = LINE ( 'NONE', #588, #852 ) ;
#409 = PERSON_AND_ORGANIZATION_ROLE ( 'design_supplier' ) ;
#410 = EDGE_CURVE ( 'NONE', #931, #711, #552, .T. ) ;
#411 = VECTOR ( 'NONE', #12, 1000.000000000000000 ) ;
#412 = LINE ( 'NONE', #1130, #693 ) ;
#413 = ORIENTED_EDGE ( 'NONE', *, *, #1114, .F. ) ;
#414 = ADVANCED_FACE ( 'NONE', ( #188 ), #980, .F. ) ;
#415 = CARTESIAN_POINT ( 'NONE',  ( 70.00000000000001421, -25.68947275135711195, 0.000000000000000000 ) ) ;
#416 = PLANE ( 'NONE',  #439 ) ;
#417 = CARTESIAN_POINT ( 'NONE',  ( 5.500000000000000888, -32.00100000000000477, 12.50000000000000000 ) ) ;
#418 = CALENDAR_DATE ( 2026, 3, 9 ) ;
#419 = EDGE_LOOP ( 'NONE', ( #545, #728, #542, #705, #88 ) ) ;
#420 = DIRECTION ( 'NONE',  ( 0.000000000000000000, 1.000000000000000000, 0.000000000000000000 ) ) ;
#421 = CARTESIAN_POINT ( 'NONE',  ( 80.00000000000000000, -29.99999999999999645, 6.000000000000000000 ) ) ;
#422 = CARTESIAN_POINT ( 'NONE',  ( 137.0000000000000000, 0.000000000000000000, 0.000000000000000000 ) ) ;
#423 = CIRCLE ( 'NONE', #221, 3.999999999999976019 ) ;
#424 = APPROVAL_ROLE ( '' ) ;
#425 = AXIS2_PLACEMENT_3D ( 'NONE', #563, #501, #860 ) ;
#426 = VERTEX_POINT ( 'NONE', #987 ) ;
#427 = CARTESIAN_POINT ( 'NONE',  ( 76.12499999999998579, -30.69597054535373104, 6.000000000000000000 ) ) ;
#428 = CARTESIAN_POINT ( 'NONE',  ( 63.87500000000000000, -30.69597054535374880, 6.000000000000000000 ) ) ;
#429 = ORIENTED_EDGE ( 'NONE', *, *, #1026, .F. ) ;
#430 = AXIS2_PLACEMENT_3D ( 'NONE', #428, #236, #337 ) ;
#431 = CARTESIAN_POINT ( 'NONE',  ( 3.000000000000000000, 0.6999999999999992895, 6.000000000000000000 ) ) ;
#432 = EDGE_LOOP ( 'NONE', ( #533, #806, #174, #99, #725, #435, #282, #1077, #990, #628, #1157, #536, #744, #808, #553, #1019, #65, #888, #3, #674, #820, #909 ) ) ;
#433 = AXIS2_PLACEMENT_3D ( 'NONE', #615, #1070, #709 ) ;
#434 = APPLICATION_CONTEXT ( 'configuration controlled 3d designs of mechanical parts and assemblies' ) ;
#435 = ORIENTED_EDGE ( 'NONE', *, *, #818, .T. ) ;
#436 = LINE ( 'NONE', #907, #783 ) ;
#437 = ORIENTED_EDGE ( 'NONE', *, *, #529, .T. ) ;
#438 = LINE ( 'NONE', #891, #814 ) ;
#439 = AXIS2_PLACEMENT_3D ( 'NONE', #868, #585, #491 ) ;
#440 = ORIENTED_EDGE ( 'NONE', *, *, #627, .F. ) ;
#441 = CARTESIAN_POINT ( 'NONE',  ( 0.000000000000000000, 0.000000000000000000, 6.000000000000000000 ) ) ;
#442 = CYLINDRICAL_SURFACE ( 'NONE', #433, 2.500000000000000444 ) ;
#443 = ORIENTED_EDGE ( 'NONE', *, *, #461, .T. ) ;
#444 = AXIS2_PLACEMENT_3D ( 'NONE', #285, #848, #1103 ) ;
#445 = CARTESIAN_POINT ( 'NONE',  ( 134.5000000000000000, 0.6999999999999992895, 14.00000000000000000 ) ) ;
#446 = EDGE_CURVE ( 'NONE', #570, #977, #522, .T. ) ;
#447 = VERTEX_POINT ( 'NONE', #535 ) ;
#448 = DIRECTION ( 'NONE',  ( 1.000000000000000000, 0.000000000000000000, 0.000000000000000000 ) ) ;
#449 = EDGE_CURVE ( 'NONE', #97, #184, #817, .T. ) ;
#450 = VECTOR ( 'NONE', #347, 1000.000000000000000 ) ;
#451 = CARTESIAN_POINT ( 'NONE',  ( 3.000000000000000000, 8.000000000000000000, 0.000000000000000000 ) ) ;
#452 = ORIENTED_EDGE ( 'NONE', *, *, #622, .T. ) ;
#453 = DIRECTION ( 'NONE',  ( 0.000000000000000000, 1.000000000000000000, 0.000000000000000000 ) ) ;
#454 = CARTESIAN_POINT ( 'NONE',  ( 76.12499999999998579, -30.69597054535373104, 0.000000000000000000 ) ) ;
#455 = ADVANCED_FACE ( 'NONE', ( #349 ), #547, .T. ) ;
#456 = ORIENTED_EDGE ( 'NONE', *, *, #586, .F. ) ;
#457 = CARTESIAN_POINT ( 'NONE',  ( 134.5000000000000000, 0.6999999999999992895, 11.50000000000000000 ) ) ;
#458 = VERTEX_POINT ( 'NONE', #801 ) ;
#459 = FACE_BOUND ( 'NONE', #24, .T. ) ;
#460 = ORIENTED_EDGE ( 'NONE', *, *, #1043, .F. ) ;
#461 = EDGE_CURVE ( 'NONE', #405, #643, #901, .T. ) ;
#462 = PLANE ( 'NONE',  #610 ) ;
#463 = ADVANCED_FACE ( 'NONE', ( #346 ), #442, .T. ) ;
#464 = EDGE_CURVE ( 'NONE', #299, #509, #376, .T. ) ;
#465 = ORIENTED_EDGE ( 'NONE', *, *, #1129, .F. ) ;
#466 = AXIS2_PLACEMENT_3D ( 'NONE', #606, #1051, #1121 ) ;
#467 = DIRECTION ( 'NONE',  ( 1.000000000000000000, -3.469446951953613696E-16, 0.000000000000000000 ) ) ;
#468 = ORIENTED_EDGE ( 'NONE', *, *, #675, .T. ) ;
#469 = VECTOR ( 'NONE', #78, 1000.000000000000000 ) ;
#470 = CARTESIAN_POINT ( 'NONE',  ( 3.000000000000000000, 0.6999999999999992895, 11.50000000000000000 ) ) ;
#471 = VECTOR ( 'NONE', #807, 1000.000000000000000 ) ;
#472 = ORIENTED_EDGE ( 'NONE', *, *, #1053, .T. ) ;
#473 = DIRECTION ( 'NONE',  ( -0.000000000000000000, 1.000000000000000000, -0.000000000000000000 ) ) ;
#474 = LINE ( 'NONE', #486, #1107 ) ;
#475 = ORIENTED_EDGE ( 'NONE', *, *, #379, .F. ) ;
#476 = VECTOR ( 'NONE', #326, 1000.000000000000000 ) ;
#477 = CARTESIAN_POINT ( 'NONE',  ( 132.0000000000000000, 7.299999999999998934, 14.00000000000000000 ) ) ;
#478 = EDGE_CURVE ( 'NONE', #245, #284, #436, .T. ) ;
#479 = VERTEX_POINT ( 'NONE', #454 ) ;
#480 = CIRCLE ( 'NONE', #271, 3.000000000000000000 ) ;
#481 = CARTESIAN_POINT ( 'NONE',  ( 137.0000000000000000, 0.6999999999999992895, 11.50000000000000000 ) ) ;
#482 = AXIS2_PLACEMENT_3D ( 'NONE', #867, #864, #62 ) ;
#483 = EDGE_CURVE ( 'NONE', #245, #731, #9, .T. ) ;
#484 = DIRECTION ( 'NONE',  ( 0.000000000000000000, 0.000000000000000000, -1.000000000000000000 ) ) ;
#485 = EDGE_LOOP ( 'NONE', ( #238, #351, #654, #165 ) ) ;
#486 = CARTESIAN_POINT ( 'NONE',  ( 5.500000000000000888, -32.00100000000000477, 10.49999999999999822 ) ) ;
#487 = AXIS2_PLACEMENT_3D ( 'NONE', #1039, #694, #505 ) ;
#488 = DIRECTION ( 'NONE',  ( 0.000000000000000000, 0.000000000000000000, 1.000000000000000000 ) ) ;
#489 = ORIENTED_EDGE ( 'NONE', *, *, #586, .T. ) ;
#490 = DIRECTION ( 'NONE',  ( 0.000000000000000000, 0.000000000000000000, 1.000000000000000000 ) ) ;
#491 = DIRECTION ( 'NONE',  ( -1.000000000000000000, 0.000000000000000000, -0.000000000000000000 ) ) ;
#492 = VERTEX_POINT ( 'NONE', #39 ) ;
#493 = PLANE ( 'NONE',  #286 ) ;
#494 = CARTESIAN_POINT ( 'NONE',  ( 5.500000000000000888, 0.6999999999999992895, 11.50000000000000000 ) ) ;
#495 = DIRECTION ( 'NONE',  ( 0.000000000000000000, 0.000000000000000000, 1.000000000000000000 ) ) ;
#496 = EDGE_CURVE ( 'NONE', #405, #811, #1096, .T. ) ;
#497 = LINE ( 'NONE', #902, #644 ) ;
#498 = APPROVAL_DATE_TIME ( #152, #59 ) ;
#499 = ADVANCED_FACE ( 'NONE', ( #304 ), #120, .T. ) ;
#500 = EDGE_CURVE ( 'NONE', #811, #293, #624, .T. ) ;
#501 = DIRECTION ( 'NONE',  ( -0.000000000000000000, -1.000000000000000000, -0.000000000000000000 ) ) ;
#502 = ORIENTED_EDGE ( 'NONE', *, *, #908, .F. ) ;
#503 = CARTESIAN_POINT ( 'NONE',  ( 0.000000000000000000, 0.000000000000000000, 3.000000000000000000 ) ) ;
#504 = DIRECTION ( 'NONE',  ( 0.000000000000000000, -0.000000000000000000, 1.000000000000000000 ) ) ;
#505 = DIRECTION ( 'NONE',  ( 1.000000000000000000, 0.000000000000000000, 0.000000000000000000 ) ) ;
#506 = PERSON_AND_ORGANIZATION ( #191, #268 ) ;
#507 = CC_DESIGN_PERSON_AND_ORGANIZATION_ASSIGNMENT ( #695, #953, ( #41 ) ) ;
#508 = VECTOR ( 'NONE', #322, 1000.000000000000000 ) ;
#509 = VERTEX_POINT ( 'NONE', #669 ) ;
#510 = DIRECTION ( 'NONE',  ( -1.000000000000000000, 0.000000000000000000, 0.000000000000000000 ) ) ;
#511 = CARTESIAN_POINT ( 'NONE',  ( 63.87500000000000000, -30.69597054535374880, 6.000000000000000000 ) ) ;
#512 = PERSON_AND_ORGANIZATION ( #191, #268 ) ;
#513 = ORIENTED_EDGE ( 'NONE', *, *, #961, .F. ) ;
#514 = EDGE_CURVE ( 'NONE', #912, #914, #1100, .T. ) ;
#515 = FACE_OUTER_BOUND ( 'NONE', #1004, .T. ) ;
#516 = APPROVAL_STATUS ( 'not_yet_approved' ) ;
#517 = VERTEX_POINT ( 'NONE', #211 ) ;
#518 = FACE_OUTER_BOUND ( 'NONE', #104, .T. ) ;
#519 = CARTESIAN_POINT ( 'NONE',  ( 3.000000000000000000, 0.000000000000000000, 3.000000000000000000 ) ) ;
#520 = VECTOR ( 'NONE', #146, 1000.000000000000227 ) ;
#521 = ORIENTED_EDGE ( 'NONE', *, *, #496, .T. ) ;
#522 = LINE ( 'NONE', #822, #471 ) ;
#523 = VECTOR ( 'NONE', #289, 1000.000000000000000 ) ;
#524 = FACE_OUTER_BOUND ( 'NONE', #82, .T. ) ;
#525 = EDGE_LOOP ( 'NONE', ( #1007, #429 ) ) ;
#526 = CARTESIAN_POINT ( 'NONE',  ( 80.00000000000001421, 3.061616997868385015E-15, 6.000000000000000000 ) ) ;
#527 = VERTEX_POINT ( 'NONE', #395 ) ;
#528 = DIRECTION ( 'NONE',  ( 2.312964634635742957E-16, -1.000000000000000000, 0.000000000000000000 ) ) ;
#529 = EDGE_CURVE ( 'NONE', #316, #643, #207, .T. ) ;
#530 = AXIS2_PLACEMENT_3D ( 'NONE', #43, #1032, #780 ) ;
#531 = AXIS2_PLACEMENT_3D ( 'NONE', #580, #131, #488 ) ;
#532 = ADVANCED_FACE ( 'NONE', ( #554 ), #1018, .T. ) ;
#533 = ORIENTED_EDGE ( 'NONE', *, *, #539, .T. ) ;
#534 = CARTESIAN_POINT ( 'NONE',  ( 3.000000000000000000, 0.000000000000000000, 3.000000000000000000 ) ) ;
#535 = CARTESIAN_POINT ( 'NONE',  ( 132.0000000000000000, 0.6999999999999992895, 6.000000000000000000 ) ) ;
#536 = ORIENTED_EDGE ( 'NONE', *, *, #53, .T. ) ;
#537 = VECTOR ( 'NONE', #829, 1000.000000000000000 ) ;
#538 = DIRECTION ( 'NONE',  ( 0.000000000000000000, 0.000000000000000000, -1.000000000000000000 ) ) ;
#539 = EDGE_CURVE ( 'NONE', #652, #670, #385, .T. ) ;
#540 = ORIENTED_EDGE ( 'NONE', *, *, #410, .T. ) ;
#541 = DIRECTION ( 'NONE',  ( 1.000000000000000000, 0.000000000000000000, 0.000000000000000000 ) ) ;
#542 = ORIENTED_EDGE ( 'NONE', *, *, #267, .T. ) ;
#543 = CIRCLE ( 'NONE', #1111, 1.000000000000000888 ) ;
#544 = DIRECTION ( 'NONE',  ( -1.000000000000000000, 0.000000000000000000, 0.000000000000000000 ) ) ;
#545 = ORIENTED_EDGE ( 'NONE', *, *, #567, .F. ) ;
#546 = DIRECTION ( 'NONE',  ( -0.000000000000000000, -0.000000000000000000, -1.000000000000000000 ) ) ;
#547 = CYLINDRICAL_SURFACE ( 'NONE', #79, 2.500000000000000444 ) ;
#548 = AXIS2_PLACEMENT_3D ( 'NONE', #556, #19, #566 ) ;
#549 = ORIENTED_EDGE ( 'NONE', *, *, #919, .F. ) ;
#550 = EDGE_CURVE ( 'NONE', #363, #479, #103, .T. ) ;
#551 = CARTESIAN_POINT ( 'NONE',  ( 85.00000000000001421, -5.000000000000000000, 6.000000000000000000 ) ) ;
#552 = CIRCLE ( 'NONE', #835, 3.000000000000000000 ) ;
#553 = ORIENTED_EDGE ( 'NONE', *, *, #753, .T. ) ;
#554 = FACE_OUTER_BOUND ( 'NONE', #1152, .T. ) ;
#555 = EDGE_LOOP ( 'NONE', ( #1163, #345, #1050, #1120 ) ) ;
#556 = CARTESIAN_POINT ( 'NONE',  ( 76.12499999999998579, -30.69597054535373104, 6.000000000000000000 ) ) ;
#557 = ORIENTED_EDGE ( 'NONE', *, *, #136, .T. ) ;
#558 = DIRECTION ( 'NONE',  ( 0.000000000000000000, -1.000000000000000000, 0.000000000000000000 ) ) ;
#559 = ORIENTED_EDGE ( 'NONE', *, *, #170, .T. ) ;
#560 = VECTOR ( 'NONE', #641, 1000.000000000000000 ) ;
#561 = CARTESIAN_POINT ( 'NONE',  ( 5.500000000000000888, 0.6999999999999992895, 10.49999999999999822 ) ) ;
#562 = PLANE ( 'NONE',  #876 ) ;
#563 = CARTESIAN_POINT ( 'NONE',  ( 3.000000000000000000, 0.000000000000000000, 3.000000000000000000 ) ) ;
#564 = ORIENTED_EDGE ( 'NONE', *, *, #1022, .T. ) ;
#565 = VECTOR ( 'NONE', #29, 1000.000000000000000 ) ;
#566 = DIRECTION ( 'NONE',  ( -0.3479852726768642435, 0.9375000000000044409, 0.000000000000000000 ) ) ;
#567 = EDGE_CURVE ( 'NONE', #797, #400, #937, .T. ) ;
#568 = ADVANCED_FACE ( 'NONE', ( #459, #751 ), #827, .T. ) ;
#569 = DIRECTION ( 'NONE',  ( 0.000000000000000000, 1.000000000000000000, 0.000000000000000000 ) ) ;
#570 = VERTEX_POINT ( 'NONE', #743 ) ;
#571 = VECTOR ( 'NONE', #672, 1000.000000000000000 ) ;
#572 = DIRECTION ( 'NONE',  ( -1.000000000000000000, 0.000000000000000000, 0.000000000000000000 ) ) ;
#573 = CYLINDRICAL_SURFACE ( 'NONE', #6, 3.000000000000000000 ) ;
#574 =( LENGTH_UNIT ( ) NAMED_UNIT ( * ) SI_UNIT ( .MILLI., .METRE. ) );
#575 = DIRECTION ( 'NONE',  ( 0.000000000000000000, 0.000000000000000000, 1.000000000000000000 ) ) ;
#576 = ORIENTED_EDGE ( 'NONE', *, *, #838, .F. ) ;
#577 = DIRECTION ( 'NONE',  ( 4.625929269271485914E-16, 1.000000000000000000, -0.000000000000000000 ) ) ;
#578 = DIRECTION ( 'NONE',  ( -1.000000000000000000, 0.000000000000000000, 0.000000000000000000 ) ) ;
#579 = VECTOR ( 'NONE', #779, 1000.000000000000000 ) ;
#580 = CARTESIAN_POINT ( 'NONE',  ( 134.5000000000000000, 7.300000000000000711, 11.50000000000000000 ) ) ;
#581 = ORIENTED_EDGE ( 'NONE', *, *, #478, .F. ) ;
#582 = ADVANCED_FACE ( 'NONE', ( #33, #738 ), #653, .T. ) ;
#583 = CARTESIAN_POINT ( 'NONE',  ( 0.000000000000000000, 0.000000000000000000, 6.000000000000000000 ) ) ;
#584 = CARTESIAN_POINT ( 'NONE',  ( 3.000000000000000000, 0.6999999999999992895, 14.00000000000000000 ) ) ;
#585 = DIRECTION ( 'NONE',  ( 0.000000000000000000, 0.000000000000000000, -1.000000000000000000 ) ) ;
#586 = EDGE_CURVE ( 'NONE', #975, #447, #657, .T. ) ;
#587 = EDGE_CURVE ( 'NONE', #570, #1034, #480, .T. ) ;
#588 = CARTESIAN_POINT ( 'NONE',  ( 3.000000000000000000, 0.6999999999999992895, 14.00000000000000000 ) ) ;
#589 = APPROVAL_STATUS ( 'not_yet_approved' ) ;
#590 = AXIS2_PLACEMENT_3D ( 'NONE', #1052, #596, #495 ) ;
#591 = DIRECTION ( 'NONE',  ( -1.000000000000000000, -0.000000000000000000, -0.000000000000000000 ) ) ;
#592 = VECTOR ( 'NONE', #223, 1000.000000000000000 ) ;
#593 = ORIENTED_EDGE ( 'NONE', *, *, #1080, .T. ) ;
#594 = DIRECTION ( 'NONE',  ( -1.000000000000000000, 0.000000000000000000, 0.000000000000000000 ) ) ;
#595 = PLANE ( 'NONE',  #256 ) ;
#596 = DIRECTION ( 'NONE',  ( -0.000000000000000000, -1.000000000000000000, -0.000000000000000000 ) ) ;
#597 = CARTESIAN_POINT ( 'NONE',  ( 134.5000000000000000, 7.300000000000000711, 12.50000000000000000 ) ) ;
#598 = DATE_TIME_ROLE ( 'classification_date' ) ;
#599 = CIRCLE ( 'NONE', #482, 2.500000000000002220 ) ;
#600 = ORIENTED_EDGE ( 'NONE', *, *, #379, .T. ) ;
#601 = DIRECTION ( 'NONE',  ( -0.000000000000000000, -0.000000000000000000, 1.000000000000000000 ) ) ;
#602 = CARTESIAN_POINT ( 'NONE',  ( 132.0000000000000000, 7.299999999999998934, 11.50000000000000000 ) ) ;
#603 = AXIS2_PLACEMENT_3D ( 'NONE', #247, #1160, #1068 ) ;
#604 = EDGE_CURVE ( 'NONE', #777, #367, #936, .T. ) ;
#605 = ORIENTED_EDGE ( 'NONE', *, *, #1131, .F. ) ;
#606 = CARTESIAN_POINT ( 'NONE',  ( 134.5000000000000000, 7.299999999999998934, 11.50000000000000000 ) ) ;
#607 = CARTESIAN_POINT ( 'NONE',  ( 70.00000000000001421, -25.68947275135711195, 6.000000000000000000 ) ) ;
#608 = DIRECTION ( 'NONE',  ( -0.000000000000000000, 1.000000000000000000, -0.000000000000000000 ) ) ;
#609 = PERSON_AND_ORGANIZATION ( #191, #268 ) ;
#610 = AXIS2_PLACEMENT_3D ( 'NONE', #1109, #661, #754 ) ;
#611 = ADVANCED_FACE ( 'NONE', ( #204 ), #647, .F. ) ;
#612 = ORIENTED_EDGE ( 'NONE', *, *, #136, .F. ) ;
#613 = CC_DESIGN_APPROVAL ( #845, ( #41 ) ) ;
#614 = ORIENTED_EDGE ( 'NONE', *, *, #267, .F. ) ;
#615 = CARTESIAN_POINT ( 'NONE',  ( 5.500000000000000000, 0.000000000000000000, 11.50000000000000000 ) ) ;
#616 = VERTEX_POINT ( 'NONE', #294 ) ;
#617 = DIRECTION ( 'NONE',  ( 0.000000000000000000, -1.000000000000000000, 0.000000000000000000 ) ) ;
#618 = VECTOR ( 'NONE', #601, 1000.000000000000000 ) ;
#619 = VECTOR ( 'NONE', #774, 1000.000000000000000 ) ;
#620 = EDGE_LOOP ( 'NONE', ( #189, #740, #278, #1113 ) ) ;
#621 = DIRECTION ( 'NONE',  ( 0.000000000000000000, 0.000000000000000000, -1.000000000000000000 ) ) ;
#622 = EDGE_CURVE ( 'NONE', #800, #1093, #1084, .T. ) ;
#623 = ORIENTED_EDGE ( 'NONE', *, *, #500, .T. ) ;
#624 = CIRCLE ( 'NONE', #929, 2.500000000000000444 ) ;
#625 = EDGE_CURVE ( 'NONE', #355, #1097, #412, .T. ) ;
#626 = CARTESIAN_POINT ( 'NONE',  ( 60.00000000000000711, 3.061616997868385015E-15, 6.000000000000000000 ) ) ;
#627 = EDGE_CURVE ( 'NONE', #1034, #898, #784, .T. ) ;
#628 = ORIENTED_EDGE ( 'NONE', *, *, #449, .F. ) ;
#629 = CARTESIAN_POINT ( 'NONE',  ( 55.00000000000000711, -5.000000000000000000, 0.000000000000000000 ) ) ;
#630 = DIRECTION ( 'NONE',  ( 0.000000000000000000, -1.000000000000000000, 0.000000000000000000 ) ) ;
#631 = APPROVAL ( #516, 'UNSPECIFIED' ) ;
#632 = PRODUCT_DEFINITION_FORMATION_WITH_SPECIFIED_SOURCE ( 'ANY', '', #1104, .NOT_KNOWN. ) ;
#633 = AXIS2_PLACEMENT_3D ( 'NONE', #220, #575, #941 ) ;
#634 = ORIENTED_EDGE ( 'NONE', *, *, #675, .F. ) ;
#635 = DIRECTION ( 'NONE',  ( 0.000000000000000000, 0.000000000000000000, -1.000000000000000000 ) ) ;
#636 = ORIENTED_EDGE ( 'NONE', *, *, #823, .F. ) ;
#637 = CIRCLE ( 'NONE', #1150, 1.000000000000000888 ) ;
#638 = DIRECTION ( 'NONE',  ( -0.000000000000000000, 1.000000000000000000, -0.000000000000000000 ) ) ;
#639 = ADVANCED_FACE ( 'NONE', ( #315 ), #770, .F. ) ;
#640 = DIRECTION ( 'NONE',  ( 0.3479852726768650761, 0.9375000000000042188, 0.000000000000000000 ) ) ;
#641 = DIRECTION ( 'NONE',  ( 1.000000000000000000, 0.000000000000000000, 0.000000000000000000 ) ) ;
#642 = CARTESIAN_POINT ( 'NONE',  ( 132.0000000000000000, 7.299999999999998934, 6.000000000000000000 ) ) ;
#643 = VERTEX_POINT ( 'NONE', #1123 ) ;
#644 = VECTOR ( 'NONE', #544, 1000.000000000000000 ) ;
#645 = DIRECTION ( 'NONE',  ( 0.000000000000000000, 0.000000000000000000, 1.000000000000000000 ) ) ;
#646 = ORIENTED_EDGE ( 'NONE', *, *, #449, .T. ) ;
#647 = CYLINDRICAL_SURFACE ( 'NONE', #792, 1.000000000000000888 ) ;
#648 = VERTEX_POINT ( 'NONE', #60 ) ;
#649 = CYLINDRICAL_SURFACE ( 'NONE', #963, 1.000000000000000888 ) ;
#650 = CIRCLE ( 'NONE', #708, 5.000000000000004441 ) ;
#651 = CIRCLE ( 'NONE', #530, 2.000000000000001776 ) ;
#652 = VERTEX_POINT ( 'NONE', #143 ) ;
#653 = PLANE ( 'NONE',  #331 ) ;
#654 = ORIENTED_EDGE ( 'NONE', *, *, #767, .T. ) ;
#655 = CARTESIAN_POINT ( 'NONE',  ( 66.25000000000001421, -24.29753166064966052, 6.000000000000000000 ) ) ;
#656 = ORIENTED_EDGE ( 'NONE', *, *, #702, .T. ) ;
#657 = LINE ( 'NONE', #1095, #1027 ) ;
#658 = ORIENTED_EDGE ( 'NONE', *, *, #251, .T. ) ;
#659 = EDGE_CURVE ( 'NONE', #363, #245, #1145, .T. ) ;
#660 = CIRCLE ( 'NONE', #1073, 1.000000000000000888 ) ;
#661 = DIRECTION ( 'NONE',  ( -1.000000000000000000, 0.000000000000000000, 0.000000000000000000 ) ) ;
#662 = UNCERTAINTY_MEASURE_WITH_UNIT (LENGTH_MEASURE( 1.000000000000000082E-05 ), #574, 'distance_accuracy_value', 'NONE');
#663 = EDGE_CURVE ( 'NONE', #752, #942, #843, .T. ) ;
#664 = PRODUCT_DEFINITION_SHAPE ( 'NONE', 'NONE',  #41 ) ;
#665 = FACE_OUTER_BOUND ( 'NONE', #348, .T. ) ;
#666 = DIRECTION ( 'NONE',  ( -1.000000000000000000, 0.000000000000000000, -0.000000000000000000 ) ) ;
#667 = ORIENTED_EDGE ( 'NONE', *, *, #965, .F. ) ;
#668 = CARTESIAN_POINT ( 'NONE',  ( 8.000000000000000000, 0.6999999999999992895, 11.50000000000000000 ) ) ;
#669 = CARTESIAN_POINT ( 'NONE',  ( 63.87500000000000000, -30.69597054535374880, 0.000000000000000000 ) ) ;
#670 = VERTEX_POINT ( 'NONE', #855 ) ;
#671 = LINE ( 'NONE', #1137, #983 ) ;
#672 = DIRECTION ( 'NONE',  ( -0.000000000000000000, 1.000000000000000000, -0.000000000000000000 ) ) ;
#673 = EDGE_CURVE ( 'NONE', #707, #942, #44, .T. ) ;
#674 = ORIENTED_EDGE ( 'NONE', *, *, #483, .T. ) ;
#675 = EDGE_CURVE ( 'NONE', #92, #670, #1033, .T. ) ;
#676 = VECTOR ( 'NONE', #67, 1000.000000000000000 ) ;
#677 = DIRECTION ( 'NONE',  ( -0.000000000000000000, -1.000000000000000000, -0.000000000000000000 ) ) ;
#678 = APPLICATION_CONTEXT ( 'configuration controlled 3d designs of mechanical parts and assemblies' ) ;
#679 = CARTESIAN_POINT ( 'NONE',  ( 60.00000000000000711, -4.999999999999999112, 0.000000000000000000 ) ) ;
#680 = CALENDAR_DATE ( 2026, 3, 9 ) ;
#681 = AXIS2_PLACEMENT_3D ( 'NONE', #918, #932, #380 ) ;
#682 = CARTESIAN_POINT ( 'NONE',  ( 0.000000000000000000, 0.000000000000000000, 6.000000000000000000 ) ) ;
#683 = ORIENTED_EDGE ( 'NONE', *, *, #274, .F. ) ;
#684 = DIRECTION ( 'NONE',  ( -1.000000000000000000, 4.625929269271485914E-16, 0.000000000000000000 ) ) ;
#685 = CARTESIAN_POINT ( 'NONE',  ( 137.0000000000000000, 7.299999999999999822, 14.00000000000000000 ) ) ;
#686 = CARTESIAN_POINT ( 'NONE',  ( 5.500000000000000888, 7.300000000000000711, 11.50000000000000000 ) ) ;
#687 = DIRECTION ( 'NONE',  ( 0.000000000000000000, 0.000000000000000000, -1.000000000000000000 ) ) ;
#688 = CARTESIAN_POINT ( 'NONE',  ( 3.000000000000000000, 0.000000000000000000, 6.000000000000000000 ) ) ;
#689 = PERSON_AND_ORGANIZATION_ROLE ( 'classification_officer' ) ;
#690 = VERTEX_POINT ( 'NONE', #46 ) ;
#691 = LOCAL_TIME ( 20, 53, 16.00000000000000000, #142 ) ;
#692 = DIRECTION ( 'NONE',  ( 0.3479852726768650761, 0.9375000000000042188, 0.000000000000000000 ) ) ;
#693 = VECTOR ( 'NONE', #404, 1000.000000000000000 ) ;
#694 = DIRECTION ( 'NONE',  ( 0.000000000000000000, 0.000000000000000000, 1.000000000000000000 ) ) ;
#695 = PERSON_AND_ORGANIZATION ( #191, #268 ) ;
#696 = ORIENTED_EDGE ( 'NONE', *, *, #1114, .T. ) ;
#697 = FACE_OUTER_BOUND ( 'NONE', #883, .T. ) ;
#698 = LINE ( 'NONE', #157, #520 ) ;
#699 = LINE ( 'NONE', #732, #1058 ) ;
#700 = EDGE_CURVE ( 'NONE', #527, #355, #319, .T. ) ;
#701 = COORDINATED_UNIVERSAL_TIME_OFFSET ( 2, 0, .AHEAD. ) ;
#702 = EDGE_CURVE ( 'NONE', #977, #652, #11, .T. ) ;
#703 = AXIS2_PLACEMENT_3D ( 'NONE', #534, #1088, #1057 ) ;
#704 = ORIENTED_EDGE ( 'NONE', *, *, #625, .F. ) ;
#705 = ORIENTED_EDGE ( 'NONE', *, *, #700, .T. ) ;
#706 = LINE ( 'NONE', #1064, #619 ) ;
#707 = VERTEX_POINT ( 'NONE', #863 ) ;
#708 = AXIS2_PLACEMENT_3D ( 'NONE', #149, #957, #510 ) ;
#709 = DIRECTION ( 'NONE',  ( 0.000000000000000000, 0.000000000000000000, 1.000000000000000000 ) ) ;
#710 = MANIFOLD_SOLID_BREP ( 'Mirror1', #244 ) ;
#711 = VERTEX_POINT ( 'NONE', #1036 ) ;
#712 = LOCAL_TIME ( 20, 53, 16.00000000000000000, #701 ) ;
#713 = CARTESIAN_POINT ( 'NONE',  ( 134.5000000000000000, -32.00100000000000477, 11.50000000000000000 ) ) ;
#714 = ADVANCED_FACE ( 'NONE', ( #772 ), #133, .F. ) ;
#715 = ORIENTED_EDGE ( 'NONE', *, *, #500, .F. ) ;
#716 = EDGE_CURVE ( 'NONE', #1071, #895, #365, .T. ) ;
#717 = DIRECTION ( 'NONE',  ( -1.000000000000000000, 0.000000000000000000, 0.000000000000000000 ) ) ;
#718 = EDGE_CURVE ( 'NONE', #284, #367, #958, .T. ) ;
#719 = DIRECTION ( 'NONE',  ( -0.000000000000000000, -0.000000000000000000, -1.000000000000000000 ) ) ;
#720 = AXIS2_PLACEMENT_3D ( 'NONE', #364, #1082, #1167 ) ;
#721 = EDGE_LOOP ( 'NONE', ( #612, #287, #144, #559 ) ) ;
#722 = CARTESIAN_POINT ( 'NONE',  ( 55.00000000000000711, 0.000000000000000000, 6.000000000000000000 ) ) ;
#723 = CARTESIAN_POINT ( 'NONE',  ( 60.00000000000000711, 3.061616997868385015E-15, 6.000000000000000000 ) ) ;
#724 = DIRECTION ( 'NONE',  ( -0.000000000000000000, -1.000000000000000000, -0.000000000000000000 ) ) ;
#725 = ORIENTED_EDGE ( 'NONE', *, *, #625, .T. ) ;
#726 = LINE ( 'NONE', #98, #353 ) ;
#727 = DIRECTION ( 'NONE',  ( 0.000000000000000000, 0.000000000000000000, -1.000000000000000000 ) ) ;
#728 = ORIENTED_EDGE ( 'NONE', *, *, #167, .T. ) ;
#729 = CARTESIAN_POINT ( 'NONE',  ( 134.5000000000000000, 7.300000000000000711, 10.49999999999999822 ) ) ;
#730 = VECTOR ( 'NONE', #950, 1000.000000000000000 ) ;
#731 = VERTEX_POINT ( 'NONE', #944 ) ;
#732 = CARTESIAN_POINT ( 'NONE',  ( 5.500000000000000000, 0.000000000000000000, 14.00000000000000000 ) ) ;
#733 = ORIENTED_EDGE ( 'NONE', *, *, #53, .F. ) ;
#734 = CARTESIAN_POINT ( 'NONE',  ( 3.000000000000000000, 0.000000000000000000, 6.000000000000000000 ) ) ;
#735 = CARTESIAN_POINT ( 'NONE',  ( 134.5000000000000000, 0.6999999999999992895, 11.50000000000000000 ) ) ;
#736 = AXIS2_PLACEMENT_3D ( 'NONE', #629, #991, #166 ) ;
#737 = ORIENTED_EDGE ( 'NONE', *, *, #478, .T. ) ;
#738 = FACE_OUTER_BOUND ( 'NONE', #1000, .T. ) ;
#739 = VECTOR ( 'NONE', #325, 1000.000000000000227 ) ;
#740 = ORIENTED_EDGE ( 'NONE', *, *, #1165, .F. ) ;
#741 = FACE_OUTER_BOUND ( 'NONE', #788, .T. ) ;
#742 = ORIENTED_EDGE ( 'NONE', *, *, #768, .T. ) ;
#743 = CARTESIAN_POINT ( 'NONE',  ( 140.0000000000000000, 8.000000000000000000, 3.000000000000000000 ) ) ;
#744 = ORIENTED_EDGE ( 'NONE', *, *, #716, .T. ) ;
#745 = VECTOR ( 'NONE', #899, 1000.000000000000000 ) ;
#746 = CYLINDRICAL_SURFACE ( 'NONE', #101, 5.000000000000004441 ) ;
#747 = VECTOR ( 'NONE', #252, 1000.000000000000000 ) ;
#748 = APPROVAL_PERSON_ORGANIZATION ( #313, #845, #248 ) ;
#749 = LINE ( 'NONE', #118, #911 ) ;
#750 = EDGE_CURVE ( 'NONE', #367, #731, #329, .T. ) ;
#751 = FACE_OUTER_BOUND ( 'NONE', #419, .T. ) ;
#752 = VERTEX_POINT ( 'NONE', #597 ) ;
#753 = EDGE_CURVE ( 'NONE', #127, #986, #186, .T. ) ;
#754 = DIRECTION ( 'NONE',  ( 0.000000000000000000, 0.000000000000000000, 1.000000000000000000 ) ) ;
#755 = CIRCLE ( 'NONE', #333, 1.000000000000000888 ) ;
#756 = DIRECTION ( 'NONE',  ( 1.000000000000000000, -1.734723475976807094E-16, 0.000000000000000000 ) ) ;
#757 = CARTESIAN_POINT ( 'NONE',  ( 137.0000000000000000, 0.6999999999999992895, 14.00000000000000000 ) ) ;
#758 = ORIENTED_EDGE ( 'NONE', *, *, #202, .F. ) ;
#759 = AXIS2_PLACEMENT_3D ( 'NONE', #906, #453, #177 ) ;
#760 = FACE_OUTER_BOUND ( 'NONE', #208, .T. ) ;
#761 = DATE_AND_TIME ( #206, #193 ) ;
#762 = DIRECTION ( 'NONE',  ( 0.000000000000000000, 1.000000000000000000, 0.000000000000000000 ) ) ;
#763 = ORIENTED_EDGE ( 'NONE', *, *, #1131, .T. ) ;
#764 = CARTESIAN_POINT ( 'NONE',  ( 80.00000000000001421, 3.061616997868385015E-15, 0.000000000000000000 ) ) ;
#765 = CARTESIAN_POINT ( 'NONE',  ( 8.000000000000000000, 0.6999999999999992895, 6.000000000000000000 ) ) ;
#766 = LINE ( 'NONE', #1122, #476 ) ;
#767 = EDGE_CURVE ( 'NONE', #458, #752, #1156, .T. ) ;
#768 = EDGE_CURVE ( 'NONE', #26, #184, #63, .T. ) ;
#769 = CIRCLE ( 'NONE', #1161, 3.000000000000000000 ) ;
#770 = PLANE ( 'NONE',  #992 ) ;
#771 = ORIENTED_EDGE ( 'NONE', *, *, #377, .F. ) ;
#772 = FACE_OUTER_BOUND ( 'NONE', #1090, .T. ) ;
#773 = CARTESIAN_POINT ( 'NONE',  ( 134.5000000000000000, 0.6999999999999992895, 11.50000000000000000 ) ) ;
#774 = DIRECTION ( 'NONE',  ( -1.000000000000000000, -0.000000000000000000, -0.000000000000000000 ) ) ;
#775 = COORDINATED_UNIVERSAL_TIME_OFFSET ( 2, 0, .AHEAD. ) ;
#776 = CC_DESIGN_PERSON_AND_ORGANIZATION_ASSIGNMENT ( #795, #689, ( #1010 ) ) ;
#777 = VERTEX_POINT ( 'NONE', #1149 ) ;
#778 = VECTOR ( 'NONE', #162, 1000.000000000000000 ) ;
#779 = DIRECTION ( 'NONE',  ( 2.312964634635742957E-16, -1.000000000000000000, 0.000000000000000000 ) ) ;
#780 = DIRECTION ( 'NONE',  ( -1.000000000000000000, 0.000000000000000000, 0.000000000000000000 ) ) ;
#781 = AXIS2_PLACEMENT_3D ( 'NONE', #457, #180, #538 ) ;
#782 = SECURITY_CLASSIFICATION_LEVEL ( 'unclassified' ) ;
#783 = VECTOR ( 'NONE', #366, 1000.000000000000000 ) ;
#784 = LINE ( 'NONE', #948, #178 ) ;
#785 = ORIENTED_EDGE ( 'NONE', *, *, #86, .F. ) ;
#786 = DIRECTION ( 'NONE',  ( 0.000000000000000000, -0.000000000000000000, 1.000000000000000000 ) ) ;
#787 = DIRECTION ( 'NONE',  ( 0.000000000000000000, 0.000000000000000000, 1.000000000000000000 ) ) ;
#788 = EDGE_LOOP ( 'NONE', ( #456, #871, #861, #502 ) ) ;
#789 = EDGE_CURVE ( 'NONE', #97, #800, #1054, .T. ) ;
#790 = CARTESIAN_POINT ( 'NONE',  ( 3.000000000000000000, 0.6999999999999992895, 6.000000000000000000 ) ) ;
#791 = LINE ( 'NONE', #320, #739 ) ;
#792 = AXIS2_PLACEMENT_3D ( 'NONE', #1006, #473, #1106 ) ;
#793 = ADVANCED_FACE ( 'NONE', ( #1047 ), #73, .F. ) ;
#794 = DIRECTION ( 'NONE',  ( -0.000000000000000000, -0.000000000000000000, -1.000000000000000000 ) ) ;
#795 = PERSON_AND_ORGANIZATION ( #191, #268 ) ;
#796 = ORIENTED_EDGE ( 'NONE', *, *, #550, .F. ) ;
#797 = VERTEX_POINT ( 'NONE', #602 ) ;
#798 = DIRECTION ( 'NONE',  ( -0.000000000000000000, 0.000000000000000000, -1.000000000000000000 ) ) ;
#799 = AXIS2_PLACEMENT_3D ( 'NONE', #100, #617, #95 ) ;
#800 = VERTEX_POINT ( 'NONE', #241 ) ;
#801 = CARTESIAN_POINT ( 'NONE',  ( 134.5000000000000000, 0.6999999999999992895, 12.50000000000000000 ) ) ;
#802 = ORIENTED_EDGE ( 'NONE', *, *, #327, .F. ) ;
#803 = CYLINDRICAL_SURFACE ( 'NONE', #603, 1.999999999999994893 ) ;
#804 = EDGE_CURVE ( 'NONE', #517, #690, #51, .T. ) ;
#805 = ADVANCED_FACE ( 'NONE', ( #515 ), #158, .T. ) ;
#806 = ORIENTED_EDGE ( 'NONE', *, *, #838, .T. ) ;
#807 = DIRECTION ( 'NONE',  ( -0.000000000000000000, -1.000000000000000000, -0.000000000000000000 ) ) ;
#808 = ORIENTED_EDGE ( 'NONE', *, *, #885, .T. ) ;
#809 =( GEOMETRIC_REPRESENTATION_CONTEXT ( 3 ) GLOBAL_UNCERTAINTY_ASSIGNED_CONTEXT ( ( #662 ) ) GLOBAL_UNIT_ASSIGNED_CONTEXT ( ( #574, #946, #882 ) ) REPRESENTATION_CONTEXT ( 'NONE', 'WORKASPACE' ) );
#810 = LINE ( 'NONE', #999, #469 ) ;
#811 = VERTEX_POINT ( 'NONE', #1128 ) ;
#812 = DIRECTION ( 'NONE',  ( 0.000000000000000000, 0.000000000000000000, 1.000000000000000000 ) ) ;
#813 = CARTESIAN_POINT ( 'NONE',  ( 5.500000000000000888, 0.6999999999999992895, 11.50000000000000000 ) ) ;
#814 = VECTOR ( 'NONE', #84, 1000.000000000000000 ) ;
#815 = EDGE_LOOP ( 'NONE', ( #396, #102, #16, #1012 ) ) ;
#816 = CARTESIAN_POINT ( 'NONE',  ( 73.75000000000000000, -24.29753166064965342, 0.000000000000000000 ) ) ;
#817 = LINE ( 'NONE', #431, #23 ) ;
#818 = EDGE_CURVE ( 'NONE', #1097, #711, #706, .T. ) ;
#819 = LINE ( 'NONE', #734, #411 ) ;
#820 = ORIENTED_EDGE ( 'NONE', *, *, #377, .T. ) ;
#821 = CARTESIAN_POINT ( 'NONE',  ( 137.0000000000000000, 0.000000000000000000, 3.000000000000000000 ) ) ;
#822 = CARTESIAN_POINT ( 'NONE',  ( 140.0000000000000000, 0.000000000000000000, 3.000000000000000000 ) ) ;
#823 = EDGE_CURVE ( 'NONE', #895, #21, #312, .T. ) ;
#824 = ORIENTED_EDGE ( 'NONE', *, *, #622, .F. ) ;
#825 = CARTESIAN_POINT ( 'NONE',  ( 0.000000000000000000, 8.000000000000000000, 3.000000000000000000 ) ) ;
#826 = FACE_OUTER_BOUND ( 'NONE', #212, .T. ) ;
#827 = PLANE ( 'NONE',  #210 ) ;
#828 = ORIENTED_EDGE ( 'NONE', *, *, #1133, .F. ) ;
#829 = DIRECTION ( 'NONE',  ( -0.000000000000000000, -0.000000000000000000, -1.000000000000000000 ) ) ;
#830 = ORIENTED_EDGE ( 'NONE', *, *, #259, .F. ) ;
#831 = VECTOR ( 'NONE', #719, 1000.000000000000000 ) ;
#832 = CARTESIAN_POINT ( 'NONE',  ( 3.000000000000000000, 7.299999999999999822, 6.000000000000000000 ) ) ;
#833 = EDGE_LOOP ( 'NONE', ( #1024, #1074 ) ) ;
#834 = FACE_OUTER_BOUND ( 'NONE', #485, .T. ) ;
#835 = AXIS2_PLACEMENT_3D ( 'NONE', #889, #258, #621 ) ;
#836 = EDGE_CURVE ( 'NONE', #323, #97, #408, .T. ) ;
#837 = ORIENTED_EDGE ( 'NONE', *, *, #1165, .T. ) ;
#838 = EDGE_CURVE ( 'NONE', #670, #447, #497, .T. ) ;
#839 = CARTESIAN_POINT ( 'NONE',  ( 0.000000000000000000, 0.000000000000000000, 0.000000000000000000 ) ) ;
#840 = ORIENTED_EDGE ( 'NONE', *, *, #1022, .F. ) ;
#841 = CYLINDRICAL_SURFACE ( 'NONE', #849, 2.500000000000000444 ) ;
#842 = CC_DESIGN_APPROVAL ( #631, ( #1010 ) ) ;
#843 = CIRCLE ( 'NONE', #531, 1.000000000000000888 ) ;
#844 = EDGE_LOOP ( 'NONE', ( #866, #28 ) ) ;
#845 = APPROVAL ( #1144, 'UNSPECIFIED' ) ;
#846 = CARTESIAN_POINT ( 'NONE',  ( 5.500000000000000000, 7.299999999999999822, 11.50000000000000000 ) ) ;
#847 = EDGE_LOOP ( 'NONE', ( #1002, #890, #742, #216 ) ) ;
#848 = DIRECTION ( 'NONE',  ( 0.000000000000000000, -1.000000000000000000, 0.000000000000000000 ) ) ;
#849 = AXIS2_PLACEMENT_3D ( 'NONE', #735, #279, #645 ) ;
#850 = DIRECTION ( 'NONE',  ( 1.734723475976807094E-16, 1.000000000000000000, -0.000000000000000000 ) ) ;
#851 = EDGE_LOOP ( 'NONE', ( #979, #796, #758, #172 ) ) ;
#852 = VECTOR ( 'NONE', #57, 1000.000000000000000 ) ;
#853 = DIRECTION ( 'NONE',  ( -0.000000000000000000, -1.000000000000000000, -0.000000000000000000 ) ) ;
#854 = DIRECTION ( 'NONE',  ( 0.000000000000000000, 0.000000000000000000, -1.000000000000000000 ) ) ;
#855 = CARTESIAN_POINT ( 'NONE',  ( 137.0000000000000000, 0.6999999999999992895, 6.000000000000000000 ) ) ;
#856 = ORIENTED_EDGE ( 'NONE', *, *, #718, .T. ) ;
#857 = CARTESIAN_POINT ( 'NONE',  ( 137.0000000000000000, 0.6999999999999992895, 14.00000000000000000 ) ) ;
#858 = DIRECTION ( 'NONE',  ( 0.000000000000000000, 0.000000000000000000, -1.000000000000000000 ) ) ;
#859 = CIRCLE ( 'NONE', #590, 2.500000000000000444 ) ;
#860 = DIRECTION ( 'NONE',  ( 0.000000000000000000, 0.000000000000000000, 1.000000000000000000 ) ) ;
#861 = ORIENTED_EDGE ( 'NONE', *, *, #567, .T. ) ;
#862 = CARTESIAN_POINT ( 'NONE',  ( 80.00000000000001421, 3.061616997868385015E-15, 6.000000000000000000 ) ) ;
#863 = CARTESIAN_POINT ( 'NONE',  ( 134.5000000000000000, 0.6999999999999992895, 10.49999999999999822 ) ) ;
#864 = DIRECTION ( 'NONE',  ( -1.734723475976807094E-16, 1.000000000000000000, 0.000000000000000000 ) ) ;
#865 = DIRECTION ( 'NONE',  ( -0.000000000000000000, 1.000000000000000000, -0.000000000000000000 ) ) ;
#866 = ORIENTED_EDGE ( 'NONE', *, *, #903, .F. ) ;
#867 = CARTESIAN_POINT ( 'NONE',  ( 134.5000000000000000, 7.299999999999998934, 11.50000000000000000 ) ) ;
#868 = CARTESIAN_POINT ( 'NONE',  ( 0.000000000000000000, 0.000000000000000000, 6.000000000000000000 ) ) ;
#869 = VECTOR ( 'NONE', #608, 1000.000000000000000 ) ;
#870 = EDGE_CURVE ( 'NONE', #293, #316, #350, .T. ) ;
#871 = ORIENTED_EDGE ( 'NONE', *, *, #343, .T. ) ;
#872 = ADVANCED_FACE ( 'NONE', ( #524 ), #266, .F. ) ;
#873 = LINE ( 'NONE', #790, #747 ) ;
#874 = DIRECTION ( 'NONE',  ( -0.000000000000000000, -0.000000000000000000, -1.000000000000000000 ) ) ;
#875 = DIRECTION ( 'NONE',  ( -0.000000000000000000, 1.000000000000000000, -0.000000000000000000 ) ) ;
#876 = AXIS2_PLACEMENT_3D ( 'NONE', #187, #388, #756 ) ;
#877 = CARTESIAN_POINT ( 'NONE',  ( 80.00000000000001421, -4.999999999999997335, 6.000000000000000000 ) ) ;
#878 = VERTEX_POINT ( 'NONE', #5 ) ;
#879 = CC_DESIGN_DATE_AND_TIME_ASSIGNMENT ( #1048, #598, ( #1010 ) ) ;
#880 = LINE ( 'NONE', #246, #676 ) ;
#881 = AXIS2_PLACEMENT_3D ( 'NONE', #224, #1030, #1044 ) ;
#882 =( NAMED_UNIT ( * ) SI_UNIT ( $, .STERADIAN. ) SOLID_ANGLE_UNIT ( ) );
#883 = EDGE_LOOP ( 'NONE', ( #856, #61, #71, #737 ) ) ;
#884 = LINE ( 'NONE', #354, #450 ) ;
#885 = EDGE_CURVE ( 'NONE', #895, #127, #361, .T. ) ;
#886 = CIRCLE ( 'NONE', #466, 2.500000000000002220 ) ;
#887 = VECTOR ( 'NONE', #389, 1000.000000000000000 ) ;
#888 = ORIENTED_EDGE ( 'NONE', *, *, #202, .T. ) ;
#889 = CARTESIAN_POINT ( 'NONE',  ( 3.000000000000000000, 8.000000000000000000, 3.000000000000000000 ) ) ;
#890 = ORIENTED_EDGE ( 'NONE', *, *, #87, .T. ) ;
#891 = CARTESIAN_POINT ( 'NONE',  ( 85.00000000000001421, 0.000000000000000000, 0.000000000000000000 ) ) ;
#892 = EDGE_LOOP ( 'NONE', ( #269, #605, #260, #338 ) ) ;
#893 = DIRECTION ( 'NONE',  ( -0.000000000000000000, -1.000000000000000000, -0.000000000000000000 ) ) ;
#894 = DIRECTION ( 'NONE',  ( 4.625929269271485914E-16, 1.000000000000000000, -0.000000000000000000 ) ) ;
#895 = VERTEX_POINT ( 'NONE', #255 ) ;
#896 = LOCAL_TIME ( 20, 53, 16.00000000000000000, #971 ) ;
#897 = DIRECTION ( 'NONE',  ( -0.000000000000000000, 1.000000000000000000, 0.000000000000000000 ) ) ;
#898 = VERTEX_POINT ( 'NONE', #451 ) ;
#899 = DIRECTION ( 'NONE',  ( 1.000000000000000000, 0.000000000000000000, 0.000000000000000000 ) ) ;
#900 = AXIS2_PLACEMENT_3D ( 'NONE', #686, #42, #787 ) ;
#901 = LINE ( 'NONE', #1083, #317 ) ;
#902 = CARTESIAN_POINT ( 'NONE',  ( 137.0000000000000000, 0.6999999999999992895, 6.000000000000000000 ) ) ;
#903 = EDGE_CURVE ( 'NONE', #458, #707, #984, .T. ) ;
#904 = AXIS2_PLACEMENT_3D ( 'NONE', #821, #893, #8 ) ;
#905 = ORIENTED_EDGE ( 'NONE', *, *, #604, .F. ) ;
#906 = CARTESIAN_POINT ( 'NONE',  ( 5.500000000000000888, 7.300000000000000711, 11.50000000000000000 ) ) ;
#907 = CARTESIAN_POINT ( 'NONE',  ( 80.00000000000000000, -29.99999999999999645, 6.000000000000000000 ) ) ;
#908 = EDGE_CURVE ( 'NONE', #447, #400, #884, .T. ) ;
#909 = ORIENTED_EDGE ( 'NONE', *, *, #1060, .T. ) ;
#910 = DIRECTION ( 'NONE',  ( 0.000000000000000000, 0.000000000000000000, 1.000000000000000000 ) ) ;
#911 = VECTOR ( 'NONE', #640, 1000.000000000000000 ) ;
#912 = VERTEX_POINT ( 'NONE', #445 ) ;
#913 = DIRECTION ( 'NONE',  ( -1.000000000000000000, 1.734723475976807094E-16, -0.000000000000000000 ) ) ;
#914 = VERTEX_POINT ( 'NONE', #90 ) ;
#915 = AXIS2_PLACEMENT_3D ( 'NONE', #309, #786, #139 ) ;
#916 = CARTESIAN_POINT ( 'NONE',  ( 3.000000000000000000, 0.6999999999999992895, 6.000000000000000000 ) ) ;
#917 = ORIENTED_EDGE ( 'NONE', *, *, #1133, .T. ) ;
#918 = CARTESIAN_POINT ( 'NONE',  ( 5.500000000000000000, 7.299999999999999822, 11.50000000000000000 ) ) ;
#919 = EDGE_CURVE ( 'NONE', #878, #777, #438, .T. ) ;
#920 = DIRECTION ( 'NONE',  ( -0.000000000000000000, 1.000000000000000000, -0.000000000000000000 ) ) ;
#921 = EDGE_CURVE ( 'NONE', #400, #355, #810, .T. ) ;
#922 = ADVANCED_FACE ( 'NONE', ( #1164 ), #989, .T. ) ;
#923 = VECTOR ( 'NONE', #420, 1000.000000000000000 ) ;
#924 = ORIENTED_EDGE ( 'NONE', *, *, #1117, .T. ) ;
#925 = AXIS2_PLACEMENT_3D ( 'NONE', #713, #638, #910 ) ;
#926 = CARTESIAN_POINT ( 'NONE',  ( 137.0000000000000000, 8.000000000000000000, 3.000000000000000000 ) ) ;
#927 = ORIENTED_EDGE ( 'NONE', *, *, #604, .T. ) ;
#928 = FACE_OUTER_BOUND ( 'NONE', #933, .T. ) ;
#929 = AXIS2_PLACEMENT_3D ( 'NONE', #846, #850, #467 ) ;
#930 = ADVANCED_BREP_SHAPE_REPRESENTATION ( 'Rama transversala V1 de la Raul', ( #710, #1065 ), #809 ) ;
#931 = VERTEX_POINT ( 'NONE', #825 ) ;
#932 = DIRECTION ( 'NONE',  ( 1.734723475976807094E-16, 1.000000000000000000, -0.000000000000000000 ) ) ;
#933 = EDGE_LOOP ( 'NONE', ( #667, #1108, #802, #824, #199, #475 ) ) ;
#934 = CARTESIAN_POINT ( 'NONE',  ( 63.87500000000000000, -30.69597054535374880, 6.000000000000000000 ) ) ;
#935 = DIRECTION ( 'NONE',  ( -0.000000000000000000, -1.000000000000000000, -0.000000000000000000 ) ) ;
#936 = CIRCLE ( 'NONE', #70, 5.000000000000004441 ) ;
#937 = LINE ( 'NONE', #477, #523 ) ;
#938 = EDGE_CURVE ( 'NONE', #76, #517, #543, .T. ) ;
#939 = VERTEX_POINT ( 'NONE', #993 ) ;
#940 = DIRECTION ( 'NONE',  ( 1.000000000000000000, 0.000000000000000000, 0.000000000000000000 ) ) ;
#941 = DIRECTION ( 'NONE',  ( -1.000000000000000000, 0.000000000000000000, 0.000000000000000000 ) ) ;
#942 = VERTEX_POINT ( 'NONE', #729 ) ;
#943 = AXIS2_PLACEMENT_3D ( 'NONE', #228, #402, #798 ) ;
#944 = CARTESIAN_POINT ( 'NONE',  ( 80.00000000000001421, -4.999999999999997335, 6.000000000000000000 ) ) ;
#945 = DIRECTION ( 'NONE',  ( 0.000000000000000000, 0.000000000000000000, 1.000000000000000000 ) ) ;
#946 =( NAMED_UNIT ( * ) PLANE_ANGLE_UNIT ( ) SI_UNIT ( $, .RADIAN. ) );
#947 = VECTOR ( 'NONE', #1119, 1000.000000000000000 ) ;
#948 = CARTESIAN_POINT ( 'NONE',  ( 0.000000000000000000, 8.000000000000000000, 0.000000000000000000 ) ) ;
#949 = ORIENTED_EDGE ( 'NONE', *, *, #344, .T. ) ;
#950 = DIRECTION ( 'NONE',  ( -0.000000000000000000, -0.000000000000000000, -1.000000000000000000 ) ) ;
#951 = DIRECTION ( 'NONE',  ( 0.000000000000000000, 0.000000000000000000, -1.000000000000000000 ) ) ;
#952 = LINE ( 'NONE', #422, #384 ) ;
#953 = PERSON_AND_ORGANIZATION_ROLE ( 'creator' ) ;
#954 = APPROVAL_PERSON_ORGANIZATION ( #1059, #631, #242 ) ;
#955 = DIRECTION ( 'NONE',  ( 0.000000000000000000, 1.000000000000000000, 0.000000000000000000 ) ) ;
#956 = ORIENTED_EDGE ( 'NONE', *, *, #587, .F. ) ;
#957 = DIRECTION ( 'NONE',  ( 0.000000000000000000, 0.000000000000000000, -1.000000000000000000 ) ) ;
#958 = LINE ( 'NONE', #764, #1155 ) ;
#959 = CYLINDRICAL_SURFACE ( 'NONE', #1035, 2.500000000000000444 ) ;
#960 = DIRECTION ( 'NONE',  ( -0.000000000000000000, -0.000000000000000000, -1.000000000000000000 ) ) ;
#961 = EDGE_CURVE ( 'NONE', #92, #912, #1134, .T. ) ;
#962 = CARTESIAN_POINT ( 'NONE',  ( 134.5000000000000000, -32.00100000000000477, 12.50000000000000000 ) ) ;
#963 = AXIS2_PLACEMENT_3D ( 'NONE', #209, #190, #116 ) ;
#964 = DATE_AND_TIME ( #1151, #691 ) ;
#965 = EDGE_CURVE ( 'NONE', #711, #643, #819, .T. ) ;
#966 = ORIENTED_EDGE ( 'NONE', *, *, #919, .T. ) ;
#967 = CYLINDRICAL_SURFACE ( 'NONE', #915, 4.999999999999997335 ) ;
#968 = CARTESIAN_POINT ( 'NONE',  ( 66.25000000000001421, -24.29753166064966052, 6.000000000000000000 ) ) ;
#969 = LINE ( 'NONE', #302, #328 ) ;
#970 = AXIS2_PLACEMENT_3D ( 'NONE', #519, #897, #175 ) ;
#971 = COORDINATED_UNIVERSAL_TIME_OFFSET ( 2, 0, .AHEAD. ) ;
#972 = EDGE_LOOP ( 'NONE', ( #840, #763, #440, #112, #998, #927, #1101, #988, #257, #222, #275, #45, #7, #54 ) ) ;
#973 = LINE ( 'NONE', #306, #618 ) ;
#974 = DIRECTION ( 'NONE',  ( 1.000000000000000000, 0.000000000000000000, 0.000000000000000000 ) ) ;
#975 = VERTEX_POINT ( 'NONE', #1085 ) ;
#976 = ADVANCED_FACE ( 'NONE', ( #185 ), #273, .F. ) ;
#977 = VERTEX_POINT ( 'NONE', #164 ) ;
#978 = CARTESIAN_POINT ( 'NONE',  ( 8.000000000000000000, 7.299999999999998934, 14.00000000000000000 ) ) ;
#979 = ORIENTED_EDGE ( 'NONE', *, *, #253, .T. ) ;
#980 = PLANE ( 'NONE',  #114 ) ;
#981 = ADVANCED_FACE ( 'NONE', ( #368 ), #803, .T. ) ;
#982 = ORIENTED_EDGE ( 'NONE', *, *, #823, .T. ) ;
#983 = VECTOR ( 'NONE', #68, 1000.000000000000000 ) ;
#984 = CIRCLE ( 'NONE', #799, 1.000000000000000888 ) ;
#985 = AXIS2_PLACEMENT_3D ( 'NONE', #183, #812, #541 ) ;
#986 = VERTEX_POINT ( 'NONE', #934 ) ;
#987 = CARTESIAN_POINT ( 'NONE',  ( 3.000000000000000000, 0.000000000000000000, 0.000000000000000000 ) ) ;
#988 = ORIENTED_EDGE ( 'NONE', *, *, #1080, .F. ) ;
#989 = CYLINDRICAL_SURFACE ( 'NONE', #970, 3.000000000000000000 ) ;
#990 = ORIENTED_EDGE ( 'NONE', *, *, #291, .F. ) ;
#991 = DIRECTION ( 'NONE',  ( -0.000000000000000000, -0.000000000000000000, 1.000000000000000000 ) ) ;
#992 = AXIS2_PLACEMENT_3D ( 'NONE', #682, #955, #1041 ) ;
#993 = CARTESIAN_POINT ( 'NONE',  ( 73.75000000000000000, -24.29753166064965342, 6.000000000000000000 ) ) ;
#994 = ADVANCED_FACE ( 'NONE', ( #36 ), #391, .F. ) ;
#995 = EDGE_CURVE ( 'NONE', #707, #458, #660, .T. ) ;
#996 = ORIENTED_EDGE ( 'NONE', *, *, #446, .T. ) ;
#997 = CARTESIAN_POINT ( 'NONE',  ( 134.5000000000000000, 0.6999999999999992895, 11.50000000000000000 ) ) ;
#998 = ORIENTED_EDGE ( 'NONE', *, *, #1005, .F. ) ;
#999 = CARTESIAN_POINT ( 'NONE',  ( 137.0000000000000000, 7.299999999999999822, 6.000000000000000000 ) ) ;
#1000 = EDGE_LOOP ( 'NONE', ( #378, #10, #489, #576, #634 ) ) ;
#1001 = DIRECTION ( 'NONE',  ( 0.000000000000000000, -1.000000000000000000, 0.000000000000000000 ) ) ;
#1002 = ORIENTED_EDGE ( 'NONE', *, *, #870, .F. ) ;
#1003 = CARTESIAN_POINT ( 'NONE',  ( 134.5000000000000000, 7.300000000000000711, 11.50000000000000000 ) ) ;
#1004 = EDGE_LOOP ( 'NONE', ( #381, #192, #468, #1141 ) ) ;
#1005 = EDGE_CURVE ( 'NONE', #777, #492, #356, .T. ) ;
#1006 = CARTESIAN_POINT ( 'NONE',  ( 5.500000000000000888, -32.00100000000000477, 11.50000000000000000 ) ) ;
#1007 = ORIENTED_EDGE ( 'NONE', *, *, #170, .F. ) ;
#1008 = EDGE_CURVE ( 'NONE', #939, #1014, #726, .T. ) ;
#1009 = EDGE_CURVE ( 'NONE', #332, #323, #148, .T. ) ;
#1010 = SECURITY_CLASSIFICATION ( '', '', #782 ) ;
#1011 = CARTESIAN_POINT ( 'NONE',  ( 60.00000000000001421, -29.99999999999999645, 6.000000000000000000 ) ) ;
#1012 = ORIENTED_EDGE ( 'NONE', *, *, #767, .F. ) ;
#1013 = CARTESIAN_POINT ( 'NONE',  ( 137.0000000000000000, 0.000000000000000000, 6.000000000000000000 ) ) ;
#1014 = VERTEX_POINT ( 'NONE', #816 ) ;
#1015 = DIRECTION ( 'NONE',  ( 0.000000000000000000, 0.000000000000000000, -1.000000000000000000 ) ) ;
#1016 = FACE_BOUND ( 'NONE', #525, .T. ) ;
#1017 = AXIS2_PLACEMENT_3D ( 'NONE', #406, #213, #594 ) ;
#1018 = CYLINDRICAL_SURFACE ( 'NONE', #171, 3.000000000000000000 ) ;
#1019 = ORIENTED_EDGE ( 'NONE', *, *, #259, .T. ) ;
#1020 = LINE ( 'NONE', #668, #126 ) ;
#1021 = SHAPE_DEFINITION_REPRESENTATION ( #664, #930 ) ;
#1022 = EDGE_CURVE ( 'NONE', #426, #616, #1148, .T. ) ;
#1023 = CARTESIAN_POINT ( 'NONE',  ( 76.12499999999998579, -30.69597054535373104, 6.000000000000000000 ) ) ;
#1024 = ORIENTED_EDGE ( 'NONE', *, *, #169, .F. ) ;
#1025 = CARTESIAN_POINT ( 'NONE',  ( 137.0000000000000000, 0.000000000000000000, 3.000000000000000000 ) ) ;
#1026 = EDGE_CURVE ( 'NONE', #1042, #690, #96, .T. ) ;
#1027 = VECTOR ( 'NONE', #1112, 1000.000000000000000 ) ;
#1028 = CARTESIAN_POINT ( 'NONE',  ( 134.5000000000000000, 7.299999999999999822, 14.00000000000000000 ) ) ;
#1029 = ORIENTED_EDGE ( 'NONE', *, *, #496, .F. ) ;
#1030 = DIRECTION ( 'NONE',  ( -0.000000000000000000, -1.000000000000000000, -0.000000000000000000 ) ) ;
#1031 = CARTESIAN_POINT ( 'NONE',  ( 60.00000000000001421, -29.99999999999999645, 0.000000000000000000 ) ) ;
#1032 = DIRECTION ( 'NONE',  ( 0.000000000000000000, 0.000000000000000000, 1.000000000000000000 ) ) ;
#1033 = LINE ( 'NONE', #857, #124 ) ;
#1034 = VERTEX_POINT ( 'NONE', #335 ) ;
#1035 = AXIS2_PLACEMENT_3D ( 'NONE', #334, #56, #858 ) ;
#1036 = CARTESIAN_POINT ( 'NONE',  ( 3.000000000000000000, 8.000000000000000000, 6.000000000000000000 ) ) ;
#1037 = DIRECTION ( 'NONE',  ( -0.000000000000000000, -0.000000000000000000, -1.000000000000000000 ) ) ;
#1038 = VECTOR ( 'NONE', #913, 1000.000000000000000 ) ;
#1039 = CARTESIAN_POINT ( 'NONE',  ( 62.00000000000001421, -30.00000000000000000, 6.000000000000000000 ) ) ;
#1040 = DATE_AND_TIME ( #680, #83 ) ;
#1041 = DIRECTION ( 'NONE',  ( 0.000000000000000000, -0.000000000000000000, 1.000000000000000000 ) ) ;
#1042 = VERTEX_POINT ( 'NONE', #1075 ) ;
#1043 = EDGE_CURVE ( 'NONE', #492, #977, #239, .T. ) ;
#1044 = DIRECTION ( 'NONE',  ( 0.000000000000000000, 0.000000000000000000, 1.000000000000000000 ) ) ;
#1045 = DIRECTION ( 'NONE',  ( 0.000000000000000000, -1.000000000000000000, 0.000000000000000000 ) ) ;
#1046 = EDGE_CURVE ( 'NONE', #811, #332, #699, .T. ) ;
#1047 = FACE_OUTER_BOUND ( 'NONE', #305, .T. ) ;
#1048 = DATE_AND_TIME ( #1140, #712 ) ;
#1049 = CIRCLE ( 'NONE', #736, 4.999999999999997335 ) ;
#1050 = ORIENTED_EDGE ( 'NONE', *, *, #1076, .F. ) ;
#1051 = DIRECTION ( 'NONE',  ( -1.734723475976807094E-16, 1.000000000000000000, 0.000000000000000000 ) ) ;
#1052 = CARTESIAN_POINT ( 'NONE',  ( 5.500000000000000000, 0.6999999999999992895, 11.50000000000000000 ) ) ;
#1053 = EDGE_CURVE ( 'NONE', #1093, #426, #38, .T. ) ;
#1054 = LINE ( 'NONE', #688, #280 ) ;
#1055 = ORIENTED_EDGE ( 'NONE', *, *, #514, .F. ) ;
#1056 = DIRECTION ( 'NONE',  ( 0.000000000000000000, 1.000000000000000000, 0.000000000000000000 ) ) ;
#1057 = DIRECTION ( 'NONE',  ( 0.000000000000000000, 0.000000000000000000, 1.000000000000000000 ) ) ;
#1058 = VECTOR ( 'NONE', #1001, 1000.000000000000000 ) ;
#1059 = PERSON_AND_ORGANIZATION ( #191, #268 ) ;
#1060 = EDGE_CURVE ( 'NONE', #878, #652, #352, .T. ) ;
#1061 = ORIENTED_EDGE ( 'NONE', *, *, #169, .T. ) ;
#1062 = LINE ( 'NONE', #318, #923 ) ;
#1063 = ORIENTED_EDGE ( 'NONE', *, *, #375, .F. ) ;
#1064 = CARTESIAN_POINT ( 'NONE',  ( 0.000000000000000000, 8.000000000000000000, 6.000000000000000000 ) ) ;
#1065 = AXIS2_PLACEMENT_3D ( 'NONE', #137, #330, #342 ) ;
#1066 = ORIENTED_EDGE ( 'NONE', *, *, #288, .T. ) ;
#1067 = EDGE_LOOP ( 'NONE', ( #160, #917, #1162, #154, #646 ) ) ;
#1068 = DIRECTION ( 'NONE',  ( -1.000000000000000000, 0.000000000000000000, 0.000000000000000000 ) ) ;
#1069 = ORIENTED_EDGE ( 'NONE', *, *, #461, .F. ) ;
#1070 = DIRECTION ( 'NONE',  ( 0.000000000000000000, 1.000000000000000000, 0.000000000000000000 ) ) ;
#1071 = VERTEX_POINT ( 'NONE', #722 ) ;
#1072 = DIRECTION ( 'NONE',  ( 0.000000000000000000, -0.000000000000000000, -1.000000000000000000 ) ) ;
#1073 = AXIS2_PLACEMENT_3D ( 'NONE', #997, #182, #635 ) ;
#1074 = ORIENTED_EDGE ( 'NONE', *, *, #938, .F. ) ;
#1075 = CARTESIAN_POINT ( 'NONE',  ( 5.500000000000000888, 7.300000000000000711, 10.49999999999999822 ) ) ;
#1076 = EDGE_CURVE ( 'NONE', #40, #939, #423, .T. ) ;
#1077 = ORIENTED_EDGE ( 'NONE', *, *, #529, .F. ) ;
#1078 = DIRECTION ( 'NONE',  ( 0.000000000000000000, 0.000000000000000000, 1.000000000000000000 ) ) ;
#1079 = AXIS2_PLACEMENT_3D ( 'NONE', #123, #301, #1116 ) ;
#1080 = EDGE_CURVE ( 'NONE', #479, #284, #651, .T. ) ;
#1081 = ORIENTED_EDGE ( 'NONE', *, *, #446, .F. ) ;
#1082 = DIRECTION ( 'NONE',  ( -0.000000000000000000, -1.000000000000000000, -0.000000000000000000 ) ) ;
#1083 = CARTESIAN_POINT ( 'NONE',  ( 3.000000000000000000, 7.299999999999999822, 14.00000000000000000 ) ) ;
#1084 = CIRCLE ( 'NONE', #425, 3.000000000000000000 ) ;
#1085 = CARTESIAN_POINT ( 'NONE',  ( 132.0000000000000000, 0.6999999999999992895, 11.50000000000000000 ) ) ;
#1086 = CC_DESIGN_PERSON_AND_ORGANIZATION_ASSIGNMENT ( #512, #58, ( #632 ) ) ;
#1087 = EDGE_LOOP ( 'NONE', ( #828, #106, #715, #138 ) ) ;
#1088 = DIRECTION ( 'NONE',  ( -0.000000000000000000, -1.000000000000000000, -0.000000000000000000 ) ) ;
#1089 = CARTESIAN_POINT ( 'NONE',  ( 78.00000000000000000, -30.00000000000000000, 6.000000000000000000 ) ) ;
#1090 = EDGE_LOOP ( 'NONE', ( #1154, #147, #656, #163, #966 ) ) ;
#1091 = DIRECTION ( 'NONE',  ( 0.000000000000000000, 0.000000000000000000, 1.000000000000000000 ) ) ;
#1092 = AXIS2_PLACEMENT_3D ( 'NONE', #584, #1056, #504 ) ;
#1093 = VERTEX_POINT ( 'NONE', #321 ) ;
#1094 = ADVANCED_FACE ( 'NONE', ( #1127 ), #416, .F. ) ;
#1095 = CARTESIAN_POINT ( 'NONE',  ( 132.0000000000000000, 0.6999999999999992895, 14.00000000000000000 ) ) ;
#1096 = CIRCLE ( 'NONE', #681, 2.500000000000000444 ) ;
#1097 = VERTEX_POINT ( 'NONE', #48 ) ;
#1098 = DIRECTION ( 'NONE',  ( 0.000000000000000000, -0.000000000000000000, 1.000000000000000000 ) ) ;
#1099 = ORIENTED_EDGE ( 'NONE', *, *, #804, .F. ) ;
#1100 = LINE ( 'NONE', #1028, #887 ) ;
#1101 = ORIENTED_EDGE ( 'NONE', *, *, #718, .F. ) ;
#1102 = CC_DESIGN_SECURITY_CLASSIFICATION ( #1010, ( #632 ) ) ;
#1103 = DIRECTION ( 'NONE',  ( 0.000000000000000000, 0.000000000000000000, -1.000000000000000000 ) ) ;
#1104 = PRODUCT ( 'Rama transversala V1 de la Raul', 'Rama transversala V1 de la Raul', '', ( #64 ) ) ;
#1105 = ORIENTED_EDGE ( 'NONE', *, *, #627, .T. ) ;
#1106 = DIRECTION ( 'NONE',  ( 0.000000000000000000, 0.000000000000000000, 1.000000000000000000 ) ) ;
#1107 = VECTOR ( 'NONE', #292, 1000.000000000000000 ) ;
#1108 = ORIENTED_EDGE ( 'NONE', *, *, #410, .F. ) ;
#1109 = CARTESIAN_POINT ( 'NONE',  ( 132.0000000000000000, 0.6999999999999992895, 14.00000000000000000 ) ) ;
#1110 = CARTESIAN_POINT ( 'NONE',  ( 60.00000000000000711, -4.999999999999999112, 0.000000000000000000 ) ) ;
#1111 = AXIS2_PLACEMENT_3D ( 'NONE', #813, #724, #1078 ) ;
#1112 = DIRECTION ( 'NONE',  ( -0.000000000000000000, -0.000000000000000000, -1.000000000000000000 ) ) ;
#1113 = ORIENTED_EDGE ( 'NONE', *, *, #117, .T. ) ;
#1114 = EDGE_CURVE ( 'NONE', #1097, #570, #227, .T. ) ;
#1115 = CARTESIAN_POINT ( 'NONE',  ( 70.00000000000001421, -25.68947275135711195, 6.000000000000000000 ) ) ;
#1116 = DIRECTION ( 'NONE',  ( 0.000000000000000000, 0.000000000000000000, -1.000000000000000000 ) ) ;
#1117 = EDGE_CURVE ( 'NONE', #898, #931, #769, .T. ) ;
#1118 = VECTOR ( 'NONE', #105, 1000.000000000000000 ) ;
#1119 = DIRECTION ( 'NONE',  ( -0.000000000000000000, -0.000000000000000000, -1.000000000000000000 ) ) ;
#1120 = ORIENTED_EDGE ( 'NONE', *, *, #235, .T. ) ;
#1121 = DIRECTION ( 'NONE',  ( -1.000000000000000000, 0.000000000000000000, 0.000000000000000000 ) ) ;
#1122 = CARTESIAN_POINT ( 'NONE',  ( 3.000000000000000000, 8.000000000000000000, 0.000000000000000000 ) ) ;
#1123 = CARTESIAN_POINT ( 'NONE',  ( 3.000000000000000000, 7.299999999999998934, 6.000000000000000000 ) ) ;
#1124 = EDGE_LOOP ( 'NONE', ( #1055, #513, #1063, #614 ) ) ;
#1125 = CARTESIAN_POINT ( 'NONE',  ( 5.500000000000000000, 0.6999999999999992895, 14.00000000000000000 ) ) ;
#1126 = CARTESIAN_POINT ( 'NONE',  ( 8.000000000000000000, 7.299999999999998934, 6.000000000000000000 ) ) ;
#1127 = FACE_OUTER_BOUND ( 'NONE', #432, .T. ) ;
#1128 = CARTESIAN_POINT ( 'NONE',  ( 5.500000000000000000, 7.299999999999999822, 14.00000000000000000 ) ) ;
#1129 = EDGE_CURVE ( 'NONE', #1034, #492, #952, .T. ) ;
#1130 = CARTESIAN_POINT ( 'NONE',  ( 137.0000000000000000, 0.000000000000000000, 6.000000000000000000 ) ) ;
#1131 = EDGE_CURVE ( 'NONE', #426, #898, #766, .T. ) ;
#1132 = ORIENTED_EDGE ( 'NONE', *, *, #86, .T. ) ;
#1133 = EDGE_CURVE ( 'NONE', #26, #332, #859, .T. ) ;
#1134 = CIRCLE ( 'NONE', #781, 2.500000000000000444 ) ;
#1135 = LINE ( 'NONE', #503, #778 ) ;
#1136 = DIRECTION ( 'NONE',  ( -0.000000000000000000, -0.000000000000000000, -1.000000000000000000 ) ) ;
#1137 = CARTESIAN_POINT ( 'NONE',  ( 8.000000000000000000, 0.6999999999999992895, 6.000000000000000000 ) ) ;
#1138 = CARTESIAN_POINT ( 'NONE',  ( 137.0000000000000000, 8.000000000000000000, 3.000000000000000000 ) ) ;
#1139 = VECTOR ( 'NONE', #894, 1000.000000000000000 ) ;
#1140 = CALENDAR_DATE ( 2026, 3, 9 ) ;
#1141 = ORIENTED_EDGE ( 'NONE', *, *, #344, .F. ) ;
#1142 = FACE_OUTER_BOUND ( 'NONE', #132, .T. ) ;
#1143 = DIRECTION ( 'NONE',  ( 0.000000000000000000, -1.000000000000000000, -0.000000000000000000 ) ) ;
#1144 = APPROVAL_STATUS ( 'not_yet_approved' ) ;
#1145 = CIRCLE ( 'NONE', #633, 2.000000000000001776 ) ;
#1146 = ORIENTED_EDGE ( 'NONE', *, *, #235, .F. ) ;
#1147 = CARTESIAN_POINT ( 'NONE',  ( 8.000000000000000000, 7.299999999999998934, 11.50000000000000000 ) ) ;
#1148 = LINE ( 'NONE', #270, #296 ) ;
#1149 = CARTESIAN_POINT ( 'NONE',  ( 85.00000000000001421, 0.000000000000000000, 0.000000000000000000 ) ) ;
#1150 = AXIS2_PLACEMENT_3D ( 'NONE', #494, #853, #490 ) ;
#1151 = CALENDAR_DATE ( 2026, 3, 9 ) ;
#1152 = EDGE_LOOP ( 'NONE', ( #386, #34, #1081, #413, #704, #949 ) ) ;
#1153 = CARTESIAN_POINT ( 'NONE',  ( 80.00000000000001421, -4.999999999999997335, 0.000000000000000000 ) ) ;
#1154 = ORIENTED_EDGE ( 'NONE', *, *, #1005, .T. ) ;
#1155 = VECTOR ( 'NONE', #577, 1000.000000000000000 ) ;
#1156 = LINE ( 'NONE', #962, #111 ) ;
#1157 = ORIENTED_EDGE ( 'NONE', *, *, #789, .T. ) ;
#1158 = DIRECTION ( 'NONE',  ( -0.000000000000000000, -0.000000000000000000, -1.000000000000000000 ) ) ;
#1159 = ORIENTED_EDGE ( 'NONE', *, *, #167, .F. ) ;
#1160 = DIRECTION ( 'NONE',  ( -0.000000000000000000, -0.000000000000000000, -1.000000000000000000 ) ) ;
#1161 = AXIS2_PLACEMENT_3D ( 'NONE', #234, #875, #687 ) ;
#1162 = ORIENTED_EDGE ( 'NONE', *, *, #1009, .T. ) ;
#1163 = ORIENTED_EDGE ( 'NONE', *, *, #237, .T. ) ;
#1164 = FACE_OUTER_BOUND ( 'NONE', #892, .T. ) ;
#1165 = EDGE_CURVE ( 'NONE', #986, #509, #969, .T. ) ;
#1166 = ORIENTED_EDGE ( 'NONE', *, *, #870, .T. ) ;
#1167 = DIRECTION ( 'NONE',  ( 0.000000000000000000, 0.000000000000000000, 1.000000000000000000 ) ) ;
ENDSEC;
END-ISO-10303-21;
