ISO-10303-21;
HEADER;
FILE_DESCRIPTION (( 'STEP AP203' ),
    '1' );
FILE_NAME ('balama.STEP',
    '2026-09-24T17:56:04',
    ( '' ),
    ( '' ),
    'SwSTEP 2.0',
    'SolidWorks 2026',
    '' );
FILE_SCHEMA (( 'CONFIG_CONTROL_DESIGN' ));
ENDSEC;

DATA;
#1 = CARTESIAN_POINT ( 'NONE',  ( 11.00000000000000000, 6.000000000000000000, -2.200000000000000178 ) ) ;
#2 =( GEOMETRIC_REPRESENTATION_CONTEXT ( 3 ) GLOBAL_UNCERTAINTY_ASSIGNED_CONTEXT ( ( #270 ) ) GLOBAL_UNIT_ASSIGNED_CONTEXT ( ( #377, #139, #273 ) ) REPRESENTATION_CONTEXT ( 'NONE', 'WORKASPACE' ) );
#3 = DIRECTION ( 'NONE',  ( 0.000000000000000000, 0.000000000000000000, -1.000000000000000000 ) ) ;
#4 = CARTESIAN_POINT ( 'NONE',  ( 15.00000000000000000, 5.499999999999997335, 1.050000000000000933 ) ) ;
#5 = APPROVAL_ROLE ( '' ) ;
#6 = DIRECTION ( 'NONE',  ( 1.000000000000000000, 0.000000000000000000, 1.084202172485504804E-16 ) ) ;
#7 = ORIENTED_EDGE ( 'NONE', *, *, #255, .T. ) ;
#8 = VECTOR ( 'NONE', #74, 1000.000000000000000 ) ;
#9 = CIRCLE ( 'NONE', #80, 2.325000000000000622 ) ;
#10 = PERSON_AND_ORGANIZATION_ROLE ( 'creator' ) ;
#11 = ORIENTED_EDGE ( 'NONE', *, *, #218, .F. ) ;
#12 = EDGE_CURVE ( 'NONE', #160, #47, #9, .T. ) ;
#13 = ORIENTED_EDGE ( 'NONE', *, *, #18, .T. ) ;
#14 = CARTESIAN_POINT ( 'NONE',  ( 2.571758278209443436E-16, 6.000000000000000000, 4.300000000000001599 ) ) ;
#15 = ORIENTED_EDGE ( 'NONE', *, *, #381, .F. ) ;
#16 = AXIS2_PLACEMENT_3D ( 'NONE', #323, #224, #380 ) ;
#17 = CARTESIAN_POINT ( 'NONE',  ( 15.00000000000000000, 6.000000000000000000, -1.274999999999999689 ) ) ;
#18 = EDGE_CURVE ( 'NONE', #295, #247, #215, .T. ) ;
#19 = CARTESIAN_POINT ( 'NONE',  ( 15.00000000000000000, 5.499999999999997335, -0.7749999999999981348 ) ) ;
#20 = CARTESIAN_POINT ( 'NONE',  ( 15.00000000000000000, 6.000000000000000000, 2.875000000000000000 ) ) ;
#21 = ORIENTED_EDGE ( 'NONE', *, *, #35, .T. ) ;
#22 = VECTOR ( 'NONE', #161, 1000.000000000000000 ) ;
#23 = CARTESIAN_POINT ( 'NONE',  ( 14.99999999999999822, 6.000000000000000000, -2.199999999999999734 ) ) ;
#24 = VERTEX_POINT ( 'NONE', #217 ) ;
#25 = APPROVAL ( #124, 'UNSPECIFIED' ) ;
#26 = DIRECTION ( 'NONE',  ( 0.000000000000000000, 0.000000000000000000, 1.000000000000000000 ) ) ;
#27 = ORIENTED_EDGE ( 'NONE', *, *, #381, .T. ) ;
#28 = VECTOR ( 'NONE', #194, 1000.000000000000000 ) ;
#29 = ORIENTED_EDGE ( 'NONE', *, *, #18, .F. ) ;
#30 = LINE ( 'NONE', #264, #237 ) ;
#31 = VERTEX_POINT ( 'NONE', #412 ) ;
#32 = AXIS2_PLACEMENT_3D ( 'NONE', #327, #333, #238 ) ;
#33 = CARTESIAN_POINT ( 'NONE',  ( 15.00000000000000000, 5.499999999999997335, -0.7749999999999981348 ) ) ;
#34 = VECTOR ( 'NONE', #378, 1000.000000000000000 ) ;
#35 = EDGE_CURVE ( 'NONE', #37, #24, #337, .T. ) ;
#36 = LINE ( 'NONE', #69, #65 ) ;
#37 = VERTEX_POINT ( 'NONE', #53 ) ;
#38 = CARTESIAN_POINT ( 'NONE',  ( 11.00000000000000000, 0.000000000000000000, -2.200000000000000178 ) ) ;
#39 = DATE_AND_TIME ( #209, #330 ) ;
#40 = CIRCLE ( 'NONE', #32, 1.824999999999998845 ) ;
#41 = DIRECTION ( 'NONE',  ( 5.980833205138238026E-17, 0.000000000000000000, 1.000000000000000000 ) ) ;
#42 = PERSON_AND_ORGANIZATION ( #162, #146 ) ;
#43 = ADVANCED_FACE ( 'NONE', ( #178 ), #371, .F. ) ;
#44 = EDGE_LOOP ( 'NONE', ( #100, #144, #329, #393 ) ) ;
#45 = AXIS2_PLACEMENT_3D ( 'NONE', #277, #405, #112 ) ;
#46 = COORDINATED_UNIVERSAL_TIME_OFFSET ( 2, 0, .AHEAD. ) ;
#47 = VERTEX_POINT ( 'NONE', #401 ) ;
#48 = DIRECTION ( 'NONE',  ( 1.000000000000000000, 0.000000000000000000, -5.980833205138238026E-17 ) ) ;
#49 = ORIENTED_EDGE ( 'NONE', *, *, #94, .F. ) ;
#50 = VECTOR ( 'NONE', #135, 1000.000000000000000 ) ;
#51 = ADVANCED_FACE ( 'NONE', ( #242 ), #370, .F. ) ;
#52 = PERSON_AND_ORGANIZATION ( #162, #146 ) ;
#53 = CARTESIAN_POINT ( 'NONE',  ( 0.000000000000000000, 6.000000000000000000, 0.000000000000000000 ) ) ;
#54 = DATE_TIME_ROLE ( 'classification_date' ) ;
#55 = DIRECTION ( 'NONE',  ( 0.000000000000000000, 0.000000000000000000, -1.000000000000000000 ) ) ;
#56 = CC_DESIGN_APPROVAL ( #25, ( #175 ) ) ;
#57 = PRODUCT_DEFINITION ( 'UNKNOWN', '', #223, #103 ) ;
#58 = CARTESIAN_POINT ( 'NONE',  ( 11.00000000000000000, 0.000000000000000000, -2.200000000000000178 ) ) ;
#59 = CC_DESIGN_APPROVAL ( #328, ( #57 ) ) ;
#60 = CALENDAR_DATE ( 2026, 24, 9 ) ;
#61 = LINE ( 'NONE', #19, #358 ) ;
#62 = DIRECTION ( 'NONE',  ( -0.000000000000000000, -1.000000000000000000, -0.000000000000000000 ) ) ;
#63 = CARTESIAN_POINT ( 'NONE',  ( 15.00000000000000000, 6.000000000000000000, 1.050000000000000933 ) ) ;
#64 = EDGE_CURVE ( 'NONE', #302, #265, #181, .T. ) ;
#65 = VECTOR ( 'NONE', #99, 1000.000000000000000 ) ;
#66 = DIRECTION ( 'NONE',  ( 1.000000000000000000, 0.000000000000000000, -1.156482317317871478E-16 ) ) ;
#67 = ORIENTED_EDGE ( 'NONE', *, *, #335, .T. ) ;
#68 = DIRECTION ( 'NONE',  ( -0.000000000000000000, -1.000000000000000000, -0.000000000000000000 ) ) ;
#69 = CARTESIAN_POINT ( 'NONE',  ( 2.571758278209443436E-16, 0.000000000000000000, 4.300000000000001599 ) ) ;
#70 = APPROVAL ( #407, 'UNSPECIFIED' ) ;
#71 = DIRECTION ( 'NONE',  ( 5.980833205138238026E-17, 0.000000000000000000, 1.000000000000000000 ) ) ;
#72 = ORIENTED_EDGE ( 'NONE', *, *, #218, .T. ) ;
#73 = ORIENTED_EDGE ( 'NONE', *, *, #236, .F. ) ;
#74 = DIRECTION ( 'NONE',  ( 0.000000000000000000, 0.000000000000000000, 1.000000000000000000 ) ) ;
#75 = EDGE_LOOP ( 'NONE', ( #67, #49, #281, #27 ) ) ;
#76 = PERSON_AND_ORGANIZATION_ROLE ( 'classification_officer' ) ;
#77 = ORIENTED_EDGE ( 'NONE', *, *, #94, .T. ) ;
#78 = CARTESIAN_POINT ( 'NONE',  ( 15.00000000000000000, 6.000000000000000000, 1.050000000000000933 ) ) ;
#79 = CARTESIAN_POINT ( 'NONE',  ( 11.00000000000000000, 6.000000000000000000, -2.200000000000000178 ) ) ;
#80 = AXIS2_PLACEMENT_3D ( 'NONE', #375, #109, #83 ) ;
#81 = APPLICATION_PROTOCOL_DEFINITION ( 'international standard', 'config_control_design', 1994, #397 ) ;
#82 = ORIENTED_EDGE ( 'NONE', *, *, #298, .T. ) ;
#83 = DIRECTION ( 'NONE',  ( 0.000000000000000000, 0.000000000000000000, 1.000000000000000000 ) ) ;
#84 = EDGE_CURVE ( 'NONE', #31, #262, #153, .T. ) ;
#85 = ORIENTED_EDGE ( 'NONE', *, *, #321, .F. ) ;
#86 = AXIS2_PLACEMENT_3D ( 'NONE', #63, #62, #55 ) ;
#87 = FACE_OUTER_BOUND ( 'NONE', #75, .T. ) ;
#88 = DIRECTION ( 'NONE',  ( 0.000000000000000000, 1.000000000000000000, 0.000000000000000000 ) ) ;
#89 = EDGE_CURVE ( 'NONE', #262, #31, #425, .T. ) ;
#90 = PERSON_AND_ORGANIZATION ( #162, #146 ) ;
#91 = CARTESIAN_POINT ( 'NONE',  ( 15.00000000000000000, 0.000000000000000000, 1.050000000000000933 ) ) ;
#92 = LINE ( 'NONE', #23, #227 ) ;
#93 = DIRECTION ( 'NONE',  ( 0.000000000000000000, 1.000000000000000000, 0.000000000000000000 ) ) ;
#94 = EDGE_CURVE ( 'NONE', #266, #171, #92, .T. ) ;
#95 = DIRECTION ( 'NONE',  ( 0.000000000000000000, 1.000000000000000000, 0.000000000000000000 ) ) ;
#96 = VECTOR ( 'NONE', #66, 1000.000000000000000 ) ;
#97 = CARTESIAN_POINT ( 'NONE',  ( 15.00000000000000000, 0.000000000000000000, -0.7749999999999981348 ) ) ;
#98 = ADVANCED_FACE ( 'NONE', ( #317 ), #259, .F. ) ;
#99 = DIRECTION ( 'NONE',  ( 1.000000000000000000, 0.000000000000000000, -1.156482317317871478E-16 ) ) ;
#100 = ORIENTED_EDGE ( 'NONE', *, *, #122, .F. ) ;
#101 = DIRECTION ( 'NONE',  ( 0.000000000000000000, 0.000000000000000000, 1.000000000000000000 ) ) ;
#102 = CIRCLE ( 'NONE', #205, 2.325000000000000622 ) ;
#103 = DESIGN_CONTEXT ( 'detailed design', #240, 'design' ) ;
#104 = LINE ( 'NONE', #170, #379 ) ;
#105 = ORIENTED_EDGE ( 'NONE', *, *, #167, .F. ) ;
#106 = EDGE_LOOP ( 'NONE', ( #325, #347, #269, #13 ) ) ;
#107 = CC_DESIGN_PERSON_AND_ORGANIZATION_ASSIGNMENT ( #346, #187, ( #223 ) ) ;
#108 = APPROVAL_DATE_TIME ( #141, #328 ) ;
#109 = DIRECTION ( 'NONE',  ( -0.000000000000000000, -1.000000000000000000, -0.000000000000000000 ) ) ;
#110 = VECTOR ( 'NONE', #71, 1000.000000000000000 ) ;
#111 = APPROVAL_DATE_TIME ( #216, #70 ) ;
#112 = DIRECTION ( 'NONE',  ( 0.000000000000000000, 0.000000000000000000, 1.000000000000000000 ) ) ;
#113 = CLOSED_SHELL ( 'NONE', ( #250, #318, #114, #207, #174, #51, #372, #310, #394, #98, #399, #43 ) ) ;
#114 = ADVANCED_FACE ( 'NONE', ( #357, #384 ), #348, .T. ) ;
#115 = DIRECTION ( 'NONE',  ( 0.000000000000000000, 0.000000000000000000, 1.000000000000000000 ) ) ;
#116 = ORIENTED_EDGE ( 'NONE', *, *, #202, .T. ) ;
#117 = COORDINATED_UNIVERSAL_TIME_OFFSET ( 2, 0, .AHEAD. ) ;
#118 = ORIENTED_EDGE ( 'NONE', *, *, #298, .F. ) ;
#119 = CC_DESIGN_APPROVAL ( #70, ( #223 ) ) ;
#120 = ORIENTED_EDGE ( 'NONE', *, *, #12, .F. ) ;
#121 = CARTESIAN_POINT ( 'NONE',  ( 2.571758278209443436E-16, 0.000000000000000000, 4.300000000000001599 ) ) ;
#122 = EDGE_CURVE ( 'NONE', #302, #31, #417, .T. ) ;
#123 = CARTESIAN_POINT ( 'NONE',  ( 0.000000000000000000, 6.000000000000000000, 0.000000000000000000 ) ) ;
#124 = APPROVAL_STATUS ( 'not_yet_approved' ) ;
#125 = CARTESIAN_POINT ( 'NONE',  ( 11.00000000000000000, 6.000000000000000000, 0.000000000000000000 ) ) ;
#126 = VECTOR ( 'NONE', #353, 999.9999999999998863 ) ;
#127 = EDGE_CURVE ( 'NONE', #265, #262, #225, .T. ) ;
#128 = DIRECTION ( 'NONE',  ( -1.156482317317871478E-16, 0.000000000000000000, -1.000000000000000000 ) ) ;
#129 = DIRECTION ( 'NONE',  ( 0.000000000000000000, 1.000000000000000000, 0.000000000000000000 ) ) ;
#130 = DIRECTION ( 'NONE',  ( 1.000000000000000000, 0.000000000000000000, 0.000000000000000000 ) ) ;
#131 = ORIENTED_EDGE ( 'NONE', *, *, #89, .T. ) ;
#132 = CC_DESIGN_PERSON_AND_ORGANIZATION_ASSIGNMENT ( #42, #179, ( #226 ) ) ;
#133 = DIRECTION ( 'NONE',  ( 1.000000000000000000, 0.000000000000000000, -0.000000000000000000 ) ) ;
#134 = FACE_OUTER_BOUND ( 'NONE', #151, .T. ) ;
#135 = DIRECTION ( 'NONE',  ( -1.000000000000000000, -0.000000000000000000, -0.000000000000000000 ) ) ;
#136 = EDGE_LOOP ( 'NONE', ( #72, #29, #118, #77 ) ) ;
#137 = ORIENTED_EDGE ( 'NONE', *, *, #12, .T. ) ;
#138 = VECTOR ( 'NONE', #287, 1000.000000000000000 ) ;
#139 =( NAMED_UNIT ( * ) PLANE_ANGLE_UNIT ( ) SI_UNIT ( $, .RADIAN. ) );
#140 = EDGE_CURVE ( 'NONE', #186, #164, #189, .T. ) ;
#141 = DATE_AND_TIME ( #306, #243 ) ;
#142 = DIRECTION ( 'NONE',  ( 0.000000000000000000, 1.000000000000000000, 0.000000000000000000 ) ) ;
#143 = AXIS2_PLACEMENT_3D ( 'NONE', #4, #142, #275 ) ;
#144 = ORIENTED_EDGE ( 'NONE', *, *, #64, .T. ) ;
#145 = EDGE_CURVE ( 'NONE', #186, #37, #291, .T. ) ;
#146 = ORGANIZATION ( 'UNSPECIFIED', 'UNSPECIFIED', '' ) ;
#147 = DIRECTION ( 'NONE',  ( 1.000000000000000000, 0.000000000000000000, 0.000000000000000000 ) ) ;
#148 = ORIENTED_EDGE ( 'NONE', *, *, #335, .F. ) ;
#149 = FACE_OUTER_BOUND ( 'NONE', #44, .T. ) ;
#150 = CARTESIAN_POINT ( 'NONE',  ( 11.00000000000000000, 6.000000000000000000, -2.200000000000000178 ) ) ;
#151 = EDGE_LOOP ( 'NONE', ( #252, #249, #341, #423 ) ) ;
#152 = FACE_OUTER_BOUND ( 'NONE', #246, .T. ) ;
#153 = CIRCLE ( 'NONE', #253, 1.824999999999998845 ) ;
#154 = CARTESIAN_POINT ( 'NONE',  ( 14.99999999999999822, 0.000000000000000000, -2.199999999999999734 ) ) ;
#155 = DIRECTION ( 'NONE',  ( 0.000000000000000000, -0.000000000000000000, 1.000000000000000000 ) ) ;
#156 = CC_DESIGN_PERSON_AND_ORGANIZATION_ASSIGNMENT ( #52, #245, ( #223 ) ) ;
#157 = PRODUCT_DEFINITION_SHAPE ( 'NONE', 'NONE',  #57 ) ;
#158 = DIRECTION ( 'NONE',  ( -0.000000000000000000, -1.000000000000000000, -0.000000000000000000 ) ) ;
#159 = AXIS2_PLACEMENT_3D ( 'NONE', #271, #392, #133 ) ;
#160 = VERTEX_POINT ( 'NONE', #17 ) ;
#161 = DIRECTION ( 'NONE',  ( -1.000000000000000000, -0.000000000000000000, -0.000000000000000000 ) ) ;
#162 = PERSON ( 'UNSPECIFIED', 'UNSPECIFIED', 'UNSPECIFIED', ('UNSPECIFIED'), ('UNSPECIFIED'), ('UNSPECIFIED') ) ;
#163 = DIRECTION ( 'NONE',  ( 0.000000000000000000, 0.000000000000000000, 1.000000000000000000 ) ) ;
#164 = VERTEX_POINT ( 'NONE', #289 ) ;
#165 = FACE_OUTER_BOUND ( 'NONE', #284, .T. ) ;
#166 = ORIENTED_EDGE ( 'NONE', *, *, #321, .T. ) ;
#167 = EDGE_CURVE ( 'NONE', #302, #47, #293, .T. ) ;
#168 = VERTEX_POINT ( 'NONE', #382 ) ;
#169 = VECTOR ( 'NONE', #257, 1000.000000000000000 ) ;
#170 = CARTESIAN_POINT ( 'NONE',  ( 11.00000000000000000, 6.000000000000000000, -2.200000000000000178 ) ) ;
#171 = VERTEX_POINT ( 'NONE', #154 ) ;
#172 = DIRECTION ( 'NONE',  ( -0.000000000000000000, -1.000000000000000000, -0.000000000000000000 ) ) ;
#173 = ORIENTED_EDGE ( 'NONE', *, *, #211, .T. ) ;
#174 = ADVANCED_FACE ( 'NONE', ( #87 ), #319, .T. ) ;
#175 = SECURITY_CLASSIFICATION ( '', '', #336 ) ;
#176 = LINE ( 'NONE', #267, #322 ) ;
#177 = AXIS2_PLACEMENT_3D ( 'NONE', #254, #88, #155 ) ;
#178 = FACE_OUTER_BOUND ( 'NONE', #349, .T. ) ;
#179 = PERSON_AND_ORGANIZATION_ROLE ( 'design_owner' ) ;
#180 = ORIENTED_EDGE ( 'NONE', *, *, #145, .F. ) ;
#181 = CIRCLE ( 'NONE', #45, 1.824999999999998845 ) ;
#182 = CARTESIAN_POINT ( 'NONE',  ( 0.000000000000000000, 6.000000000000000000, 0.000000000000000000 ) ) ;
#183 = ORIENTED_EDGE ( 'NONE', *, *, #236, .T. ) ;
#184 = AXIS2_PLACEMENT_3D ( 'NONE', #422, #130, #208 ) ;
#185 = MECHANICAL_CONTEXT ( 'NONE', #397, 'mechanical' ) ;
#186 = VERTEX_POINT ( 'NONE', #197 ) ;
#187 = PERSON_AND_ORGANIZATION_ROLE ( 'design_supplier' ) ;
#188 = VERTEX_POINT ( 'NONE', #121 ) ;
#189 = LINE ( 'NONE', #125, #297 ) ;
#190 = SHAPE_DEFINITION_REPRESENTATION ( #157, #220 ) ;
#191 = CARTESIAN_POINT ( 'NONE',  ( 15.00000000000000000, 0.000000000000000000, 1.050000000000000933 ) ) ;
#192 = DIRECTION ( 'NONE',  ( 0.000000000000000000, 0.000000000000000000, 1.000000000000000000 ) ) ;
#193 = CC_DESIGN_PERSON_AND_ORGANIZATION_ASSIGNMENT ( #340, #76, ( #175 ) ) ;
#194 = DIRECTION ( 'NONE',  ( -0.000000000000000000, -1.000000000000000000, -0.000000000000000000 ) ) ;
#195 = CC_DESIGN_SECURITY_CLASSIFICATION ( #175, ( #223 ) ) ;
#196 = APPROVAL_ROLE ( '' ) ;
#197 = CARTESIAN_POINT ( 'NONE',  ( 11.00000000000000000, 6.000000000000000000, 0.000000000000000000 ) ) ;
#198 = AXIS2_PLACEMENT_3D ( 'NONE', #182, #48, #374 ) ;
#199 = FACE_OUTER_BOUND ( 'NONE', #106, .T. ) ;
#200 = ORIENTED_EDGE ( 'NONE', *, *, #368, .T. ) ;
#201 = AXIS2_PLACEMENT_3D ( 'NONE', #79, #339, #6 ) ;
#202 = EDGE_CURVE ( 'NONE', #24, #188, #316, .T. ) ;
#203 = LINE ( 'NONE', #206, #110 ) ;
#204 = CARTESIAN_POINT ( 'NONE',  ( 15.00000000000000000, 6.000000000000000000, 1.050000000000000933 ) ) ;
#205 = AXIS2_PLACEMENT_3D ( 'NONE', #204, #172, #427 ) ;
#206 = CARTESIAN_POINT ( 'NONE',  ( 0.000000000000000000, 0.000000000000000000, 0.000000000000000000 ) ) ;
#207 = ADVANCED_FACE ( 'NONE', ( #152, #260 ), #286, .F. ) ;
#208 = DIRECTION ( 'NONE',  ( 0.000000000000000000, 0.000000000000000000, -1.000000000000000000 ) ) ;
#209 = CALENDAR_DATE ( 2026, 24, 9 ) ;
#210 = LINE ( 'NONE', #359, #8 ) ;
#211 = EDGE_CURVE ( 'NONE', #265, #160, #61, .T. ) ;
#212 = ORIENTED_EDGE ( 'NONE', *, *, #202, .F. ) ;
#213 = EDGE_LOOP ( 'NONE', ( #166, #315, #180, #428 ) ) ;
#214 = PERSON_AND_ORGANIZATION ( #162, #146 ) ;
#215 = LINE ( 'NONE', #150, #34 ) ;
#216 = DATE_AND_TIME ( #409, #376 ) ;
#217 = CARTESIAN_POINT ( 'NONE',  ( 2.571758278209443436E-16, 6.000000000000000000, 4.300000000000001599 ) ) ;
#218 = EDGE_CURVE ( 'NONE', #171, #247, #351, .T. ) ;
#219 = DIRECTION ( 'NONE',  ( 0.000000000000000000, 0.000000000000000000, 1.000000000000000000 ) ) ;
#220 = ADVANCED_BREP_SHAPE_REPRESENTATION ( 'balama', ( #424, #251 ), #2 ) ;
#221 = DIRECTION ( 'NONE',  ( 8.659560562354921765E-17, 0.7071067811865486830, -0.7071067811865464625 ) ) ;
#222 = EDGE_CURVE ( 'NONE', #37, #168, #415, .T. ) ;
#223 = PRODUCT_DEFINITION_FORMATION_WITH_SPECIFIED_SOURCE ( 'ANY', '', #226, .NOT_KNOWN. ) ;
#224 = DIRECTION ( 'NONE',  ( 0.000000000000000000, 1.000000000000000000, 0.000000000000000000 ) ) ;
#225 = LINE ( 'NONE', #389, #386 ) ;
#226 = PRODUCT ( 'balama', 'balama', '', ( #185 ) ) ;
#227 = VECTOR ( 'NONE', #388, 1000.000000000000000 ) ;
#228 = DIRECTION ( 'NONE',  ( -0.000000000000000000, -1.000000000000000000, -0.000000000000000000 ) ) ;
#229 = CARTESIAN_POINT ( 'NONE',  ( 15.00000000000000000, 6.000000000000000000, 4.299999999999999822 ) ) ;
#230 = AXIS2_PLACEMENT_3D ( 'NONE', #332, #360, #163 ) ;
#231 = FACE_OUTER_BOUND ( 'NONE', #363, .T. ) ;
#232 = ORIENTED_EDGE ( 'NONE', *, *, #167, .T. ) ;
#233 = CARTESIAN_POINT ( 'NONE',  ( 2.571758278209443436E-16, 6.000000000000000000, 4.300000000000001599 ) ) ;
#234 = EDGE_LOOP ( 'NONE', ( #200, #82, #314, #344, #21, #307 ) ) ;
#235 = CARTESIAN_POINT ( 'NONE',  ( 15.00000000000000000, 5.499999999999997335, 2.875000000000000444 ) ) ;
#236 = EDGE_CURVE ( 'NONE', #188, #361, #36, .T. ) ;
#237 = VECTOR ( 'NONE', #68, 1000.000000000000000 ) ;
#238 = DIRECTION ( 'NONE',  ( 0.000000000000000000, 0.000000000000000000, 1.000000000000000000 ) ) ;
#239 = EDGE_LOOP ( 'NONE', ( #183, #15, #301, #116 ) ) ;
#240 = APPLICATION_CONTEXT ( 'configuration controlled 3d designs of mechanical parts and assemblies' ) ;
#241 = PERSON_AND_ORGANIZATION ( #162, #146 ) ;
#242 = FACE_OUTER_BOUND ( 'NONE', #136, .T. ) ;
#243 = LOCAL_TIME ( 20, 56, 4.000000000000000000, #338 ) ;
#244 = EDGE_CURVE ( 'NONE', #295, #186, #210, .T. ) ;
#245 = PERSON_AND_ORGANIZATION_ROLE ( 'creator' ) ;
#246 = EDGE_LOOP ( 'NONE', ( #148, #73, #283, #85, #334, #11 ) ) ;
#247 = VERTEX_POINT ( 'NONE', #38 ) ;
#248 = DATE_AND_TIME ( #279, #352 ) ;
#249 = ORIENTED_EDGE ( 'NONE', *, *, #122, .T. ) ;
#250 = ADVANCED_FACE ( 'NONE', ( #231 ), #406, .F. ) ;
#251 = AXIS2_PLACEMENT_3D ( 'NONE', #308, #115, #147 ) ;
#252 = ORIENTED_EDGE ( 'NONE', *, *, #350, .T. ) ;
#253 = AXIS2_PLACEMENT_3D ( 'NONE', #191, #93, #192 ) ;
#254 = CARTESIAN_POINT ( 'NONE',  ( 15.00000000000000000, 0.000000000000000000, 1.050000000000000933 ) ) ;
#255 = EDGE_CURVE ( 'NONE', #47, #160, #102, .T. ) ;
#256 = DATE_AND_TIME ( #60, #411 ) ;
#257 = DIRECTION ( 'NONE',  ( -0.000000000000000000, -1.000000000000000000, -0.000000000000000000 ) ) ;
#258 = AXIS2_PLACEMENT_3D ( 'NONE', #331, #296, #26 ) ;
#259 = PLANE ( 'NONE',  #356 ) ;
#260 = FACE_BOUND ( 'NONE', #385, .T. ) ;
#261 = CARTESIAN_POINT ( 'NONE',  ( 15.00000000000000000, 6.000000000000000000, 1.050000000000000933 ) ) ;
#262 = VERTEX_POINT ( 'NONE', #97 ) ;
#263 = CC_DESIGN_DATE_AND_TIME_ASSIGNMENT ( #248, #282, ( #57 ) ) ;
#264 = CARTESIAN_POINT ( 'NONE',  ( 15.00000000000000000, 6.000000000000000000, 4.299999999999999822 ) ) ;
#265 = VERTEX_POINT ( 'NONE', #33 ) ;
#266 = VERTEX_POINT ( 'NONE', #299 ) ;
#267 = CARTESIAN_POINT ( 'NONE',  ( 11.00000000000000000, 0.000000000000000000, -2.200000000000000178 ) ) ;
#268 = CYLINDRICAL_SURFACE ( 'NONE', #418, 1.824999999999999067 ) ;
#269 = ORIENTED_EDGE ( 'NONE', *, *, #244, .F. ) ;
#270 = UNCERTAINTY_MEASURE_WITH_UNIT (LENGTH_MEASURE( 1.000000000000000082E-05 ), #377, 'distance_accuracy_value', 'NONE');
#271 = CARTESIAN_POINT ( 'NONE',  ( 0.000000000000000000, 6.000000000000000000, 0.000000000000000000 ) ) ;
#272 = VECTOR ( 'NONE', #320, 1000.000000000000000 ) ;
#273 =( NAMED_UNIT ( * ) SI_UNIT ( $, .STERADIAN. ) SOLID_ANGLE_UNIT ( ) );
#274 = PERSON_AND_ORGANIZATION ( #162, #146 ) ;
#275 = DIRECTION ( 'NONE',  ( 0.000000000000000000, 0.000000000000000000, 1.000000000000000000 ) ) ;
#276 = PRODUCT_RELATED_PRODUCT_CATEGORY ( 'detail', '', ( #226 ) ) ;
#277 = CARTESIAN_POINT ( 'NONE',  ( 15.00000000000000000, 5.499999999999997335, 1.050000000000000933 ) ) ;
#278 = APPROVAL_PERSON_ORGANIZATION ( #274, #70, #5 ) ;
#279 = CALENDAR_DATE ( 2026, 24, 9 ) ;
#280 = VECTOR ( 'NONE', #41, 1000.000000000000000 ) ;
#281 = ORIENTED_EDGE ( 'NONE', *, *, #368, .F. ) ;
#282 = DATE_TIME_ROLE ( 'creation_date' ) ;
#283 = ORIENTED_EDGE ( 'NONE', *, *, #342, .F. ) ;
#284 = EDGE_LOOP ( 'NONE', ( #420, #212, #410, #366 ) ) ;
#285 = APPROVAL_PERSON_ORGANIZATION ( #214, #328, #313 ) ;
#286 = PLANE ( 'NONE',  #177 ) ;
#287 = DIRECTION ( 'NONE',  ( -1.000000000000000000, -0.000000000000000000, -1.084202172485504927E-16 ) ) ;
#288 = COORDINATED_UNIVERSAL_TIME_OFFSET ( 2, 0, .AHEAD. ) ;
#289 = CARTESIAN_POINT ( 'NONE',  ( 11.00000000000000000, 0.000000000000000000, 0.000000000000000000 ) ) ;
#290 = AXIS2_PLACEMENT_3D ( 'NONE', #78, #400, #3 ) ;
#291 = LINE ( 'NONE', #355, #22 ) ;
#292 = EDGE_CURVE ( 'NONE', #24, #326, #398, .T. ) ;
#293 = LINE ( 'NONE', #419, #126 ) ;
#294 = PLANE ( 'NONE',  #184 ) ;
#295 = VERTEX_POINT ( 'NONE', #1 ) ;
#296 = DIRECTION ( 'NONE',  ( 0.000000000000000000, 1.000000000000000000, 0.000000000000000000 ) ) ;
#297 = VECTOR ( 'NONE', #158, 1000.000000000000000 ) ;
#298 = EDGE_CURVE ( 'NONE', #266, #295, #104, .T. ) ;
#299 = CARTESIAN_POINT ( 'NONE',  ( 14.99999999999999822, 6.000000000000000000, -2.199999999999999734 ) ) ;
#300 = PLANE ( 'NONE',  #159 ) ;
#301 = ORIENTED_EDGE ( 'NONE', *, *, #292, .F. ) ;
#302 = VERTEX_POINT ( 'NONE', #235 ) ;
#303 = DIRECTION ( 'NONE',  ( 0.000000000000000000, 0.000000000000000000, 1.000000000000000000 ) ) ;
#304 = APPLICATION_PROTOCOL_DEFINITION ( 'international standard', 'config_control_design', 1994, #240 ) ;
#305 = CARTESIAN_POINT ( 'NONE',  ( 0.000000000000000000, 6.000000000000000000, 0.000000000000000000 ) ) ;
#306 = CALENDAR_DATE ( 2026, 24, 9 ) ;
#307 = ORIENTED_EDGE ( 'NONE', *, *, #292, .T. ) ;
#308 = CARTESIAN_POINT ( 'NONE',  ( 0.000000000000000000, 0.000000000000000000, 0.000000000000000000 ) ) ;
#309 = ORIENTED_EDGE ( 'NONE', *, *, #64, .F. ) ;
#310 = ADVANCED_FACE ( 'NONE', ( #426 ), #300, .F. ) ;
#311 = AXIS2_PLACEMENT_3D ( 'NONE', #91, #129, #219 ) ;
#312 = CIRCLE ( 'NONE', #230, 3.250000000000000000 ) ;
#313 = APPROVAL_ROLE ( '' ) ;
#314 = ORIENTED_EDGE ( 'NONE', *, *, #244, .T. ) ;
#315 = ORIENTED_EDGE ( 'NONE', *, *, #222, .F. ) ;
#316 = LINE ( 'NONE', #14, #272 ) ;
#317 = FACE_OUTER_BOUND ( 'NONE', #239, .T. ) ;
#318 = ADVANCED_FACE ( 'NONE', ( #134 ), #268, .F. ) ;
#319 = CYLINDRICAL_SURFACE ( 'NONE', #86, 3.250000000000000000 ) ;
#320 = DIRECTION ( 'NONE',  ( -0.000000000000000000, -1.000000000000000000, -0.000000000000000000 ) ) ;
#321 = EDGE_CURVE ( 'NONE', #164, #168, #390, .T. ) ;
#322 = VECTOR ( 'NONE', #303, 1000.000000000000000 ) ;
#323 = CARTESIAN_POINT ( 'NONE',  ( 15.00000000000000000, 6.000000000000000000, 1.050000000000000933 ) ) ;
#324 = CARTESIAN_POINT ( 'NONE',  ( 0.000000000000000000, 0.000000000000000000, 0.000000000000000000 ) ) ;
#325 = ORIENTED_EDGE ( 'NONE', *, *, #387, .T. ) ;
#326 = VERTEX_POINT ( 'NONE', #229 ) ;
#327 = CARTESIAN_POINT ( 'NONE',  ( 15.00000000000000000, 5.499999999999997335, 1.050000000000000933 ) ) ;
#328 = APPROVAL ( #343, 'UNSPECIFIED' ) ;
#329 = ORIENTED_EDGE ( 'NONE', *, *, #127, .T. ) ;
#330 = LOCAL_TIME ( 20, 56, 4.000000000000000000, #46 ) ;
#331 = CARTESIAN_POINT ( 'NONE',  ( 15.00000000000000000, 5.499999999999997335, 1.050000000000000933 ) ) ;
#332 = CARTESIAN_POINT ( 'NONE',  ( 15.00000000000000000, 6.000000000000000000, 1.050000000000000933 ) ) ;
#333 = DIRECTION ( 'NONE',  ( 0.000000000000000000, 1.000000000000000000, 0.000000000000000000 ) ) ;
#334 = ORIENTED_EDGE ( 'NONE', *, *, #387, .F. ) ;
#335 = EDGE_CURVE ( 'NONE', #361, #171, #365, .T. ) ;
#336 = SECURITY_CLASSIFICATION_LEVEL ( 'unclassified' ) ;
#337 = LINE ( 'NONE', #305, #280 ) ;
#338 = COORDINATED_UNIVERSAL_TIME_OFFSET ( 2, 0, .AHEAD. ) ;
#339 = DIRECTION ( 'NONE',  ( -1.084202172485504804E-16, 0.000000000000000000, 1.000000000000000000 ) ) ;
#340 = PERSON_AND_ORGANIZATION ( #162, #146 ) ;
#341 = ORIENTED_EDGE ( 'NONE', *, *, #89, .F. ) ;
#342 = EDGE_CURVE ( 'NONE', #168, #188, #203, .T. ) ;
#343 = APPROVAL_STATUS ( 'not_yet_approved' ) ;
#344 = ORIENTED_EDGE ( 'NONE', *, *, #145, .T. ) ;
#345 = AXIS2_PLACEMENT_3D ( 'NONE', #364, #95, #101 ) ;
#346 = PERSON_AND_ORGANIZATION ( #162, #146 ) ;
#347 = ORIENTED_EDGE ( 'NONE', *, *, #140, .F. ) ;
#348 = PLANE ( 'NONE',  #16 ) ;
#349 = EDGE_LOOP ( 'NONE', ( #408, #309, #232, #120 ) ) ;
#350 = EDGE_CURVE ( 'NONE', #265, #302, #40, .T. ) ;
#351 = LINE ( 'NONE', #58, #138 ) ;
#352 = LOCAL_TIME ( 20, 56, 4.000000000000000000, #117 ) ;
#353 = DIRECTION ( 'NONE',  ( 0.000000000000000000, 0.7071067811865486830, 0.7071067811865464625 ) ) ;
#354 = ORIENTED_EDGE ( 'NONE', *, *, #350, .F. ) ;
#355 = CARTESIAN_POINT ( 'NONE',  ( 0.000000000000000000, 6.000000000000000000, 0.000000000000000000 ) ) ;
#356 = AXIS2_PLACEMENT_3D ( 'NONE', #421, #128, #414 ) ;
#357 = FACE_BOUND ( 'NONE', #373, .T. ) ;
#358 = VECTOR ( 'NONE', #221, 999.9999999999998863 ) ;
#359 = CARTESIAN_POINT ( 'NONE',  ( 11.00000000000000000, 6.000000000000000000, -2.200000000000000178 ) ) ;
#360 = DIRECTION ( 'NONE',  ( 0.000000000000000000, 1.000000000000000000, 0.000000000000000000 ) ) ;
#361 = VERTEX_POINT ( 'NONE', #367 ) ;
#362 = DIRECTION ( 'NONE',  ( -1.000000000000000000, -0.000000000000000000, -1.084202172485504927E-16 ) ) ;
#363 = EDGE_LOOP ( 'NONE', ( #354, #173, #391, #105 ) ) ;
#364 = CARTESIAN_POINT ( 'NONE',  ( 15.00000000000000000, 0.000000000000000000, 1.050000000000000933 ) ) ;
#365 = CIRCLE ( 'NONE', #345, 3.250000000000000000 ) ;
#366 = ORIENTED_EDGE ( 'NONE', *, *, #222, .T. ) ;
#367 = CARTESIAN_POINT ( 'NONE',  ( 15.00000000000000000, 0.000000000000000000, 4.299999999999999822 ) ) ;
#368 = EDGE_CURVE ( 'NONE', #326, #266, #312, .T. ) ;
#369 = CYLINDRICAL_SURFACE ( 'NONE', #290, 1.824999999999999067 ) ;
#370 = PLANE ( 'NONE',  #201 ) ;
#371 = CONICAL_SURFACE ( 'NONE', #143, 1.824999999999998845, 0.7853981633974468357 ) ;
#372 = ADVANCED_FACE ( 'NONE', ( #199 ), #294, .F. ) ;
#373 = EDGE_LOOP ( 'NONE', ( #7, #137 ) ) ;
#374 = DIRECTION ( 'NONE',  ( -5.980833205138238026E-17, 0.000000000000000000, -1.000000000000000000 ) ) ;
#375 = CARTESIAN_POINT ( 'NONE',  ( 15.00000000000000000, 6.000000000000000000, 1.050000000000000933 ) ) ;
#376 = LOCAL_TIME ( 20, 56, 4.000000000000000000, #404 ) ;
#377 =( LENGTH_UNIT ( ) NAMED_UNIT ( * ) SI_UNIT ( .MILLI., .METRE. ) );
#378 = DIRECTION ( 'NONE',  ( -0.000000000000000000, -1.000000000000000000, -0.000000000000000000 ) ) ;
#379 = VECTOR ( 'NONE', #362, 1000.000000000000000 ) ;
#380 = DIRECTION ( 'NONE',  ( 0.000000000000000000, -0.000000000000000000, 1.000000000000000000 ) ) ;
#381 = EDGE_CURVE ( 'NONE', #326, #361, #30, .T. ) ;
#382 = CARTESIAN_POINT ( 'NONE',  ( 0.000000000000000000, 0.000000000000000000, 0.000000000000000000 ) ) ;
#383 = ORIENTED_EDGE ( 'NONE', *, *, #84, .T. ) ;
#384 = FACE_OUTER_BOUND ( 'NONE', #234, .T. ) ;
#385 = EDGE_LOOP ( 'NONE', ( #131, #383 ) ) ;
#386 = VECTOR ( 'NONE', #228, 1000.000000000000000 ) ;
#387 = EDGE_CURVE ( 'NONE', #247, #164, #176, .T. ) ;
#388 = DIRECTION ( 'NONE',  ( -0.000000000000000000, -1.000000000000000000, -0.000000000000000000 ) ) ;
#389 = CARTESIAN_POINT ( 'NONE',  ( 15.00000000000000000, 6.000000000000000000, -0.7749999999999981348 ) ) ;
#390 = LINE ( 'NONE', #324, #50 ) ;
#391 = ORIENTED_EDGE ( 'NONE', *, *, #255, .F. ) ;
#392 = DIRECTION ( 'NONE',  ( 0.000000000000000000, 0.000000000000000000, 1.000000000000000000 ) ) ;
#393 = ORIENTED_EDGE ( 'NONE', *, *, #84, .F. ) ;
#394 = ADVANCED_FACE ( 'NONE', ( #165 ), #395, .F. ) ;
#395 = PLANE ( 'NONE',  #198 ) ;
#396 = DIRECTION ( 'NONE',  ( -0.000000000000000000, -1.000000000000000000, -0.000000000000000000 ) ) ;
#397 = APPLICATION_CONTEXT ( 'configuration controlled 3d designs of mechanical parts and assemblies' ) ;
#398 = LINE ( 'NONE', #233, #96 ) ;
#399 = ADVANCED_FACE ( 'NONE', ( #149 ), #369, .F. ) ;
#400 = DIRECTION ( 'NONE',  ( -0.000000000000000000, -1.000000000000000000, -0.000000000000000000 ) ) ;
#401 = CARTESIAN_POINT ( 'NONE',  ( 15.00000000000000000, 6.000000000000000000, 3.375000000000001776 ) ) ;
#402 = APPROVAL_PERSON_ORGANIZATION ( #90, #25, #196 ) ;
#403 = CC_DESIGN_DATE_AND_TIME_ASSIGNMENT ( #39, #54, ( #175 ) ) ;
#404 = COORDINATED_UNIVERSAL_TIME_OFFSET ( 2, 0, .AHEAD. ) ;
#405 = DIRECTION ( 'NONE',  ( 0.000000000000000000, 1.000000000000000000, 0.000000000000000000 ) ) ;
#406 = CONICAL_SURFACE ( 'NONE', #258, 1.824999999999998845, 0.7853981633974468357 ) ;
#407 = APPROVAL_STATUS ( 'not_yet_approved' ) ;
#408 = ORIENTED_EDGE ( 'NONE', *, *, #211, .F. ) ;
#409 = CALENDAR_DATE ( 2026, 24, 9 ) ;
#410 = ORIENTED_EDGE ( 'NONE', *, *, #35, .F. ) ;
#411 = LOCAL_TIME ( 20, 56, 4.000000000000000000, #288 ) ;
#412 = CARTESIAN_POINT ( 'NONE',  ( 15.00000000000000000, 0.000000000000000000, 2.875000000000000444 ) ) ;
#413 = CC_DESIGN_PERSON_AND_ORGANIZATION_ASSIGNMENT ( #241, #10, ( #57 ) ) ;
#414 = DIRECTION ( 'NONE',  ( -1.000000000000000000, 0.000000000000000000, 1.156482317317871478E-16 ) ) ;
#415 = LINE ( 'NONE', #123, #169 ) ;
#416 = APPROVAL_DATE_TIME ( #256, #25 ) ;
#417 = LINE ( 'NONE', #20, #28 ) ;
#418 = AXIS2_PLACEMENT_3D ( 'NONE', #261, #396, #429 ) ;
#419 = CARTESIAN_POINT ( 'NONE',  ( 15.00000000000000000, 5.499999999999997335, 2.875000000000000000 ) ) ;
#420 = ORIENTED_EDGE ( 'NONE', *, *, #342, .T. ) ;
#421 = CARTESIAN_POINT ( 'NONE',  ( 2.571758278209443436E-16, 6.000000000000000000, 4.300000000000001599 ) ) ;
#422 = CARTESIAN_POINT ( 'NONE',  ( 11.00000000000000000, 6.000000000000000000, -2.200000000000000178 ) ) ;
#423 = ORIENTED_EDGE ( 'NONE', *, *, #127, .F. ) ;
#424 = MANIFOLD_SOLID_BREP ( 'Chamfer1', #113 ) ;
#425 = CIRCLE ( 'NONE', #311, 1.824999999999998845 ) ;
#426 = FACE_OUTER_BOUND ( 'NONE', #213, .T. ) ;
#427 = DIRECTION ( 'NONE',  ( 0.000000000000000000, 0.000000000000000000, 1.000000000000000000 ) ) ;
#428 = ORIENTED_EDGE ( 'NONE', *, *, #140, .T. ) ;
#429 = DIRECTION ( 'NONE',  ( 0.000000000000000000, 0.000000000000000000, -1.000000000000000000 ) ) ;
ENDSEC;
END-ISO-10303-21;
