ISO-10303-21;
HEADER;
FILE_DESCRIPTION (( 'STEP AP203' ),
    '1' );
FILE_NAME ('geam.STEP',
    '2026-09-24T18:25:30',
    ( '' ),
    ( '' ),
    'SwSTEP 2.0',
    'SolidWorks 2026',
    '' );
FILE_SCHEMA (( 'CONFIG_CONTROL_DESIGN' ));
ENDSEC;

DATA;
#1 = VECTOR ( 'NONE', #3, 1000.000000000000000 ) ;
#2 = AXIS2_PLACEMENT_3D ( 'NONE', #532, #459, #28 ) ;
#3 = DIRECTION ( 'NONE',  ( 0.000000000000000000, 1.000000000000000000, 0.000000000000000000 ) ) ;
#4 = LOCAL_TIME ( 21, 25, 30.00000000000000000, #138 ) ;
#5 = VERTEX_POINT ( 'NONE', #296 ) ;
#6 = ADVANCED_FACE ( 'NONE', ( #950 ), #316, .T. ) ;
#7 = DIRECTION ( 'NONE',  ( 0.000000000000000000, 1.000000000000000000, 0.000000000000000000 ) ) ;
#8 = VERTEX_POINT ( 'NONE', #543 ) ;
#9 = ORIENTED_EDGE ( 'NONE', *, *, #900, .F. ) ;
#10 = CARTESIAN_POINT ( 'NONE',  ( 14.09999999999999964, 3.750000000000000000, -32.30000000000000426 ) ) ;
#11 = CARTESIAN_POINT ( 'NONE',  ( 32.30000000000000426, 3.750000000000003553, 0.000000000000000000 ) ) ;
#12 = DIRECTION ( 'NONE',  ( 0.7071067811865480168, 8.659560562354919300E-17, 0.7071067811865470176 ) ) ;
#13 = ORIENTED_EDGE ( 'NONE', *, *, #676, .F. ) ;
#14 = DIRECTION ( 'NONE',  ( 0.7071067811865480168, 0.000000000000000000, -0.7071067811865470176 ) ) ;
#15 = ADVANCED_FACE ( 'NONE', ( #1038 ), #493, .T. ) ;
#16 = CLOSED_SHELL ( 'NONE', ( #136, #863, #1029, #531, #600, #846, #29, #1072, #720, #804, #248, #605, #407, #286, #329, #765, #688, #112, #1046, #658, #225, #831, #295, #83, #15, #665, #6, #212, #854, #66, #944, #51, #619, #394 ) ) ;
#17 = FACE_OUTER_BOUND ( 'NONE', #98, .T. ) ;
#18 = CIRCLE ( 'NONE', #162, 1.625000000000001332 ) ;
#19 = EDGE_CURVE ( 'NONE', #962, #198, #647, .T. ) ;
#20 = ORIENTED_EDGE ( 'NONE', *, *, #1062, .F. ) ;
#21 = LINE ( 'NONE', #10, #917 ) ;
#22 = FACE_OUTER_BOUND ( 'NONE', #369, .T. ) ;
#23 = PLANE ( 'NONE',  #457 ) ;
#24 = FACE_OUTER_BOUND ( 'NONE', #669, .T. ) ;
#25 = FACE_OUTER_BOUND ( 'NONE', #453, .T. ) ;
#26 = DIRECTION ( 'NONE',  ( 0.000000000000000000, 0.000000000000000000, -1.000000000000000000 ) ) ;
#27 = FACE_OUTER_BOUND ( 'NONE', #739, .T. ) ;
#28 = DIRECTION ( 'NONE',  ( 1.000000000000000000, 0.000000000000000000, 0.000000000000000000 ) ) ;
#29 = ADVANCED_FACE ( 'NONE', ( #590 ), #821, .F. ) ;
#30 = EDGE_LOOP ( 'NONE', ( #266, #809, #578, #1005 ) ) ;
#31 = LINE ( 'NONE', #363, #364 ) ;
#32 = LINE ( 'NONE', #200, #884 ) ;
#33 = VECTOR ( 'NONE', #1048, 1000.000000000000000 ) ;
#34 = VECTOR ( 'NONE', #444, 1000.000000000000000 ) ;
#35 = CC_DESIGN_APPROVAL ( #379, ( #93 ) ) ;
#36 = ORIENTED_EDGE ( 'NONE', *, *, #754, .T. ) ;
#37 = LINE ( 'NONE', #637, #819 ) ;
#38 = EDGE_CURVE ( 'NONE', #8, #415, #904, .T. ) ;
#39 = LINE ( 'NONE', #468, #661 ) ;
#40 = CARTESIAN_POINT ( 'NONE',  ( 30.30000000000000071, 1.500000000000000000, -2.000000000000000000 ) ) ;
#41 = DIRECTION ( 'NONE',  ( 0.000000000000000000, 0.000000000000000000, -1.000000000000000000 ) ) ;
#42 = EDGE_LOOP ( 'NONE', ( #700, #434, #260, #805 ) ) ;
#43 = DIRECTION ( 'NONE',  ( -0.000000000000000000, -0.000000000000000000, -1.000000000000000000 ) ) ;
#44 = DIRECTION ( 'NONE',  ( 1.000000000000000000, 0.000000000000000000, 0.000000000000000000 ) ) ;
#45 = DIRECTION ( 'NONE',  ( 0.000000000000000000, 0.000000000000000000, 1.000000000000000000 ) ) ;
#46 = CARTESIAN_POINT ( 'NONE',  ( 32.30000000000001137, 58.73527075499401917, 0.000000000000000000 ) ) ;
#47 = LINE ( 'NONE', #141, #990 ) ;
#48 = PLANE ( 'NONE',  #931 ) ;
#49 = CARTESIAN_POINT ( 'NONE',  ( 2.000000000000000000, 2.500000000000000000, -2.000000000000000000 ) ) ;
#50 = VECTOR ( 'NONE', #633, 1000.000000000000000 ) ;
#51 = ADVANCED_FACE ( 'NONE', ( #784 ), #698, .T. ) ;
#52 = VECTOR ( 'NONE', #847, 1000.000000000000000 ) ;
#53 = CIRCLE ( 'NONE', #836, 1.125000000000000888 ) ;
#54 = ORIENTED_EDGE ( 'NONE', *, *, #982, .T. ) ;
#55 = CARTESIAN_POINT ( 'NONE',  ( 32.30000000000000426, -1.250000000000001998, -39.30000000000000426 ) ) ;
#56 = CARTESIAN_POINT ( 'NONE',  ( -2.000000000000000000, -1.249999999999998224, -32.30000000000000426 ) ) ;
#57 = FACE_OUTER_BOUND ( 'NONE', #976, .T. ) ;
#58 = CARTESIAN_POINT ( 'NONE',  ( 0.000000000000000000, 2.500000000000000000, -32.30000000000000426 ) ) ;
#59 = EDGE_LOOP ( 'NONE', ( #254, #842, #511, #430 ) ) ;
#60 = FACE_BOUND ( 'NONE', #501, .T. ) ;
#61 = CARTESIAN_POINT ( 'NONE',  ( 6.298116734255841939E-15, 3.750000000000003553, -32.30000000000000426 ) ) ;
#62 = FACE_OUTER_BOUND ( 'NONE', #30, .T. ) ;
#63 = CALENDAR_DATE ( 2026, 24, 9 ) ;
#64 = LINE ( 'NONE', #813, #866 ) ;
#65 = ORIENTED_EDGE ( 'NONE', *, *, #280, .F. ) ;
#66 = ADVANCED_FACE ( 'NONE', ( #17 ), #597, .T. ) ;
#67 = EDGE_LOOP ( 'NONE', ( #348, #516, #406, #783 ) ) ;
#68 = EDGE_CURVE ( 'NONE', #160, #923, #774, .T. ) ;
#69 = CARTESIAN_POINT ( 'NONE',  ( 32.30000000000000426, 0.000000000000000000, -32.30000000000000426 ) ) ;
#70 = APPROVAL_STATUS ( 'not_yet_approved' ) ;
#71 = DIRECTION ( 'NONE',  ( 0.000000000000000000, 0.000000000000000000, 1.000000000000000000 ) ) ;
#72 = DIRECTION ( 'NONE',  ( 0.000000000000000000, 0.000000000000000000, -1.000000000000000000 ) ) ;
#73 = ORIENTED_EDGE ( 'NONE', *, *, #844, .T. ) ;
#74 = VECTOR ( 'NONE', #1023, 1000.000000000000000 ) ;
#75 = CONICAL_SURFACE ( 'NONE', #1058, 1.625000000000001332, 0.7853981633974447263 ) ;
#76 = VERTEX_POINT ( 'NONE', #764 ) ;
#77 = DIRECTION ( 'NONE',  ( -1.000000000000000000, 1.072287862897751958E-16, 0.000000000000000000 ) ) ;
#78 = PERSON_AND_ORGANIZATION ( #451, #417 ) ;
#79 = CARTESIAN_POINT ( 'NONE',  ( 14.09999999999999964, -1.250000000000000000, -39.30000000000000426 ) ) ;
#80 = ORIENTED_EDGE ( 'NONE', *, *, #911, .F. ) ;
#81 = ORIENTED_EDGE ( 'NONE', *, *, #733, .F. ) ;
#82 = LINE ( 'NONE', #743, #988 ) ;
#83 = ADVANCED_FACE ( 'NONE', ( #922 ), #435, .T. ) ;
#84 = PERSON_AND_ORGANIZATION ( #451, #417 ) ;
#85 = VERTEX_POINT ( 'NONE', #352 ) ;
#86 = ORIENTED_EDGE ( 'NONE', *, *, #478, .T. ) ;
#87 = CARTESIAN_POINT ( 'NONE',  ( 30.30000000000000071, 1.500000000000000000, -2.000000000000000000 ) ) ;
#88 = EDGE_CURVE ( 'NONE', #508, #488, #203, .T. ) ;
#89 = ORIENTED_EDGE ( 'NONE', *, *, #38, .F. ) ;
#90 = VERTEX_POINT ( 'NONE', #603 ) ;
#91 = VECTOR ( 'NONE', #44, 1000.000000000000000 ) ;
#92 = FACE_OUTER_BOUND ( 'NONE', #232, .T. ) ;
#93 = SECURITY_CLASSIFICATION ( '', '', #893 ) ;
#94 = ORIENTED_EDGE ( 'NONE', *, *, #156, .F. ) ;
#95 = ORIENTED_EDGE ( 'NONE', *, *, #733, .T. ) ;
#96 = PLANE ( 'NONE',  #577 ) ;
#97 = EDGE_LOOP ( 'NONE', ( #905, #502, #583, #13 ) ) ;
#98 = EDGE_LOOP ( 'NONE', ( #80, #684, #389, #816 ) ) ;
#99 = EDGE_CURVE ( 'NONE', #968, #1065, #618, .T. ) ;
#100 = LINE ( 'NONE', #685, #262 ) ;
#101 = EDGE_CURVE ( 'NONE', #339, #595, #848, .T. ) ;
#102 = CARTESIAN_POINT ( 'NONE',  ( 0.000000000000000000, 2.500000000000000000, 0.000000000000000000 ) ) ;
#103 = ORIENTED_EDGE ( 'NONE', *, *, #143, .F. ) ;
#104 = DIRECTION ( 'NONE',  ( 0.000000000000000000, 0.000000000000000000, -1.000000000000000000 ) ) ;
#105 = VECTOR ( 'NONE', #985, 1000.000000000000000 ) ;
#106 = EDGE_CURVE ( 'NONE', #495, #119, #32, .T. ) ;
#107 = CARTESIAN_POINT ( 'NONE',  ( 8.099999999999999645, 1.250000000000000000, -37.80499999999999972 ) ) ;
#108 = VECTOR ( 'NONE', #683, 1000.000000000000000 ) ;
#109 = VERTEX_POINT ( 'NONE', #365 ) ;
#110 = DIRECTION ( 'NONE',  ( -1.000000000000000000, 0.000000000000000000, 0.000000000000000000 ) ) ;
#111 = PLANE ( 'NONE',  #1017 ) ;
#112 = ADVANCED_FACE ( 'NONE', ( #686 ), #111, .T. ) ;
#113 = DIRECTION ( 'NONE',  ( 0.000000000000000000, 0.000000000000000000, 1.000000000000000000 ) ) ;
#114 = ORIENTED_EDGE ( 'NONE', *, *, #598, .F. ) ;
#115 = PLANE ( 'NONE',  #627 ) ;
#116 = PERSON_AND_ORGANIZATION ( #451, #417 ) ;
#117 = LINE ( 'NONE', #766, #34 ) ;
#118 = EDGE_CURVE ( 'NONE', #331, #5, #195, .T. ) ;
#119 = VERTEX_POINT ( 'NONE', #443 ) ;
#120 = PLANE ( 'NONE',  #475 ) ;
#121 =( GEOMETRIC_REPRESENTATION_CONTEXT ( 3 ) GLOBAL_UNCERTAINTY_ASSIGNED_CONTEXT ( ( #794 ) ) GLOBAL_UNIT_ASSIGNED_CONTEXT ( ( #123, #1035, #639 ) ) REPRESENTATION_CONTEXT ( 'NONE', 'WORKASPACE' ) );
#122 = CARTESIAN_POINT ( 'NONE',  ( 14.09999999999999964, 3.750000000000000000, -32.30000000000000426 ) ) ;
#123 =( LENGTH_UNIT ( ) NAMED_UNIT ( * ) SI_UNIT ( .MILLI., .METRE. ) );
#124 = VECTOR ( 'NONE', #323, 1000.000000000000000 ) ;
#125 = DIRECTION ( 'NONE',  ( 0.000000000000000000, 0.000000000000000000, -1.000000000000000000 ) ) ;
#126 = VERTEX_POINT ( 'NONE', #107 ) ;
#127 = FACE_BOUND ( 'NONE', #185, .T. ) ;
#128 = CC_DESIGN_DATE_AND_TIME_ASSIGNMENT ( #575, #409, ( #93 ) ) ;
#129 = DIRECTION ( 'NONE',  ( 1.072287862897752081E-16, 1.000000000000000000, 0.000000000000000000 ) ) ;
#130 = CARTESIAN_POINT ( 'NONE',  ( 1.000000000000000000, 2.500000000000000000, -31.30000000000000071 ) ) ;
#131 = PLANE ( 'NONE',  #1018 ) ;
#132 = MANIFOLD_SOLID_BREP ( 'NONE', #16 ) ;
#133 = ORIENTED_EDGE ( 'NONE', *, *, #676, .T. ) ;
#134 = APPROVAL ( #812, 'UNSPECIFIED' ) ;
#135 = CARTESIAN_POINT ( 'NONE',  ( -1.340359828622188345E-16, -1.249999999999998446, -32.30000000000000426 ) ) ;
#136 = ADVANCED_FACE ( 'NONE', ( #22 ), #555, .T. ) ;
#137 = CARTESIAN_POINT ( 'NONE',  ( 32.30000000000000426, 0.000000000000000000, 0.000000000000000000 ) ) ;
#138 = COORDINATED_UNIVERSAL_TIME_OFFSET ( 2, 0, .AHEAD. ) ;
#139 = DIRECTION ( 'NONE',  ( -1.000000000000000000, 0.000000000000000000, 0.000000000000000000 ) ) ;
#140 = EDGE_LOOP ( 'NONE', ( #36, #343 ) ) ;
#141 = CARTESIAN_POINT ( 'NONE',  ( 34.30000000000001137, 58.73527075499401917, -39.30000000000000426 ) ) ;
#142 = PLANE ( 'NONE',  #161 ) ;
#143 = EDGE_CURVE ( 'NONE', #636, #171, #359, .T. ) ;
#144 = PERSON_AND_ORGANIZATION_ROLE ( 'creator' ) ;
#145 = LINE ( 'NONE', #1063, #124 ) ;
#146 = AXIS2_PLACEMENT_3D ( 'NONE', #694, #380, #1020 ) ;
#147 = ORIENTED_EDGE ( 'NONE', *, *, #519, .T. ) ;
#148 = CARTESIAN_POINT ( 'NONE',  ( 14.09999999999999964, -1.250000000000000000, -32.30000000000000426 ) ) ;
#149 = CARTESIAN_POINT ( 'NONE',  ( 32.30000000000000426, 0.000000000000000000, 0.000000000000000000 ) ) ;
#150 = FACE_OUTER_BOUND ( 'NONE', #945, .T. ) ;
#151 = EDGE_CURVE ( 'NONE', #241, #962, #691, .T. ) ;
#152 = VERTEX_POINT ( 'NONE', #11 ) ;
#153 = CARTESIAN_POINT ( 'NONE',  ( 32.30000000000001137, 58.73527075499401917, 0.000000000000000000 ) ) ;
#154 = LINE ( 'NONE', #387, #610 ) ;
#155 = ORIENTED_EDGE ( 'NONE', *, *, #271, .F. ) ;
#156 = EDGE_CURVE ( 'NONE', #272, #562, #282, .T. ) ;
#157 = EDGE_LOOP ( 'NONE', ( #992, #334, #631, #742 ) ) ;
#158 = LINE ( 'NONE', #251, #760 ) ;
#159 = ORIENTED_EDGE ( 'NONE', *, *, #519, .F. ) ;
#160 = VERTEX_POINT ( 'NONE', #122 ) ;
#161 = AXIS2_PLACEMENT_3D ( 'NONE', #869, #396, #801 ) ;
#162 = AXIS2_PLACEMENT_3D ( 'NONE', #736, #956, #1044 ) ;
#163 = EDGE_LOOP ( 'NONE', ( #872, #659, #827, #993, #1004, #749, #924, #330, #833, #133 ) ) ;
#164 = CC_DESIGN_PERSON_AND_ORGANIZATION_ASSIGNMENT ( #84, #662, ( #837 ) ) ;
#165 = FACE_OUTER_BOUND ( 'NONE', #1026, .T. ) ;
#166 = ORIENTED_EDGE ( 'NONE', *, *, #708, .F. ) ;
#167 = LINE ( 'NONE', #341, #246 ) ;
#168 = CALENDAR_DATE ( 2026, 24, 9 ) ;
#169 = EDGE_CURVE ( 'NONE', #737, #621, #184, .T. ) ;
#170 = ORIENTED_EDGE ( 'NONE', *, *, #726, .T. ) ;
#171 = VERTEX_POINT ( 'NONE', #137 ) ;
#172 = PLANE ( 'NONE',  #835 ) ;
#173 = EDGE_CURVE ( 'NONE', #119, #253, #807, .T. ) ;
#174 = EDGE_LOOP ( 'NONE', ( #599, #86, #347, #510, #814, #939 ) ) ;
#175 = LOCAL_TIME ( 21, 25, 30.00000000000000000, #1068 ) ;
#176 = VERTEX_POINT ( 'NONE', #888 ) ;
#177 = VECTOR ( 'NONE', #617, 1000.000000000000000 ) ;
#178 = CARTESIAN_POINT ( 'NONE',  ( 30.30000000000000071, 2.500000000000000000, -30.30000000000000071 ) ) ;
#179 = EDGE_CURVE ( 'NONE', #920, #76, #39, .T. ) ;
#180 = VERTEX_POINT ( 'NONE', #377 ) ;
#181 = EDGE_CURVE ( 'NONE', #171, #325, #474, .T. ) ;
#182 = VERTEX_POINT ( 'NONE', #717 ) ;
#183 = CARTESIAN_POINT ( 'NONE',  ( 31.30000000000000071, 0.000000000000000000, -1.000000000000000000 ) ) ;
#184 = LINE ( 'NONE', #102, #91 ) ;
#185 = EDGE_LOOP ( 'NONE', ( #237, #654, #338, #471 ) ) ;
#186 = ORIENTED_EDGE ( 'NONE', *, *, #427, .F. ) ;
#187 = CARTESIAN_POINT ( 'NONE',  ( 0.000000000000000000, 0.000000000000000000, -32.30000000000000426 ) ) ;
#188 = DIRECTION ( 'NONE',  ( 1.072287862897752081E-16, 1.000000000000000000, 0.000000000000000000 ) ) ;
#189 = CARTESIAN_POINT ( 'NONE',  ( 2.000000000000000000, 2.500000000000000000, -2.000000000000000000 ) ) ;
#190 = ORIENTED_EDGE ( 'NONE', *, *, #483, .T. ) ;
#191 = EDGE_CURVE ( 'NONE', #923, #920, #462, .T. ) ;
#192 = VECTOR ( 'NONE', #208, 1000.000000000000000 ) ;
#193 = CARTESIAN_POINT ( 'NONE',  ( 4.021079485866564048E-16, 3.750000000000003553, -32.30000000000000426 ) ) ;
#194 = VECTOR ( 'NONE', #207, 1000.000000000000000 ) ;
#195 = LINE ( 'NONE', #930, #74 ) ;
#196 = APPROVAL_PERSON_ORGANIZATION ( #244, #134, #830 ) ;
#197 = FACE_OUTER_BOUND ( 'NONE', #815, .T. ) ;
#198 = VERTEX_POINT ( 'NONE', #56 ) ;
#199 = DIRECTION ( 'NONE',  ( 1.000000000000000000, 0.000000000000000000, 0.000000000000000000 ) ) ;
#200 = CARTESIAN_POINT ( 'NONE',  ( 30.30000000000000071, 1.500000000000000000, -30.30000000000000071 ) ) ;
#201 = ORIENTED_EDGE ( 'NONE', *, *, #826, .T. ) ;
#202 = PLANE ( 'NONE',  #421 ) ;
#203 = LINE ( 'NONE', #861, #539 ) ;
#204 = CARTESIAN_POINT ( 'NONE',  ( 14.09999999999999964, 3.750000000000000000, -39.30000000000000426 ) ) ;
#205 = VERTEX_POINT ( 'NONE', #788 ) ;
#206 = DIRECTION ( 'NONE',  ( 1.000000000000000000, -1.074132183267372767E-16, -0.000000000000000000 ) ) ;
#207 = DIRECTION ( 'NONE',  ( 0.000000000000000000, -1.000000000000000000, 0.000000000000000000 ) ) ;
#208 = DIRECTION ( 'NONE',  ( -1.072287862897752081E-16, -1.000000000000000000, 0.000000000000000000 ) ) ;
#209 = AXIS2_PLACEMENT_3D ( 'NONE', #1028, #221, #481 ) ;
#210 = VECTOR ( 'NONE', #480, 1000.000000000000000 ) ;
#211 = CARTESIAN_POINT ( 'NONE',  ( 0.000000000000000000, 0.000000000000000000, -39.30000000000000426 ) ) ;
#212 = ADVANCED_FACE ( 'NONE', ( #973 ), #48, .T. ) ;
#213 = DIRECTION ( 'NONE',  ( -1.000000000000000000, 0.000000000000000000, 0.000000000000000000 ) ) ;
#214 = EDGE_CURVE ( 'NONE', #877, #553, #233, .T. ) ;
#215 = DIRECTION ( 'NONE',  ( 0.000000000000000000, 0.000000000000000000, -1.000000000000000000 ) ) ;
#216 = LINE ( 'NONE', #310, #50 ) ;
#217 = FACE_OUTER_BOUND ( 'NONE', #403, .T. ) ;
#218 = CARTESIAN_POINT ( 'NONE',  ( 1.000000000000000000, 0.000000000000000000, -31.30000000000000071 ) ) ;
#219 = ORIENTED_EDGE ( 'NONE', *, *, #771, .F. ) ;
#220 = CARTESIAN_POINT ( 'NONE',  ( 1.000000000000000000, 2.500000000000000000, -31.30000000000000071 ) ) ;
#221 = DIRECTION ( 'NONE',  ( 0.000000000000000000, 0.000000000000000000, -1.000000000000000000 ) ) ;
#222 = DIRECTION ( 'NONE',  ( 1.000000000000000000, -1.072287862897752081E-16, 0.000000000000000000 ) ) ;
#223 = ORIENTED_EDGE ( 'NONE', *, *, #918, .T. ) ;
#224 = DIRECTION ( 'NONE',  ( -1.072287862897752081E-16, -1.000000000000000000, 0.000000000000000000 ) ) ;
#225 = ADVANCED_FACE ( 'NONE', ( #702 ), #638, .T. ) ;
#226 = CARTESIAN_POINT ( 'NONE',  ( 2.000000000000000000, 1.500000000000000000, -30.30000000000000071 ) ) ;
#227 = CARTESIAN_POINT ( 'NONE',  ( 0.000000000000000000, 0.000000000000000000, 0.000000000000000000 ) ) ;
#228 = CARTESIAN_POINT ( 'NONE',  ( -2.000000000000001776, 3.750000000000006661, 1.999999999999995781 ) ) ;
#229 = AXIS2_PLACEMENT_3D ( 'NONE', #314, #892, #910 ) ;
#230 = VECTOR ( 'NONE', #786, 1000.000000000000000 ) ;
#231 = AXIS2_PLACEMENT_3D ( 'NONE', #204, #795, #870 ) ;
#232 = EDGE_LOOP ( 'NONE', ( #712, #832, #593, #242 ) ) ;
#233 = LINE ( 'NONE', #563, #677 ) ;
#234 = SHAPE_DEFINITION_REPRESENTATION ( #276, #890 ) ;
#235 = CARTESIAN_POINT ( 'NONE',  ( -1.340359828622188345E-16, -1.249999999999998446, -32.30000000000000426 ) ) ;
#236 = ORIENTED_EDGE ( 'NONE', *, *, #598, .T. ) ;
#237 = ORIENTED_EDGE ( 'NONE', *, *, #88, .F. ) ;
#238 = DIRECTION ( 'NONE',  ( -1.000000000000000000, 1.072287862897751958E-16, 0.000000000000000000 ) ) ;
#239 = DATE_TIME_ROLE ( 'creation_date' ) ;
#240 = DIRECTION ( 'NONE',  ( 0.000000000000000000, 0.000000000000000000, -1.000000000000000000 ) ) ;
#241 = VERTEX_POINT ( 'NONE', #874 ) ;
#242 = ORIENTED_EDGE ( 'NONE', *, *, #467, .T. ) ;
#243 = CARTESIAN_POINT ( 'NONE',  ( 32.30000000000000426, -1.250000000000001998, 0.000000000000000000 ) ) ;
#244 = PERSON_AND_ORGANIZATION ( #451, #417 ) ;
#245 = VERTEX_POINT ( 'NONE', #953 ) ;
#246 = VECTOR ( 'NONE', #750, 1000.000000000000000 ) ;
#247 = AXIS2_PLACEMENT_3D ( 'NONE', #354, #382, #224 ) ;
#248 = ADVANCED_FACE ( 'NONE', ( #304 ), #781, .F. ) ;
#249 = DIRECTION ( 'NONE',  ( 1.000000000000000000, -1.084202172485504434E-16, -0.000000000000000000 ) ) ;
#250 = VERTEX_POINT ( 'NONE', #384 ) ;
#251 = CARTESIAN_POINT ( 'NONE',  ( 8.099999999999999645, 1.250000000000000000, -38.30499999999999972 ) ) ;
#252 = PERSON_AND_ORGANIZATION_ROLE ( 'design_supplier' ) ;
#253 = VERTEX_POINT ( 'NONE', #291 ) ;
#254 = ORIENTED_EDGE ( 'NONE', *, *, #1060, .T. ) ;
#255 = LINE ( 'NONE', #589, #455 ) ;
#256 = EDGE_CURVE ( 'NONE', #109, #508, #216, .T. ) ;
#257 = DIRECTION ( 'NONE',  ( -0.000000000000000000, -0.000000000000000000, -1.000000000000000000 ) ) ;
#258 = DIRECTION ( 'NONE',  ( -1.000000000000000000, 0.000000000000000000, 0.000000000000000000 ) ) ;
#259 = EDGE_LOOP ( 'NONE', ( #515, #412, #767, #324, #856 ) ) ;
#260 = ORIENTED_EDGE ( 'NONE', *, *, #151, .F. ) ;
#261 = AXIS2_PLACEMENT_3D ( 'NONE', #432, #926, #287 ) ;
#262 = VECTOR ( 'NONE', #279, 1000.000000000000000 ) ;
#263 = CARTESIAN_POINT ( 'NONE',  ( 32.30000000000000426, 3.750000000000003553, 0.000000000000000000 ) ) ;
#264 = DIRECTION ( 'NONE',  ( 1.000000000000000000, -1.072287862897752081E-16, 0.000000000000000000 ) ) ;
#265 = ORIENTED_EDGE ( 'NONE', *, *, #191, .T. ) ;
#266 = ORIENTED_EDGE ( 'NONE', *, *, #901, .T. ) ;
#267 = APPLICATION_CONTEXT ( 'configuration controlled 3d designs of mechanical parts and assemblies' ) ;
#268 = LINE ( 'NONE', #513, #1055 ) ;
#269 = DIRECTION ( 'NONE',  ( -1.000000000000000000, 0.000000000000000000, 0.000000000000000000 ) ) ;
#270 = CARTESIAN_POINT ( 'NONE',  ( 14.09999999999999964, 3.750000000000000000, -32.30000000000000426 ) ) ;
#271 = EDGE_CURVE ( 'NONE', #253, #772, #947, .T. ) ;
#272 = VERTEX_POINT ( 'NONE', #542 ) ;
#273 = LINE ( 'NONE', #613, #405 ) ;
#274 = CARTESIAN_POINT ( 'NONE',  ( 8.099999999999999645, 1.250000000000000000, -36.67999999999999972 ) ) ;
#275 = PLANE ( 'NONE',  #436 ) ;
#276 = PRODUCT_DEFINITION_SHAPE ( 'NONE', 'NONE',  #838 ) ;
#277 = VERTEX_POINT ( 'NONE', #1053 ) ;
#278 = VECTOR ( 'NONE', #1012, 1000.000000000000000 ) ;
#279 = DIRECTION ( 'NONE',  ( 0.000000000000000000, -1.000000000000000000, 0.000000000000000000 ) ) ;
#280 = EDGE_CURVE ( 'NONE', #5, #752, #551, .T. ) ;
#281 = VECTOR ( 'NONE', #855, 1000.000000000000114 ) ;
#282 = LINE ( 'NONE', #937, #969 ) ;
#283 = DIRECTION ( 'NONE',  ( 1.000000000000000000, 0.000000000000000000, 0.000000000000000000 ) ) ;
#284 = ORIENTED_EDGE ( 'NONE', *, *, #214, .T. ) ;
#285 = CARTESIAN_POINT ( 'NONE',  ( 13.59999999999999964, 1.250000000000000000, -36.67999999999999972 ) ) ;
#286 = ADVANCED_FACE ( 'NONE', ( #880 ), #142, .F. ) ;
#287 = DIRECTION ( 'NONE',  ( 0.000000000000000000, 0.000000000000000000, -1.000000000000000000 ) ) ;
#288 = DIRECTION ( 'NONE',  ( -1.000000000000000000, 0.000000000000000000, 0.000000000000000000 ) ) ;
#289 = ORIENTED_EDGE ( 'NONE', *, *, #879, .T. ) ;
#290 = CARTESIAN_POINT ( 'NONE',  ( -7.703719777548943412E-31, 0.000000000000000000, 0.000000000000000000 ) ) ;
#291 = CARTESIAN_POINT ( 'NONE',  ( 2.000000000000000000, 1.500000000000000000, -2.000000000000000000 ) ) ;
#292 = EDGE_CURVE ( 'NONE', #636, #8, #391, .T. ) ;
#293 = CARTESIAN_POINT ( 'NONE',  ( 14.09999999999999964, 1.250000000000000000, -38.80499999999999972 ) ) ;
#294 = FACE_OUTER_BOUND ( 'NONE', #67, .T. ) ;
#295 = ADVANCED_FACE ( 'NONE', ( #62 ), #728, .T. ) ;
#296 = CARTESIAN_POINT ( 'NONE',  ( -7.703719777548943412E-31, 0.000000000000000000, -32.30000000000000426 ) ) ;
#297 = CARTESIAN_POINT ( 'NONE',  ( 8.099999999999999645, 1.250000000000000000, -35.05499999999999972 ) ) ;
#298 = CARTESIAN_POINT ( 'NONE',  ( 6.298111795459336914E-15, 58.73527075499401917, -32.30000000000000426 ) ) ;
#299 = VECTOR ( 'NONE', #655, 1000.000000000000000 ) ;
#300 = CARTESIAN_POINT ( 'NONE',  ( 0.000000000000000000, 0.000000000000000000, 0.000000000000000000 ) ) ;
#301 = AXIS2_PLACEMENT_3D ( 'NONE', #673, #441, #514 ) ;
#302 = LINE ( 'NONE', #402, #748 ) ;
#303 = CARTESIAN_POINT ( 'NONE',  ( 32.30000000000000426, 3.750000000000000000, -32.30000000000000426 ) ) ;
#304 = FACE_OUTER_BOUND ( 'NONE', #381, .T. ) ;
#305 = CARTESIAN_POINT ( 'NONE',  ( 6.298111795459336914E-15, 58.73527075499401917, 0.000000000000000000 ) ) ;
#306 = DIRECTION ( 'NONE',  ( 1.000000000000000000, 0.000000000000000000, 0.000000000000000000 ) ) ;
#307 = ORIENTED_EDGE ( 'NONE', *, *, #445, .F. ) ;
#308 = EDGE_CURVE ( 'NONE', #877, #962, #660, .T. ) ;
#309 = DIRECTION ( 'NONE',  ( 0.000000000000000000, -1.000000000000000000, 0.000000000000000000 ) ) ;
#310 = CARTESIAN_POINT ( 'NONE',  ( 30.30000000000000071, 2.500000000000000000, -2.000000000000000000 ) ) ;
#311 = CARTESIAN_POINT ( 'NONE',  ( 1.000000000000000000, 0.000000000000000000, -31.30000000000000071 ) ) ;
#312 = CARTESIAN_POINT ( 'NONE',  ( 32.30000000000000426, -1.250000000000001998, 0.000000000000000000 ) ) ;
#313 = ORIENTED_EDGE ( 'NONE', *, *, #901, .F. ) ;
#314 = CARTESIAN_POINT ( 'NONE',  ( 8.099999999999999645, 1.250000000000000000, -36.67999999999999972 ) ) ;
#315 = LINE ( 'NONE', #646, #523 ) ;
#316 = PLANE ( 'NONE',  #383 ) ;
#317 = VECTOR ( 'NONE', #666, 1000.000000000000000 ) ;
#318 = AXIS2_PLACEMENT_3D ( 'NONE', #285, #1007, #935 ) ;
#319 = CC_DESIGN_APPROVAL ( #452, ( #838 ) ) ;
#320 = ORIENTED_EDGE ( 'NONE', *, *, #68, .T. ) ;
#321 = ORIENTED_EDGE ( 'NONE', *, *, #173, .F. ) ;
#322 = LINE ( 'NONE', #995, #473 ) ;
#323 = DIRECTION ( 'NONE',  ( 0.000000000000000000, 0.000000000000000000, 1.000000000000000000 ) ) ;
#324 = ORIENTED_EDGE ( 'NONE', *, *, #179, .T. ) ;
#325 = VERTEX_POINT ( 'NONE', #69 ) ;
#326 = CARTESIAN_POINT ( 'NONE',  ( 2.000000000000000000, 1.500000000000000000, -2.000000000000000000 ) ) ;
#327 = APPROVAL_DATE_TIME ( #333, #379 ) ;
#328 = CC_DESIGN_DATE_AND_TIME_ASSIGNMENT ( #570, #239, ( #838 ) ) ;
#329 = ADVANCED_FACE ( 'NONE', ( #496, #492 ), #172, .F. ) ;
#330 = ORIENTED_EDGE ( 'NONE', *, *, #867, .T. ) ;
#331 = VERTEX_POINT ( 'NONE', #897 ) ;
#332 = LINE ( 'NONE', #326, #299 ) ;
#333 = DATE_AND_TIME ( #168, #175 ) ;
#334 = ORIENTED_EDGE ( 'NONE', *, *, #585, .T. ) ;
#335 = CIRCLE ( 'NONE', #716, 2.125000000000001776 ) ;
#336 = EDGE_CURVE ( 'NONE', #277, #1070, #322, .T. ) ;
#337 = DIRECTION ( 'NONE',  ( 0.000000000000000000, 1.000000000000000000, 0.000000000000000000 ) ) ;
#338 = ORIENTED_EDGE ( 'NONE', *, *, #983, .F. ) ;
#339 = VERTEX_POINT ( 'NONE', #1061 ) ;
#340 = EDGE_CURVE ( 'NONE', #90, #689, #650, .T. ) ;
#341 = CARTESIAN_POINT ( 'NONE',  ( -1.999999999999993561, 58.73527075499401917, -32.30000000000000426 ) ) ;
#342 = ORIENTED_EDGE ( 'NONE', *, *, #491, .F. ) ;
#343 = ORIENTED_EDGE ( 'NONE', *, *, #1021, .T. ) ;
#344 = CARTESIAN_POINT ( 'NONE',  ( 2.000000000000000000, 2.500000000000000000, -30.30000000000000071 ) ) ;
#345 = EDGE_CURVE ( 'NONE', #595, #160, #401, .T. ) ;
#346 = DIRECTION ( 'NONE',  ( 1.000000000000000000, -9.531447670202239898E-17, 0.000000000000000000 ) ) ;
#347 = ORIENTED_EDGE ( 'NONE', *, *, #929, .T. ) ;
#348 = ORIENTED_EDGE ( 'NONE', *, *, #101, .T. ) ;
#349 = AXIS2_PLACEMENT_3D ( 'NONE', #153, #824, #740 ) ;
#350 = VECTOR ( 'NONE', #378, 1000.000000000000000 ) ;
#351 = CARTESIAN_POINT ( 'NONE',  ( 2.000000000000000000, 1.500000000000000000, -30.30000000000000071 ) ) ;
#352 = CARTESIAN_POINT ( 'NONE',  ( 13.59999999999999964, 1.250000000000000000, -35.05499999999999972 ) ) ;
#353 = EDGE_LOOP ( 'NONE', ( #94, #652, #9, #957 ) ) ;
#354 = CARTESIAN_POINT ( 'NONE',  ( 32.30000000000001137, 58.73527075499401917, -39.30000000000000426 ) ) ;
#355 = DIRECTION ( 'NONE',  ( -1.000000000000000000, 1.072287862897752081E-16, 0.000000000000000000 ) ) ;
#356 = PLANE ( 'NONE',  #2 ) ;
#357 = ORIENTED_EDGE ( 'NONE', *, *, #958, .F. ) ;
#358 = CARTESIAN_POINT ( 'NONE',  ( 2.680719657244373238E-16, 2.500000000000002220, -32.30000000000000426 ) ) ;
#359 = LINE ( 'NONE', #941, #987 ) ;
#360 = ORIENTED_EDGE ( 'NONE', *, *, #580, .F. ) ;
#361 = CC_DESIGN_SECURITY_CLASSIFICATION ( #93, ( #837 ) ) ;
#362 = VECTOR ( 'NONE', #7, 1000.000000000000000 ) ;
#363 = CARTESIAN_POINT ( 'NONE',  ( 31.30000000000000071, 1.500000000000000000, -31.30000000000000071 ) ) ;
#364 = VECTOR ( 'NONE', #269, 1000.000000000000000 ) ;
#365 = CARTESIAN_POINT ( 'NONE',  ( 30.30000000000000071, 2.500000000000000000, -2.000000000000000000 ) ) ;
#366 = FACE_BOUND ( 'NONE', #641, .T. ) ;
#367 = APPROVAL_PERSON_ORGANIZATION ( #486, #379, #908 ) ;
#368 = CARTESIAN_POINT ( 'NONE',  ( 14.09999999999999964, 1.250000000000000000, -36.67999999999999972 ) ) ;
#369 = EDGE_LOOP ( 'NONE', ( #909, #1051, #399, #587 ) ) ;
#370 = CC_DESIGN_PERSON_AND_ORGANIZATION_ASSIGNMENT ( #116, #144, ( #838 ) ) ;
#371 = DIRECTION ( 'NONE',  ( -1.000000000000000000, 0.000000000000000000, 0.000000000000000000 ) ) ;
#372 = EDGE_CURVE ( 'NONE', #996, #277, #158, .T. ) ;
#373 = DIRECTION ( 'NONE',  ( 0.000000000000000000, 0.000000000000000000, 1.000000000000000000 ) ) ;
#374 = DIRECTION ( 'NONE',  ( 0.000000000000000000, 0.000000000000000000, 1.000000000000000000 ) ) ;
#375 = EDGE_LOOP ( 'NONE', ( #730, #420, #479, #425 ) ) ;
#376 = PLANE ( 'NONE',  #1039 ) ;
#377 = CARTESIAN_POINT ( 'NONE',  ( 31.30000000000000071, 1.500000000000000000, -31.30000000000000071 ) ) ;
#378 = DIRECTION ( 'NONE',  ( -1.072287862897752081E-16, -1.000000000000000000, 0.000000000000000000 ) ) ;
#379 = APPROVAL ( #70, 'UNSPECIFIED' ) ;
#380 = DIRECTION ( 'NONE',  ( 1.000000000000000000, 0.000000000000000000, 0.000000000000000000 ) ) ;
#381 = EDGE_LOOP ( 'NONE', ( #588, #155, #321, #648 ) ) ;
#382 = DIRECTION ( 'NONE',  ( -1.000000000000000000, 1.072287862897752081E-16, 0.000000000000000000 ) ) ;
#383 = AXIS2_PLACEMENT_3D ( 'NONE', #46, #72, #213 ) ;
#384 = CARTESIAN_POINT ( 'NONE',  ( -1.999999999999999556, 3.750000000000003553, -32.30000000000000426 ) ) ;
#385 = VECTOR ( 'NONE', #853, 1000.000000000000000 ) ;
#386 = CIRCLE ( 'NONE', #799, 2.125000000000001776 ) ;
#387 = CARTESIAN_POINT ( 'NONE',  ( 31.30000000000000071, 1.500000000000000000, -1.000000000000000000 ) ) ;
#388 = EDGE_CURVE ( 'NONE', #182, #339, #979, .T. ) ;
#389 = ORIENTED_EDGE ( 'NONE', *, *, #19, .F. ) ;
#390 = DIRECTION ( 'NONE',  ( 0.000000000000000000, 0.000000000000000000, -1.000000000000000000 ) ) ;
#391 = LINE ( 'NONE', #722, #864 ) ;
#392 = CARTESIAN_POINT ( 'NONE',  ( -2.000000000000000000, -1.249999999999998224, 1.999999999999995781 ) ) ;
#393 = ORIENTED_EDGE ( 'NONE', *, *, #964, .F. ) ;
#394 = ADVANCED_FACE ( 'NONE', ( #165 ), #734, .T. ) ;
#395 = DIRECTION ( 'NONE',  ( 1.000000000000000000, 0.000000000000000000, 0.000000000000000000 ) ) ;
#396 = DIRECTION ( 'NONE',  ( 0.000000000000000000, 0.000000000000000000, -1.000000000000000000 ) ) ;
#397 = CALENDAR_DATE ( 2026, 24, 9 ) ;
#398 = LINE ( 'NONE', #58, #735 ) ;
#399 = ORIENTED_EDGE ( 'NONE', *, *, #489, .T. ) ;
#400 = ORIENTED_EDGE ( 'NONE', *, *, #181, .F. ) ;
#401 = LINE ( 'NONE', #834, #798 ) ;
#402 = CARTESIAN_POINT ( 'NONE',  ( 14.09999999999999964, 3.750000000000000000, -32.30000000000000426 ) ) ;
#403 = EDGE_LOOP ( 'NONE', ( #320, #797, #568, #147, #223, #744, #284, #653, #186, #490 ) ) ;
#404 = AXIS2_PLACEMENT_3D ( 'NONE', #438, #264, #188 ) ;
#405 = VECTOR ( 'NONE', #437, 1000.000000000000000 ) ;
#406 = ORIENTED_EDGE ( 'NONE', *, *, #756, .T. ) ;
#407 = ADVANCED_FACE ( 'NONE', ( #92 ), #1067, .F. ) ;
#408 = CARTESIAN_POINT ( 'NONE',  ( -1.999999999999993561, 58.73527075499401917, 1.999999999999995781 ) ) ;
#409 = DATE_TIME_ROLE ( 'classification_date' ) ;
#410 = EDGE_CURVE ( 'NONE', #253, #465, #332, .T. ) ;
#411 = EDGE_LOOP ( 'NONE', ( #65, #810, #1064, #1056 ) ) ;
#412 = ORIENTED_EDGE ( 'NONE', *, *, #169, .T. ) ;
#413 = DIRECTION ( 'NONE',  ( 1.000000000000000000, 0.000000000000000000, 0.000000000000000000 ) ) ;
#414 = EDGE_CURVE ( 'NONE', #495, #508, #1071, .T. ) ;
#415 = VERTEX_POINT ( 'NONE', #243 ) ;
#416 = CARTESIAN_POINT ( 'NONE',  ( 0.000000000000000000, 1.500000000000000000, 0.000000000000000000 ) ) ;
#417 = ORGANIZATION ( 'UNSPECIFIED', 'UNSPECIFIED', '' ) ;
#418 = EDGE_CURVE ( 'NONE', #198, #752, #82, .T. ) ;
#419 = AXIS2_PLACEMENT_3D ( 'NONE', #79, #1069, #657 ) ;
#420 = ORIENTED_EDGE ( 'NONE', *, *, #580, .T. ) ;
#421 = AXIS2_PLACEMENT_3D ( 'NONE', #1047, #800, #534 ) ;
#422 = VECTOR ( 'NONE', #139, 1000.000000000000000 ) ;
#423 = ORIENTED_EDGE ( 'NONE', *, *, #826, .F. ) ;
#424 = CARTESIAN_POINT ( 'NONE',  ( 30.30000000000000071, 1.500000000000000000, -30.30000000000000071 ) ) ;
#425 = ORIENTED_EDGE ( 'NONE', *, *, #340, .F. ) ;
#426 = ORIENTED_EDGE ( 'NONE', *, *, #567, .F. ) ;
#427 = EDGE_CURVE ( 'NONE', #595, #205, #581, .T. ) ;
#428 = DIRECTION ( 'NONE',  ( 0.000000000000000000, 0.000000000000000000, 1.000000000000000000 ) ) ;
#429 = ORIENTED_EDGE ( 'NONE', *, *, #500, .T. ) ;
#430 = ORIENTED_EDGE ( 'NONE', *, *, #410, .T. ) ;
#431 = DIRECTION ( 'NONE',  ( 0.000000000000000000, 1.000000000000000000, 0.000000000000000000 ) ) ;
#432 = CARTESIAN_POINT ( 'NONE',  ( 13.59999999999999964, 1.250000000000000000, -36.67999999999999972 ) ) ;
#433 = LINE ( 'NONE', #439, #281 ) ;
#434 = ORIENTED_EDGE ( 'NONE', *, *, #308, .T. ) ;
#435 = CONICAL_SURFACE ( 'NONE', #261, 1.625000000000001332, 0.7853981633974447263 ) ;
#436 = AXIS2_PLACEMENT_3D ( 'NONE', #211, #113, #283 ) ;
#437 = DIRECTION ( 'NONE',  ( -1.072287862897752081E-16, -1.000000000000000000, 0.000000000000000000 ) ) ;
#438 = CARTESIAN_POINT ( 'NONE',  ( 34.30000000000001137, 58.73527075499401917, -39.30000000000000426 ) ) ;
#439 = CARTESIAN_POINT ( 'NONE',  ( 13.59999999999999964, 1.250000000000000000, -35.05499999999999972 ) ) ;
#440 = ORIENTED_EDGE ( 'NONE', *, *, #858, .F. ) ;
#441 = DIRECTION ( 'NONE',  ( 1.000000000000000000, 0.000000000000000000, 0.000000000000000000 ) ) ;
#442 = PRODUCT ( 'geam', 'geam', '', ( #699 ) ) ;
#443 = CARTESIAN_POINT ( 'NONE',  ( 2.000000000000000000, 1.500000000000000000, -30.30000000000000071 ) ) ;
#444 = DIRECTION ( 'NONE',  ( 0.000000000000000000, 0.000000000000000000, -1.000000000000000000 ) ) ;
#445 = EDGE_CURVE ( 'NONE', #250, #198, #167, .T. ) ;
#446 = EDGE_LOOP ( 'NONE', ( #865, #895, #822, #898 ) ) ;
#447 = CARTESIAN_POINT ( 'NONE',  ( 2.000000000000000000, 1.500000000000000000, -2.000000000000000000 ) ) ;
#448 = CARTESIAN_POINT ( 'NONE',  ( -1.999999999999993561, 58.73527075499401917, -32.30000000000000426 ) ) ;
#449 = DIRECTION ( 'NONE',  ( 0.000000000000000000, 0.000000000000000000, 1.000000000000000000 ) ) ;
#450 = LINE ( 'NONE', #1019, #108 ) ;
#451 = PERSON ( 'UNSPECIFIED', 'UNSPECIFIED', 'UNSPECIFIED', ('UNSPECIFIED'), ('UNSPECIFIED'), ('UNSPECIFIED') ) ;
#452 = APPROVAL ( #546, 'UNSPECIFIED' ) ;
#453 = EDGE_LOOP ( 'NONE', ( #533, #604, #561, #713 ) ) ;
#454 = LOCAL_TIME ( 21, 25, 30.00000000000000000, #741 ) ;
#455 = VECTOR ( 'NONE', #928, 1000.000000000000000 ) ;
#456 = CARTESIAN_POINT ( 'NONE',  ( 14.09999999999999964, 3.750000000000000000, -39.30000000000000426 ) ) ;
#457 = AXIS2_PLACEMENT_3D ( 'NONE', #871, #933, #125 ) ;
#458 = CARTESIAN_POINT ( 'NONE',  ( 6.298111795459336914E-15, 58.73527075499401917, -32.30000000000000426 ) ) ;
#459 = DIRECTION ( 'NONE',  ( 0.000000000000000000, 0.000000000000000000, 1.000000000000000000 ) ) ;
#460 = VERTEX_POINT ( 'NONE', #499 ) ;
#461 = FACE_OUTER_BOUND ( 'NONE', #174, .T. ) ;
#462 = LINE ( 'NONE', #793, #592 ) ;
#463 = DIRECTION ( 'NONE',  ( 0.000000000000000000, 0.000000000000000000, 1.000000000000000000 ) ) ;
#464 = DIRECTION ( 'NONE',  ( 1.000000000000000000, 0.000000000000000000, 0.000000000000000000 ) ) ;
#465 = VERTEX_POINT ( 'NONE', #746 ) ;
#466 = CARTESIAN_POINT ( 'NONE',  ( 8.099999999999999645, 1.250000000000000000, -36.67999999999999972 ) ) ;
#467 = EDGE_CURVE ( 'NONE', #465, #109, #829, .T. ) ;
#468 = CARTESIAN_POINT ( 'NONE',  ( 0.000000000000000000, 2.500000000000000000, -32.30000000000000426 ) ) ;
#469 = CALENDAR_DATE ( 2026, 24, 9 ) ;
#470 = LINE ( 'NONE', #49, #775 ) ;
#471 = ORIENTED_EDGE ( 'NONE', *, *, #906, .F. ) ;
#472 = DIRECTION ( 'NONE',  ( -1.072287862897752081E-16, -1.000000000000000000, 0.000000000000000000 ) ) ;
#473 = VECTOR ( 'NONE', #503, 1000.000000000000114 ) ;
#474 = LINE ( 'NONE', #149, #33 ) ;
#475 = AXIS2_PLACEMENT_3D ( 'NONE', #715, #309, #215 ) ;
#476 = DIRECTION ( 'NONE',  ( 0.000000000000000000, 0.000000000000000000, 1.000000000000000000 ) ) ;
#477 = DIRECTION ( 'NONE',  ( 1.000000000000000000, 0.000000000000000000, 1.196634779751784481E-16 ) ) ;
#478 = EDGE_CURVE ( 'NONE', #331, #76, #671, .T. ) ;
#479 = ORIENTED_EDGE ( 'NONE', *, *, #612, .F. ) ;
#480 = DIRECTION ( 'NONE',  ( 0.000000000000000000, -1.000000000000000000, 0.000000000000000000 ) ) ;
#481 = DIRECTION ( 'NONE',  ( 0.000000000000000000, -1.000000000000000000, 0.000000000000000000 ) ) ;
#482 = DIRECTION ( 'NONE',  ( 0.000000000000000000, 0.000000000000000000, 1.000000000000000000 ) ) ;
#483 = EDGE_CURVE ( 'NONE', #460, #522, #255, .T. ) ;
#484 = ORIENTED_EDGE ( 'NONE', *, *, #156, .T. ) ;
#485 = CARTESIAN_POINT ( 'NONE',  ( 30.30000000000000071, 1.500000000000000000, -2.000000000000000000 ) ) ;
#486 = PERSON_AND_ORGANIZATION ( #451, #417 ) ;
#487 = LINE ( 'NONE', #235, #885 ) ;
#488 = VERTEX_POINT ( 'NONE', #344 ) ;
#489 = EDGE_CURVE ( 'NONE', #126, #996, #1011, .T. ) ;
#490 = ORIENTED_EDGE ( 'NONE', *, *, #345, .T. ) ;
#491 = EDGE_CURVE ( 'NONE', #180, #176, #1015, .T. ) ;
#492 = FACE_OUTER_BOUND ( 'NONE', #353, .T. ) ;
#493 = CONICAL_SURFACE ( 'NONE', #146, 1.125000000000000888, 0.7853981633974476129 ) ;
#494 = VECTOR ( 'NONE', #882, 1000.000000000000000 ) ;
#495 = VERTEX_POINT ( 'NONE', #845 ) ;
#496 = FACE_BOUND ( 'NONE', #59, .T. ) ;
#497 = CALENDAR_DATE ( 2026, 24, 9 ) ;
#498 = ORIENTED_EDGE ( 'NONE', *, *, #879, .F. ) ;
#499 = CARTESIAN_POINT ( 'NONE',  ( 31.30000000000000071, 1.500000000000000000, -1.000000000000000000 ) ) ;
#500 = EDGE_CURVE ( 'NONE', #562, #1065, #100, .T. ) ;
#501 = EDGE_LOOP ( 'NONE', ( #95, #201 ) ) ;
#502 = ORIENTED_EDGE ( 'NONE', *, *, #181, .T. ) ;
#503 = DIRECTION ( 'NONE',  ( 0.7071067811865505703, 0.000000000000000000, -0.7071067811865444641 ) ) ;
#504 = LOCAL_TIME ( 21, 25, 30.00000000000000000, #966 ) ;
#505 = EDGE_LOOP ( 'NONE', ( #426, #1073, #81, #725 ) ) ;
#506 = VECTOR ( 'NONE', #622, 1000.000000000000000 ) ;
#507 = VECTOR ( 'NONE', #875, 1000.000000000000000 ) ;
#508 = VERTEX_POINT ( 'NONE', #178 ) ;
#509 = DIRECTION ( 'NONE',  ( -1.000000000000000000, 9.531447670202239898E-17, 0.000000000000000000 ) ) ;
#510 = ORIENTED_EDGE ( 'NONE', *, *, #345, .F. ) ;
#511 = ORIENTED_EDGE ( 'NONE', *, *, #173, .T. ) ;
#512 = CC_DESIGN_PERSON_AND_ORGANIZATION_ASSIGNMENT ( #820, #825, ( #93 ) ) ;
#513 = CARTESIAN_POINT ( 'NONE',  ( 34.30000000000000426, 3.750000000000003553, -39.30000000000000426 ) ) ;
#514 = DIRECTION ( 'NONE',  ( 0.000000000000000000, 0.000000000000000000, -1.000000000000000000 ) ) ;
#515 = ORIENTED_EDGE ( 'NONE', *, *, #964, .T. ) ;
#516 = ORIENTED_EDGE ( 'NONE', *, *, #427, .T. ) ;
#517 = EDGE_CURVE ( 'NONE', #180, #272, #31, .T. ) ;
#518 = FACE_OUTER_BOUND ( 'NONE', #375, .T. ) ;
#519 = EDGE_CURVE ( 'NONE', #999, #1010, #857, .T. ) ;
#520 = CARTESIAN_POINT ( 'NONE',  ( 1.000000000000000000, 0.000000000000000000, -1.000000000000000000 ) ) ;
#521 = VECTOR ( 'NONE', #1016, 1000.000000000000000 ) ;
#522 = VERTEX_POINT ( 'NONE', #183 ) ;
#523 = VECTOR ( 'NONE', #482, 1000.000000000000000 ) ;
#524 = AXIS2_PLACEMENT_3D ( 'NONE', #719, #222, #967 ) ;
#525 = DIRECTION ( 'NONE',  ( 0.000000000000000000, -1.000000000000000000, 0.000000000000000000 ) ) ;
#526 = CARTESIAN_POINT ( 'NONE',  ( 14.09999999999999964, 3.750000000000000000, -39.30000000000000426 ) ) ;
#527 = CC_DESIGN_PERSON_AND_ORGANIZATION_ASSIGNMENT ( #78, #252, ( #837 ) ) ;
#528 = LINE ( 'NONE', #1031, #850 ) ;
#529 = CARTESIAN_POINT ( 'NONE',  ( 31.30000000000000071, 2.500000000000000000, -31.30000000000000071 ) ) ;
#530 = DIRECTION ( 'NONE',  ( 0.000000000000000000, 0.000000000000000000, 1.000000000000000000 ) ) ;
#531 = ADVANCED_FACE ( 'NONE', ( #596 ), #852, .T. ) ;
#532 = CARTESIAN_POINT ( 'NONE',  ( 0.000000000000000000, 0.000000000000000000, -32.30000000000000426 ) ) ;
#533 = ORIENTED_EDGE ( 'NONE', *, *, #983, .T. ) ;
#534 = DIRECTION ( 'NONE',  ( -1.072287862897752081E-16, -1.000000000000000000, 0.000000000000000000 ) ) ;
#535 = DIRECTION ( 'NONE',  ( 1.000000000000000000, 0.000000000000000000, 0.000000000000000000 ) ) ;
#536 = DIRECTION ( 'NONE',  ( 0.000000000000000000, 0.000000000000000000, -1.000000000000000000 ) ) ;
#537 = EDGE_CURVE ( 'NONE', #119, #488, #1000, .T. ) ;
#538 = ORIENTED_EDGE ( 'NONE', *, *, #280, .T. ) ;
#539 = VECTOR ( 'NONE', #1008, 1000.000000000000000 ) ;
#540 = CARTESIAN_POINT ( 'NONE',  ( 32.30000000000000426, 2.500000000000002220, 0.000000000000000000 ) ) ;
#541 = CIRCLE ( 'NONE', #318, 1.625000000000001332 ) ;
#542 = CARTESIAN_POINT ( 'NONE',  ( 1.000000000000000000, 1.500000000000000000, -31.30000000000000071 ) ) ;
#543 = CARTESIAN_POINT ( 'NONE',  ( -1.340359828622188345E-16, -1.249999999999998446, 0.000000000000000000 ) ) ;
#544 = LINE ( 'NONE', #220, #210 ) ;
#545 = DIRECTION ( 'NONE',  ( 0.000000000000000000, 1.000000000000000000, 0.000000000000000000 ) ) ;
#546 = APPROVAL_STATUS ( 'not_yet_approved' ) ;
#547 = CARTESIAN_POINT ( 'NONE',  ( 34.24170685429679395, 58.73527075499401917, 2.000000000000000000 ) ) ;
#548 = VERTEX_POINT ( 'NONE', #358 ) ;
#549 = DIRECTION ( 'NONE',  ( 0.000000000000000000, 0.000000000000000000, -1.000000000000000000 ) ) ;
#550 = EDGE_CURVE ( 'NONE', #152, #999, #759, .T. ) ;
#551 = LINE ( 'NONE', #458, #192 ) ;
#552 = CARTESIAN_POINT ( 'NONE',  ( 8.599999999999999645, 1.250000000000000000, -36.67999999999999972 ) ) ;
#553 = VERTEX_POINT ( 'NONE', #602 ) ;
#554 = CARTESIAN_POINT ( 'NONE',  ( 14.09999999999999964, -1.250000000000000000, -39.30000000000000426 ) ) ;
#555 = CONICAL_SURFACE ( 'NONE', #625, 1.125000000000000888, 0.7853981633974476129 ) ;
#556 = DIRECTION ( 'NONE',  ( -1.072287862897752081E-16, -1.000000000000000000, 0.000000000000000000 ) ) ;
#557 = VECTOR ( 'NONE', #790, 1000.000000000000000 ) ;
#558 = PLANE ( 'NONE',  #972 ) ;
#559 = CIRCLE ( 'NONE', #914, 1.125000000000000888 ) ;
#560 = CARTESIAN_POINT ( 'NONE',  ( 1.057219487128066227E-15, 3.750000000000003553, -32.30000000000000426 ) ) ;
#561 = ORIENTED_EDGE ( 'NONE', *, *, #410, .F. ) ;
#562 = VERTEX_POINT ( 'NONE', #841 ) ;
#563 = CARTESIAN_POINT ( 'NONE',  ( 34.24170685429678684, 3.750000000000003553, 2.000000000000000000 ) ) ;
#564 = LINE ( 'NONE', #651, #350 ) ;
#565 = ORIENTED_EDGE ( 'NONE', *, *, #292, .F. ) ;
#566 = CC_DESIGN_PERSON_AND_ORGANIZATION_ASSIGNMENT ( #1024, #709, ( #442 ) ) ;
#567 = EDGE_CURVE ( 'NONE', #85, #277, #1003, .T. ) ;
#568 = ORIENTED_EDGE ( 'NONE', *, *, #550, .T. ) ;
#569 = DIRECTION ( 'NONE',  ( 1.000000000000000000, 0.000000000000000000, 0.000000000000000000 ) ) ;
#570 = DATE_AND_TIME ( #497, #504 ) ;
#571 = CARTESIAN_POINT ( 'NONE',  ( 2.000000000000000000, 2.500000000000000000, -30.30000000000000071 ) ) ;
#572 = EDGE_LOOP ( 'NONE', ( #899, #668, #313, #1045 ) ) ;
#573 = VERTEX_POINT ( 'NONE', #1022 ) ;
#574 = CARTESIAN_POINT ( 'NONE',  ( 14.09999999999999964, 3.750000000000000000, -39.30000000000000426 ) ) ;
#575 = DATE_AND_TIME ( #397, #731 ) ;
#576 = VECTOR ( 'NONE', #238, 1000.000000000000000 ) ;
#577 = AXIS2_PLACEMENT_3D ( 'NONE', #768, #428, #199 ) ;
#578 = ORIENTED_EDGE ( 'NONE', *, *, #567, .T. ) ;
#579 = ORIENTED_EDGE ( 'NONE', *, *, #785, .T. ) ;
#580 = EDGE_CURVE ( 'NONE', #325, #331, #690, .T. ) ;
#581 = LINE ( 'NONE', #574, #714 ) ;
#582 = DATE_AND_TIME ( #63, #454 ) ;
#583 = ORIENTED_EDGE ( 'NONE', *, *, #711, .T. ) ;
#584 = DIRECTION ( 'NONE',  ( 0.000000000000000000, 0.000000000000000000, 1.000000000000000000 ) ) ;
#585 = EDGE_CURVE ( 'NONE', #553, #241, #273, .T. ) ;
#586 = CARTESIAN_POINT ( 'NONE',  ( 8.099999999999999645, 1.250000000000000000, -36.67999999999999972 ) ) ;
#587 = ORIENTED_EDGE ( 'NONE', *, *, #936, .F. ) ;
#588 = ORIENTED_EDGE ( 'NONE', *, *, #906, .T. ) ;
#589 = CARTESIAN_POINT ( 'NONE',  ( 31.30000000000000071, 2.500000000000000000, -1.000000000000000000 ) ) ;
#590 = FACE_OUTER_BOUND ( 'NONE', #163, .T. ) ;
#591 = VECTOR ( 'NONE', #536, 1000.000000000000000 ) ;
#592 = VECTOR ( 'NONE', #1034, 1000.000000000000000 ) ;
#593 = ORIENTED_EDGE ( 'NONE', *, *, #1060, .F. ) ;
#594 = AXIS2_PLACEMENT_3D ( 'NONE', #552, #894, #630 ) ;
#595 = VERTEX_POINT ( 'NONE', #755 ) ;
#596 = FACE_OUTER_BOUND ( 'NONE', #1066, .T. ) ;
#597 = PLANE ( 'NONE',  #609 ) ;
#598 = EDGE_CURVE ( 'NONE', #277, #85, #541, .T. ) ;
#599 = ORIENTED_EDGE ( 'NONE', *, *, #612, .T. ) ;
#600 = ADVANCED_FACE ( 'NONE', ( #518 ), #96, .T. ) ;
#601 = ORIENTED_EDGE ( 'NONE', *, *, #179, .F. ) ;
#602 = CARTESIAN_POINT ( 'NONE',  ( 34.30000000000000426, 3.750000000000003553, 2.000000000000001776 ) ) ;
#603 = CARTESIAN_POINT ( 'NONE',  ( 32.30000000000000426, -1.250000000000001998, -32.30000000000000426 ) ) ;
#604 = ORIENTED_EDGE ( 'NONE', *, *, #467, .F. ) ;
#605 = ADVANCED_FACE ( 'NONE', ( #25 ), #115, .F. ) ;
#606 = DIRECTION ( 'NONE',  ( 0.000000000000000000, 0.000000000000000000, 1.000000000000000000 ) ) ;
#607 = PRODUCT_RELATED_PRODUCT_CATEGORY ( 'detail', '', ( #442 ) ) ;
#608 = DIRECTION ( 'NONE',  ( 0.000000000000000000, 1.000000000000000000, 0.000000000000000000 ) ) ;
#609 = AXIS2_PLACEMENT_3D ( 'NONE', #448, #355, #682 ) ;
#610 = VECTOR ( 'NONE', #240, 1000.000000000000000 ) ;
#611 = AXIS2_PLACEMENT_3D ( 'NONE', #960, #288, #374 ) ;
#612 = EDGE_CURVE ( 'NONE', #689, #331, #21, .T. ) ;
#613 = CARTESIAN_POINT ( 'NONE',  ( 34.30000000000001137, 58.73527075499401917, 2.000000000000000000 ) ) ;
#614 = CARTESIAN_POINT ( 'NONE',  ( 34.24170685429678684, -1.250000000000002220, 2.000000000000000000 ) ) ;
#615 = FACE_OUTER_BOUND ( 'NONE', #411, .T. ) ;
#616 = ORIENTED_EDGE ( 'NONE', *, *, #537, .F. ) ;
#617 = DIRECTION ( 'NONE',  ( -1.072287862897752081E-16, -1.000000000000000000, 0.000000000000000000 ) ) ;
#618 = LINE ( 'NONE', #520, #278 ) ;
#619 = ADVANCED_FACE ( 'NONE', ( #697 ), #915, .T. ) ;
#620 = FACE_OUTER_BOUND ( 'NONE', #140, .T. ) ;
#621 = VERTEX_POINT ( 'NONE', #540 ) ;
#622 = DIRECTION ( 'NONE',  ( 1.000000000000000000, 0.000000000000000000, 0.000000000000000000 ) ) ;
#623 = DIRECTION ( 'NONE',  ( 0.000000000000000000, 0.000000000000000000, 1.000000000000000000 ) ) ;
#624 = ORIENTED_EDGE ( 'NONE', *, *, #670, .T. ) ;
#625 = AXIS2_PLACEMENT_3D ( 'NONE', #274, #769, #26 ) ;
#626 = LINE ( 'NONE', #1027, #506 ) ;
#627 = AXIS2_PLACEMENT_3D ( 'NONE', #447, #606, #763 ) ;
#628 = DIRECTION ( 'NONE',  ( 1.000000000000000000, -9.531447670202239898E-17, 1.196634779751784481E-16 ) ) ;
#629 = DIRECTION ( 'NONE',  ( 1.000000000000000000, 0.000000000000000000, 0.000000000000000000 ) ) ;
#630 = DIRECTION ( 'NONE',  ( 0.000000000000000000, 0.000000000000000000, 1.000000000000000000 ) ) ;
#631 = ORIENTED_EDGE ( 'NONE', *, *, #942, .F. ) ;
#632 = EDGE_CURVE ( 'NONE', #621, #920, #37, .T. ) ;
#633 = DIRECTION ( 'NONE',  ( 0.000000000000000000, 0.000000000000000000, -1.000000000000000000 ) ) ;
#634 = APPROVAL_ROLE ( '' ) ;
#635 = CARTESIAN_POINT ( 'NONE',  ( 32.30000000000000426, 2.500000000000000000, -32.30000000000000426 ) ) ;
#636 = VERTEX_POINT ( 'NONE', #290 ) ;
#637 = CARTESIAN_POINT ( 'NONE',  ( 32.30000000000000426, 2.500000000000000000, 0.000000000000000000 ) ) ;
#638 = PLANE ( 'NONE',  #209 ) ;
#639 =( NAMED_UNIT ( * ) SI_UNIT ( $, .STERADIAN. ) SOLID_ANGLE_UNIT ( ) );
#640 = LINE ( 'NONE', #961, #696 ) ;
#641 = EDGE_LOOP ( 'NONE', ( #745, #624, #579, #54 ) ) ;
#642 = EDGE_CURVE ( 'NONE', #1032, #85, #940, .T. ) ;
#643 = VECTOR ( 'NONE', #545, 1000.000000000000000 ) ;
#644 = CARTESIAN_POINT ( 'NONE',  ( 2.000000000000000000, 1.500000000000000000, -2.000000000000000000 ) ) ;
#645 = VECTOR ( 'NONE', #431, 1000.000000000000000 ) ;
#646 = CARTESIAN_POINT ( 'NONE',  ( 32.30000000000000426, 3.750000000000003553, -39.30000000000000426 ) ) ;
#647 = LINE ( 'NONE', #991, #1001 ) ;
#648 = ORIENTED_EDGE ( 'NONE', *, *, #537, .T. ) ;
#649 = ORIENTED_EDGE ( 'NONE', *, *, #517, .T. ) ;
#650 = LINE ( 'NONE', #902, #817 ) ;
#651 = CARTESIAN_POINT ( 'NONE',  ( 32.30000000000001137, 58.73527075499401917, 0.000000000000000000 ) ) ;
#652 = ORIENTED_EDGE ( 'NONE', *, *, #517, .F. ) ;
#653 = ORIENTED_EDGE ( 'NONE', *, *, #1009, .T. ) ;
#654 = ORIENTED_EDGE ( 'NONE', *, *, #256, .F. ) ;
#655 = DIRECTION ( 'NONE',  ( 1.000000000000000000, 0.000000000000000000, 0.000000000000000000 ) ) ;
#656 = COORDINATED_UNIVERSAL_TIME_OFFSET ( 2, 0, .AHEAD. ) ;
#657 = DIRECTION ( 'NONE',  ( 1.000000000000000000, -1.072287862897751958E-16, 0.000000000000000000 ) ) ;
#658 = ADVANCED_FACE ( 'NONE', ( #806 ), #860, .T. ) ;
#659 = ORIENTED_EDGE ( 'NONE', *, *, #674, .F. ) ;
#660 = LINE ( 'NONE', #408, #317 ) ;
#661 = VECTOR ( 'NONE', #1042, 1000.000000000000000 ) ;
#662 = PERSON_AND_ORGANIZATION_ROLE ( 'creator' ) ;
#663 = VECTOR ( 'NONE', #886, 1000.000000000000000 ) ;
#664 = ORIENTED_EDGE ( 'NONE', *, *, #500, .F. ) ;
#665 = ADVANCED_FACE ( 'NONE', ( #963 ), #202, .T. ) ;
#666 = DIRECTION ( 'NONE',  ( -1.072287862897752081E-16, -1.000000000000000000, 0.000000000000000000 ) ) ;
#667 = CARTESIAN_POINT ( 'NONE',  ( 8.599999999999999645, 1.250000000000000000, -38.30499999999999972 ) ) ;
#668 = ORIENTED_EDGE ( 'NONE', *, *, #994, .T. ) ;
#669 = EDGE_LOOP ( 'NONE', ( #601, #919, #672, #839 ) ) ;
#670 = EDGE_CURVE ( 'NONE', #1065, #522, #626, .T. ) ;
#671 = LINE ( 'NONE', #997, #362 ) ;
#672 = ORIENTED_EDGE ( 'NONE', *, *, #68, .F. ) ;
#673 = CARTESIAN_POINT ( 'NONE',  ( 8.099999999999999645, 1.250000000000000000, -36.67999999999999972 ) ) ;
#674 = EDGE_CURVE ( 'NONE', #339, #689, #868, .T. ) ;
#675 = DIRECTION ( 'NONE',  ( -1.000000000000000000, 0.000000000000000000, 0.000000000000000000 ) ) ;
#676 = EDGE_CURVE ( 'NONE', #415, #90, #727, .T. ) ;
#677 = VECTOR ( 'NONE', #628, 1000.000000000000000 ) ;
#678 = ORIENTED_EDGE ( 'NONE', *, *, #418, .F. ) ;
#679 = VECTOR ( 'NONE', #509, 1000.000000000000000 ) ;
#680 = ORIENTED_EDGE ( 'NONE', *, *, #169, .F. ) ;
#681 = DIRECTION ( 'NONE',  ( -1.000000000000000000, 0.000000000000000000, 0.000000000000000000 ) ) ;
#682 = DIRECTION ( 'NONE',  ( -1.072287862897752081E-16, -1.000000000000000000, 0.000000000000000000 ) ) ;
#683 = DIRECTION ( 'NONE',  ( 1.000000000000000000, 0.000000000000000000, 0.000000000000000000 ) ) ;
#684 = ORIENTED_EDGE ( 'NONE', *, *, #445, .T. ) ;
#685 = CARTESIAN_POINT ( 'NONE',  ( 1.000000000000000000, 2.500000000000000000, -1.000000000000000000 ) ) ;
#686 = FACE_OUTER_BOUND ( 'NONE', #843, .T. ) ;
#687 = DIRECTION ( 'NONE',  ( 1.000000000000000000, 0.000000000000000000, 0.000000000000000000 ) ) ;
#688 = ADVANCED_FACE ( 'NONE', ( #127, #946 ), #120, .F. ) ;
#689 = VERTEX_POINT ( 'NONE', #148 ) ;
#690 = LINE ( 'NONE', #187, #932 ) ;
#691 = LINE ( 'NONE', #614, #521 ) ;
#692 = CC_DESIGN_APPROVAL ( #134, ( #837 ) ) ;
#693 = VECTOR ( 'NONE', #373, 1000.000000000000000 ) ;
#694 = CARTESIAN_POINT ( 'NONE',  ( 8.099999999999999645, 1.250000000000000000, -36.67999999999999972 ) ) ;
#695 = VECTOR ( 'NONE', #43, 1000.000000000000000 ) ;
#696 = VECTOR ( 'NONE', #12, 1000.000000000000000 ) ;
#697 = FACE_OUTER_BOUND ( 'NONE', #927, .T. ) ;
#698 = PLANE ( 'NONE',  #404 ) ;
#699 = MECHANICAL_CONTEXT ( 'NONE', #751, 'mechanical' ) ;
#700 = ORIENTED_EDGE ( 'NONE', *, *, #214, .F. ) ;
#701 = CARTESIAN_POINT ( 'NONE',  ( 31.30000000000000071, 2.500000000000000000, -1.000000000000000000 ) ) ;
#702 = FACE_OUTER_BOUND ( 'NONE', #998, .T. ) ;
#703 = CARTESIAN_POINT ( 'NONE',  ( 8.599999999999999645, 1.250000000000000000, -35.05499999999999972 ) ) ;
#704 = PLANE ( 'NONE',  #778 ) ;
#705 = ORIENTED_EDGE ( 'NONE', *, *, #336, .T. ) ;
#706 = DIRECTION ( 'NONE',  ( 0.000000000000000000, 1.000000000000000000, 0.000000000000000000 ) ) ;
#707 = DIRECTION ( 'NONE',  ( 1.000000000000000000, -1.072287862897752081E-16, 0.000000000000000000 ) ) ;
#708 = EDGE_CURVE ( 'NONE', #272, #968, #544, .T. ) ;
#709 = PERSON_AND_ORGANIZATION_ROLE ( 'design_owner' ) ;
#710 = LINE ( 'NONE', #571, #494 ) ;
#711 = EDGE_CURVE ( 'NONE', #325, #90, #1041, .T. ) ;
#712 = ORIENTED_EDGE ( 'NONE', *, *, #256, .T. ) ;
#713 = ORIENTED_EDGE ( 'NONE', *, *, #271, .T. ) ;
#714 = VECTOR ( 'NONE', #907, 1000.000000000000000 ) ;
#715 = CARTESIAN_POINT ( 'NONE',  ( 0.000000000000000000, 2.500000000000000000, 0.000000000000000000 ) ) ;
#716 = AXIS2_PLACEMENT_3D ( 'NONE', #368, #687, #41 ) ;
#717 = CARTESIAN_POINT ( 'NONE',  ( 34.30000000000000426, -1.250000000000002220, -39.30000000000000426 ) ) ;
#718 = PERSON_AND_ORGANIZATION ( #451, #417 ) ;
#719 = CARTESIAN_POINT ( 'NONE',  ( 6.298111795459336914E-15, 58.73527075499401917, -32.30000000000000426 ) ) ;
#720 = ADVANCED_FACE ( 'NONE', ( #60, #461 ), #376, .F. ) ;
#721 = DIRECTION ( 'NONE',  ( 0.000000000000000000, 0.000000000000000000, 1.000000000000000000 ) ) ;
#722 = CARTESIAN_POINT ( 'NONE',  ( 6.298111795459336914E-15, 58.73527075499401917, 0.000000000000000000 ) ) ;
#723 = CARTESIAN_POINT ( 'NONE',  ( 1.000000000000000000, 0.000000000000000000, -1.000000000000000000 ) ) ;
#724 = LINE ( 'NONE', #729, #557 ) ;
#725 = ORIENTED_EDGE ( 'NONE', *, *, #336, .F. ) ;
#726 = EDGE_CURVE ( 'NONE', #1010, #548, #1033, .T. ) ;
#727 = LINE ( 'NONE', #55, #695 ) ;
#728 = CYLINDRICAL_SURFACE ( 'NONE', #229, 1.625000000000001332 ) ;
#729 = CARTESIAN_POINT ( 'NONE',  ( 0.000000000000000000, 2.500000000000000000, 0.000000000000000000 ) ) ;
#730 = ORIENTED_EDGE ( 'NONE', *, *, #711, .F. ) ;
#731 = LOCAL_TIME ( 21, 25, 30.00000000000000000, #656 ) ;
#732 = VECTOR ( 'NONE', #346, 1000.000000000000000 ) ;
#733 = EDGE_CURVE ( 'NONE', #1070, #245, #386, .T. ) ;
#734 = PLANE ( 'NONE',  #349 ) ;
#735 = VECTOR ( 'NONE', #876, 1000.000000000000000 ) ;
#736 = CARTESIAN_POINT ( 'NONE',  ( 8.599999999999999645, 1.250000000000000000, -36.67999999999999972 ) ) ;
#737 = VERTEX_POINT ( 'NONE', #873 ) ;
#738 = DIRECTION ( 'NONE',  ( 0.000000000000000000, 0.000000000000000000, -1.000000000000000000 ) ) ;
#739 = EDGE_LOOP ( 'NONE', ( #20, #977, #360, #400, #103 ) ) ;
#740 = DIRECTION ( 'NONE',  ( -1.000000000000000000, 0.000000000000000000, 0.000000000000000000 ) ) ;
#741 = COORDINATED_UNIVERSAL_TIME_OFFSET ( 2, 0, .AHEAD. ) ;
#742 = ORIENTED_EDGE ( 'NONE', *, *, #756, .F. ) ;
#743 = CARTESIAN_POINT ( 'NONE',  ( -1.340359828622188345E-16, -1.249999999999998446, -32.30000000000000426 ) ) ;
#744 = ORIENTED_EDGE ( 'NONE', *, *, #911, .T. ) ;
#745 = ORIENTED_EDGE ( 'NONE', *, *, #99, .T. ) ;
#746 = CARTESIAN_POINT ( 'NONE',  ( 30.30000000000000071, 1.500000000000000000, -2.000000000000000000 ) ) ;
#747 = VECTOR ( 'NONE', #206, 1000.000000000000000 ) ;
#748 = VECTOR ( 'NONE', #980, 1000.000000000000000 ) ;
#749 = ORIENTED_EDGE ( 'NONE', *, *, #19, .T. ) ;
#750 = DIRECTION ( 'NONE',  ( -1.072287862897752081E-16, -1.000000000000000000, 0.000000000000000000 ) ) ;
#751 = APPLICATION_CONTEXT ( 'configuration controlled 3d designs of mechanical parts and assemblies' ) ;
#752 = VERTEX_POINT ( 'NONE', #135 ) ;
#753 = ORIENTED_EDGE ( 'NONE', *, *, #726, .F. ) ;
#754 = EDGE_CURVE ( 'NONE', #126, #573, #53, .T. ) ;
#755 = CARTESIAN_POINT ( 'NONE',  ( 14.09999999999999964, 3.750000000000000000, -39.30000000000000426 ) ) ;
#756 = EDGE_CURVE ( 'NONE', #205, #182, #47, .T. ) ;
#757 = DIRECTION ( 'NONE',  ( 1.000000000000000000, 0.000000000000000000, 0.000000000000000000 ) ) ;
#758 = ORIENTED_EDGE ( 'NONE', *, *, #670, .F. ) ;
#759 = LINE ( 'NONE', #263, #679 ) ;
#760 = VECTOR ( 'NONE', #413, 1000.000000000000000 ) ;
#761 = VECTOR ( 'NONE', #889, 1000.000000000000000 ) ;
#762 = ORIENTED_EDGE ( 'NONE', *, *, #708, .T. ) ;
#763 = DIRECTION ( 'NONE',  ( 1.000000000000000000, 0.000000000000000000, 0.000000000000000000 ) ) ;
#764 = CARTESIAN_POINT ( 'NONE',  ( 14.09999999999999964, 2.500000000000000000, -32.30000000000000426 ) ) ;
#765 = ADVANCED_FACE ( 'NONE', ( #366, #27 ), #23, .T. ) ;
#766 = CARTESIAN_POINT ( 'NONE',  ( 31.30000000000000071, 0.000000000000000000, -1.000000000000000000 ) ) ;
#767 = ORIENTED_EDGE ( 'NONE', *, *, #632, .T. ) ;
#768 = CARTESIAN_POINT ( 'NONE',  ( 0.000000000000000000, 0.000000000000000000, -32.30000000000000426 ) ) ;
#769 = DIRECTION ( 'NONE',  ( 1.000000000000000000, 0.000000000000000000, 0.000000000000000000 ) ) ;
#770 = DIRECTION ( 'NONE',  ( 1.000000000000000000, 0.000000000000000000, 0.000000000000000000 ) ) ;
#771 = EDGE_CURVE ( 'NONE', #85, #245, #433, .T. ) ;
#772 = VERTEX_POINT ( 'NONE', #189 ) ;
#773 = DIRECTION ( 'NONE',  ( 0.000000000000000000, 1.000000000000000000, 0.000000000000000000 ) ) ;
#774 = LINE ( 'NONE', #270, #732 ) ;
#775 = VECTOR ( 'NONE', #306, 1000.000000000000000 ) ;
#776 = AXIS2_PLACEMENT_3D ( 'NONE', #226, #959, #623 ) ;
#777 = ORIENTED_EDGE ( 'NONE', *, *, #1037, .F. ) ;
#778 = AXIS2_PLACEMENT_3D ( 'NONE', #1025, #949, #770 ) ;
#779 = VECTOR ( 'NONE', #943, 1000.000000000000000 ) ;
#780 = CARTESIAN_POINT ( 'NONE',  ( 14.09999999999999964, 1.250000000000000000, -36.67999999999999972 ) ) ;
#781 = PLANE ( 'NONE',  #776 ) ;
#782 = LINE ( 'NONE', #40, #591 ) ;
#783 = ORIENTED_EDGE ( 'NONE', *, *, #388, .T. ) ;
#784 = FACE_OUTER_BOUND ( 'NONE', #157, .T. ) ;
#785 = EDGE_CURVE ( 'NONE', #522, #176, #117, .T. ) ;
#786 = DIRECTION ( 'NONE',  ( 1.000000000000000000, 0.000000000000000000, 0.000000000000000000 ) ) ;
#787 = EDGE_CURVE ( 'NONE', #562, #460, #450, .T. ) ;
#788 = CARTESIAN_POINT ( 'NONE',  ( 34.30000000000001137, 3.750000000000003553, -39.30000000000000426 ) ) ;
#789 = LINE ( 'NONE', #227, #507 ) ;
#790 = DIRECTION ( 'NONE',  ( 0.000000000000000000, 0.000000000000000000, 1.000000000000000000 ) ) ;
#791 = ORIENTED_EDGE ( 'NONE', *, *, #642, .F. ) ;
#792 = DIRECTION ( 'NONE',  ( 0.000000000000000000, 0.000000000000000000, 1.000000000000000000 ) ) ;
#793 = CARTESIAN_POINT ( 'NONE',  ( 32.30000000000000426, 3.750000000000000000, -32.30000000000000426 ) ) ;
#794 = UNCERTAINTY_MEASURE_WITH_UNIT (LENGTH_MEASURE( 1.000000000000000082E-05 ), #123, 'distance_accuracy_value', 'NONE');
#795 = DIRECTION ( 'NONE',  ( -9.531447670202239898E-17, -1.000000000000000000, 0.000000000000000000 ) ) ;
#796 = CARTESIAN_POINT ( 'NONE',  ( 32.30000000000000426, 3.750000000000003553, -32.30000000000000426 ) ) ;
#797 = ORIENTED_EDGE ( 'NONE', *, *, #858, .T. ) ;
#798 = VECTOR ( 'NONE', #584, 1000.000000000000000 ) ;
#799 = AXIS2_PLACEMENT_3D ( 'NONE', #780, #952, #549 ) ;
#800 = DIRECTION ( 'NONE',  ( -1.000000000000000000, 1.072287862897752081E-16, 0.000000000000000000 ) ) ;
#801 = DIRECTION ( 'NONE',  ( 0.000000000000000000, -1.000000000000000000, 0.000000000000000000 ) ) ;
#802 = DIRECTION ( 'NONE',  ( 1.000000000000000000, 0.000000000000000000, 0.000000000000000000 ) ) ;
#803 = DIRECTION ( 'NONE',  ( -1.196634779751784481E-16, 1.283136950649163206E-32, 1.000000000000000000 ) ) ;
#804 = ADVANCED_FACE ( 'NONE', ( #24 ), #356, .T. ) ;
#805 = ORIENTED_EDGE ( 'NONE', *, *, #585, .F. ) ;
#806 = FACE_OUTER_BOUND ( 'NONE', #446, .T. ) ;
#807 = LINE ( 'NONE', #965, #693 ) ;
#808 = FACE_OUTER_BOUND ( 'NONE', #42, .T. ) ;
#809 = ORIENTED_EDGE ( 'NONE', *, *, #642, .T. ) ;
#810 = ORIENTED_EDGE ( 'NONE', *, *, #1062, .T. ) ;
#811 = DIRECTION ( 'NONE',  ( -0.000000000000000000, 1.000000000000000000, 0.000000000000000000 ) ) ;
#812 = APPROVAL_STATUS ( 'not_yet_approved' ) ;
#813 = CARTESIAN_POINT ( 'NONE',  ( -1.999999999999999556, 3.750000000000003553, -32.30000000000000426 ) ) ;
#814 = ORIENTED_EDGE ( 'NONE', *, *, #101, .F. ) ;
#815 = EDGE_LOOP ( 'NONE', ( #971, #828, #538, #678, #307, #840, #170, #357 ) ) ;
#816 = ORIENTED_EDGE ( 'NONE', *, *, #308, .F. ) ;
#817 = VECTOR ( 'NONE', #77, 1000.000000000000000 ) ;
#818 = DIRECTION ( 'NONE',  ( 1.000000000000000000, 0.000000000000000000, 0.000000000000000000 ) ) ;
#819 = VECTOR ( 'NONE', #390, 1000.000000000000000 ) ;
#820 = PERSON_AND_ORGANIZATION ( #451, #417 ) ;
#821 = PLANE ( 'NONE',  #419 ) ;
#822 = ORIENTED_EDGE ( 'NONE', *, *, #491, .T. ) ;
#823 = ORIENTED_EDGE ( 'NONE', *, *, #372, .T. ) ;
#824 = DIRECTION ( 'NONE',  ( 0.000000000000000000, 0.000000000000000000, -1.000000000000000000 ) ) ;
#825 = PERSON_AND_ORGANIZATION_ROLE ( 'classification_officer' ) ;
#826 = EDGE_CURVE ( 'NONE', #245, #1070, #335, .T. ) ;
#827 = ORIENTED_EDGE ( 'NONE', *, *, #388, .F. ) ;
#828 = ORIENTED_EDGE ( 'NONE', *, *, #118, .T. ) ;
#829 = LINE ( 'NONE', #87, #1 ) ;
#830 = APPROVAL_ROLE ( '' ) ;
#831 = ADVANCED_FACE ( 'NONE', ( #197 ), #704, .F. ) ;
#832 = ORIENTED_EDGE ( 'NONE', *, *, #414, .F. ) ;
#833 = ORIENTED_EDGE ( 'NONE', *, *, #38, .T. ) ;
#834 = CARTESIAN_POINT ( 'NONE',  ( 14.09999999999999964, 3.750000000000000000, -39.30000000000000426 ) ) ;
#835 = AXIS2_PLACEMENT_3D ( 'NONE', #416, #811, #818 ) ;
#836 = AXIS2_PLACEMENT_3D ( 'NONE', #466, #878, #792 ) ;
#837 = PRODUCT_DEFINITION_FORMATION_WITH_SPECIFIED_SOURCE ( 'ANY', '', #442, .NOT_KNOWN. ) ;
#838 = PRODUCT_DEFINITION ( 'UNKNOWN', '', #837, #954 ) ;
#839 = ORIENTED_EDGE ( 'NONE', *, *, #929, .F. ) ;
#840 = ORIENTED_EDGE ( 'NONE', *, *, #918, .F. ) ;
#841 = CARTESIAN_POINT ( 'NONE',  ( 1.000000000000000000, 1.500000000000000000, -1.000000000000000000 ) ) ;
#842 = ORIENTED_EDGE ( 'NONE', *, *, #106, .T. ) ;
#843 = EDGE_LOOP ( 'NONE', ( #166, #484, #429, #984 ) ) ;
#844 = EDGE_CURVE ( 'NONE', #171, #415, #528, .T. ) ;
#845 = CARTESIAN_POINT ( 'NONE',  ( 30.30000000000000071, 1.500000000000000000, -30.30000000000000071 ) ) ;
#846 = ADVANCED_FACE ( 'NONE', ( #294 ), #275, .F. ) ;
#847 = DIRECTION ( 'NONE',  ( 0.000000000000000000, 0.000000000000000000, -1.000000000000000000 ) ) ;
#848 = LINE ( 'NONE', #526, #385 ) ;
#849 = VECTOR ( 'NONE', #525, 1000.000000000000000 ) ;
#850 = VECTOR ( 'NONE', #1013, 1000.000000000000000 ) ;
#851 = ORIENTED_EDGE ( 'NONE', *, *, #143, .T. ) ;
#852 = CYLINDRICAL_SURFACE ( 'NONE', #301, 1.625000000000001332 ) ;
#853 = DIRECTION ( 'NONE',  ( 0.000000000000000000, 1.000000000000000000, 0.000000000000000000 ) ) ;
#854 = ADVANCED_FACE ( 'NONE', ( #615 ), #938, .T. ) ;
#855 = DIRECTION ( 'NONE',  ( 0.7071067811865505703, 8.659560562354892183E-17, 0.7071067811865444641 ) ) ;
#856 = ORIENTED_EDGE ( 'NONE', *, *, #958, .T. ) ;
#857 = LINE ( 'NONE', #193, #52 ) ;
#858 = EDGE_CURVE ( 'NONE', #923, #152, #315, .T. ) ;
#859 = ORIENTED_EDGE ( 'NONE', *, *, #106, .F. ) ;
#860 = PLANE ( 'NONE',  #903 ) ;
#861 = CARTESIAN_POINT ( 'NONE',  ( 30.30000000000000071, 2.500000000000000000, -30.30000000000000071 ) ) ;
#862 = PLANE ( 'NONE',  #611 ) ;
#863 = ADVANCED_FACE ( 'NONE', ( #150 ), #75, .T. ) ;
#864 = VECTOR ( 'NONE', #556, 1000.000000000000000 ) ;
#865 = ORIENTED_EDGE ( 'NONE', *, *, #483, .F. ) ;
#866 = VECTOR ( 'NONE', #71, 1000.000000000000000 ) ;
#867 = EDGE_CURVE ( 'NONE', #752, #8, #487, .T. ) ;
#868 = LINE ( 'NONE', #554, #663 ) ;
#869 = CARTESIAN_POINT ( 'NONE',  ( 30.30000000000000071, 1.500000000000000000, -30.30000000000000071 ) ) ;
#870 = DIRECTION ( 'NONE',  ( -1.000000000000000000, 9.531447670202239898E-17, 0.000000000000000000 ) ) ;
#871 = CARTESIAN_POINT ( 'NONE',  ( 0.000000000000000000, 0.000000000000000000, 0.000000000000000000 ) ) ;
#872 = ORIENTED_EDGE ( 'NONE', *, *, #340, .T. ) ;
#873 = CARTESIAN_POINT ( 'NONE',  ( 0.000000000000000000, 2.500000000000000000, 0.000000000000000000 ) ) ;
#874 = CARTESIAN_POINT ( 'NONE',  ( 34.30000000000000426, -1.250000000000002220, 2.000000000000000000 ) ) ;
#875 = DIRECTION ( 'NONE',  ( 0.000000000000000000, 0.000000000000000000, 1.000000000000000000 ) ) ;
#876 = DIRECTION ( 'NONE',  ( -1.000000000000000000, 0.000000000000000000, 0.000000000000000000 ) ) ;
#877 = VERTEX_POINT ( 'NONE', #228 ) ;
#878 = DIRECTION ( 'NONE',  ( -1.000000000000000000, 0.000000000000000000, 0.000000000000000000 ) ) ;
#879 = EDGE_CURVE ( 'NONE', #152, #621, #564, .T. ) ;
#880 = FACE_OUTER_BOUND ( 'NONE', #896, .T. ) ;
#881 = APPROVAL_DATE_TIME ( #1043, #452 ) ;
#882 = DIRECTION ( 'NONE',  ( 0.000000000000000000, 0.000000000000000000, 1.000000000000000000 ) ) ;
#883 = EDGE_LOOP ( 'NONE', ( #393, #753, #159, #913 ) ) ;
#884 = VECTOR ( 'NONE', #675, 1000.000000000000000 ) ;
#885 = VECTOR ( 'NONE', #45, 1000.000000000000000 ) ;
#886 = DIRECTION ( 'NONE',  ( 0.000000000000000000, 0.000000000000000000, 1.000000000000000000 ) ) ;
#887 = AXIS2_PLACEMENT_3D ( 'NONE', #300, #476, #629 ) ;
#888 = CARTESIAN_POINT ( 'NONE',  ( 31.30000000000000071, 0.000000000000000000, -31.30000000000000071 ) ) ;
#889 = DIRECTION ( 'NONE',  ( -1.000000000000000000, 9.531447670202239898E-17, 0.000000000000000000 ) ) ;
#890 = ADVANCED_BREP_SHAPE_REPRESENTATION ( 'geam', ( #132, #887 ), #121 ) ;
#891 = ORIENTED_EDGE ( 'NONE', *, *, #787, .T. ) ;
#892 = DIRECTION ( 'NONE',  ( 1.000000000000000000, 0.000000000000000000, 0.000000000000000000 ) ) ;
#893 = SECURITY_CLASSIFICATION_LEVEL ( 'unclassified' ) ;
#894 = DIRECTION ( 'NONE',  ( 1.000000000000000000, 0.000000000000000000, 0.000000000000000000 ) ) ;
#895 = ORIENTED_EDGE ( 'NONE', *, *, #900, .T. ) ;
#896 = EDGE_LOOP ( 'NONE', ( #986, #616, #859, #978 ) ) ;
#897 = CARTESIAN_POINT ( 'NONE',  ( 14.09999999999999964, 0.000000000000000000, -32.30000000000000426 ) ) ;
#898 = ORIENTED_EDGE ( 'NONE', *, *, #785, .F. ) ;
#899 = ORIENTED_EDGE ( 'NONE', *, *, #1021, .F. ) ;
#900 = EDGE_CURVE ( 'NONE', #460, #180, #154, .T. ) ;
#901 = EDGE_CURVE ( 'NONE', #996, #1032, #951, .T. ) ;
#902 = CARTESIAN_POINT ( 'NONE',  ( 14.09999999999999964, -1.250000000000000000, -32.30000000000000426 ) ) ;
#903 = AXIS2_PLACEMENT_3D ( 'NONE', #701, #371, #721 ) ;
#904 = LINE ( 'NONE', #312, #747 ) ;
#905 = ORIENTED_EDGE ( 'NONE', *, *, #844, .F. ) ;
#906 = EDGE_CURVE ( 'NONE', #488, #772, #710, .T. ) ;
#907 = DIRECTION ( 'NONE',  ( 1.000000000000000000, -9.531447670202239898E-17, 0.000000000000000000 ) ) ;
#908 = APPROVAL_ROLE ( '' ) ;
#909 = ORIENTED_EDGE ( 'NONE', *, *, #994, .F. ) ;
#910 = DIRECTION ( 'NONE',  ( 0.000000000000000000, 0.000000000000000000, -1.000000000000000000 ) ) ;
#911 = EDGE_CURVE ( 'NONE', #250, #877, #64, .T. ) ;
#912 = EDGE_LOOP ( 'NONE', ( #680, #777, #1040, #289 ) ) ;
#913 = ORIENTED_EDGE ( 'NONE', *, *, #1037, .T. ) ;
#914 = AXIS2_PLACEMENT_3D ( 'NONE', #586, #258, #449 ) ;
#915 = PLANE ( 'NONE',  #247 ) ;
#916 = AXIS2_PLACEMENT_3D ( 'NONE', #485, #569, #337 ) ;
#917 = VECTOR ( 'NONE', #773, 1000.000000000000000 ) ;
#918 = EDGE_CURVE ( 'NONE', #1010, #250, #1036, .T. ) ;
#919 = ORIENTED_EDGE ( 'NONE', *, *, #191, .F. ) ;
#920 = VERTEX_POINT ( 'NONE', #635 ) ;
#921 = CARTESIAN_POINT ( 'NONE',  ( 8.099999999999999645, 1.250000000000000000, -37.80499999999999972 ) ) ;
#922 = FACE_OUTER_BOUND ( 'NONE', #505, .T. ) ;
#923 = VERTEX_POINT ( 'NONE', #796 ) ;
#924 = ORIENTED_EDGE ( 'NONE', *, *, #418, .T. ) ;
#925 = CARTESIAN_POINT ( 'NONE',  ( 13.59999999999999964, 1.250000000000000000, -36.67999999999999972 ) ) ;
#926 = DIRECTION ( 'NONE',  ( 1.000000000000000000, 0.000000000000000000, 0.000000000000000000 ) ) ;
#927 = EDGE_LOOP ( 'NONE', ( #440, #265, #1059, #498 ) ) ;
#928 = DIRECTION ( 'NONE',  ( 0.000000000000000000, -1.000000000000000000, 0.000000000000000000 ) ) ;
#929 = EDGE_CURVE ( 'NONE', #76, #160, #302, .T. ) ;
#930 = CARTESIAN_POINT ( 'NONE',  ( 0.000000000000000000, 0.000000000000000000, -32.30000000000000426 ) ) ;
#931 = AXIS2_PLACEMENT_3D ( 'NONE', #298, #707, #129 ) ;
#932 = VECTOR ( 'NONE', #110, 1000.000000000000000 ) ;
#933 = DIRECTION ( 'NONE',  ( 0.000000000000000000, -1.000000000000000000, 0.000000000000000000 ) ) ;
#934 = APPROVAL_PERSON_ORGANIZATION ( #718, #452, #634 ) ;
#935 = DIRECTION ( 'NONE',  ( 0.000000000000000000, 0.000000000000000000, -1.000000000000000000 ) ) ;
#936 = EDGE_CURVE ( 'NONE', #1032, #996, #18, .T. ) ;
#937 = CARTESIAN_POINT ( 'NONE',  ( 1.000000000000000000, 1.500000000000000000, -31.30000000000000071 ) ) ;
#938 = PLANE ( 'NONE',  #524 ) ;
#939 = ORIENTED_EDGE ( 'NONE', *, *, #674, .T. ) ;
#940 = LINE ( 'NONE', #297, #230 ) ;
#941 = CARTESIAN_POINT ( 'NONE',  ( 0.000000000000000000, 0.000000000000000000, 0.000000000000000000 ) ) ;
#942 = EDGE_CURVE ( 'NONE', #182, #241, #145, .T. ) ;
#943 = DIRECTION ( 'NONE',  ( -1.072287862897752081E-16, -1.000000000000000000, 0.000000000000000000 ) ) ;
#944 = ADVANCED_FACE ( 'NONE', ( #808 ), #131, .T. ) ;
#945 = EDGE_LOOP ( 'NONE', ( #219, #114, #705, #423 ) ) ;
#946 = FACE_OUTER_BOUND ( 'NONE', #259, .T. ) ;
#947 = LINE ( 'NONE', #644, #643 ) ;
#948 = LINE ( 'NONE', #305, #779 ) ;
#949 = DIRECTION ( 'NONE',  ( 0.000000000000000000, 0.000000000000000000, 1.000000000000000000 ) ) ;
#950 = FACE_OUTER_BOUND ( 'NONE', #912, .T. ) ;
#951 = CIRCLE ( 'NONE', #594, 1.625000000000001332 ) ;
#952 = DIRECTION ( 'NONE',  ( 1.000000000000000000, 0.000000000000000000, 0.000000000000000000 ) ) ;
#953 = CARTESIAN_POINT ( 'NONE',  ( 14.09999999999999964, 1.250000000000000000, -34.55499999999999972 ) ) ;
#954 = DESIGN_CONTEXT ( 'detailed design', #267, 'design' ) ;
#955 = APPLICATION_PROTOCOL_DEFINITION ( 'international standard', 'config_control_design', 1994, #267 ) ;
#956 = DIRECTION ( 'NONE',  ( 1.000000000000000000, 0.000000000000000000, 0.000000000000000000 ) ) ;
#957 = ORIENTED_EDGE ( 'NONE', *, *, #787, .F. ) ;
#958 = EDGE_CURVE ( 'NONE', #76, #548, #398, .T. ) ;
#959 = DIRECTION ( 'NONE',  ( -1.000000000000000000, 0.000000000000000000, 0.000000000000000000 ) ) ;
#960 = CARTESIAN_POINT ( 'NONE',  ( 8.099999999999999645, 1.250000000000000000, -36.67999999999999972 ) ) ;
#961 = CARTESIAN_POINT ( 'NONE',  ( 8.099999999999999645, 1.250000000000000000, -35.55500000000000682 ) ) ;
#962 = VERTEX_POINT ( 'NONE', #392 ) ;
#963 = FACE_OUTER_BOUND ( 'NONE', #97, .T. ) ;
#964 = EDGE_CURVE ( 'NONE', #548, #737, #724, .T. ) ;
#965 = CARTESIAN_POINT ( 'NONE',  ( 2.000000000000000000, 1.500000000000000000, -30.30000000000000071 ) ) ;
#966 = COORDINATED_UNIVERSAL_TIME_OFFSET ( 2, 0, .AHEAD. ) ;
#967 = DIRECTION ( 'NONE',  ( 1.072287862897752081E-16, 1.000000000000000000, 0.000000000000000000 ) ) ;
#968 = VERTEX_POINT ( 'NONE', #218 ) ;
#969 = VECTOR ( 'NONE', #530, 1000.000000000000000 ) ;
#970 = AXIS2_PLACEMENT_3D ( 'NONE', #925, #681, #104 ) ;
#971 = ORIENTED_EDGE ( 'NONE', *, *, #478, .F. ) ;
#972 = AXIS2_PLACEMENT_3D ( 'NONE', #130, #463, #802 ) ;
#973 = FACE_OUTER_BOUND ( 'NONE', #883, .T. ) ;
#974 = APPROVAL_DATE_TIME ( #582, #134 ) ;
#975 = DIRECTION ( 'NONE',  ( 0.000000000000000000, 0.000000000000000000, -1.000000000000000000 ) ) ;
#976 = EDGE_LOOP ( 'NONE', ( #342, #649, #762, #1014 ) ) ;
#977 = ORIENTED_EDGE ( 'NONE', *, *, #118, .F. ) ;
#978 = ORIENTED_EDGE ( 'NONE', *, *, #414, .T. ) ;
#979 = LINE ( 'NONE', #989, #576 ) ;
#980 = DIRECTION ( 'NONE',  ( 0.000000000000000000, 1.000000000000000000, 0.000000000000000000 ) ) ;
#981 = ORIENTED_EDGE ( 'NONE', *, *, #936, .T. ) ;
#982 = EDGE_CURVE ( 'NONE', #176, #968, #1050, .T. ) ;
#983 = EDGE_CURVE ( 'NONE', #772, #109, #470, .T. ) ;
#984 = ORIENTED_EDGE ( 'NONE', *, *, #99, .F. ) ;
#985 = DIRECTION ( 'NONE',  ( 0.000000000000000000, 1.000000000000000000, 0.000000000000000000 ) ) ;
#986 = ORIENTED_EDGE ( 'NONE', *, *, #88, .T. ) ;
#987 = VECTOR ( 'NONE', #535, 1000.000000000000000 ) ;
#988 = VECTOR ( 'NONE', #249, 1000.000000000000000 ) ;
#989 = CARTESIAN_POINT ( 'NONE',  ( 14.09999999999999964, -1.250000000000000000, -39.30000000000000426 ) ) ;
#990 = VECTOR ( 'NONE', #472, 1000.000000000000000 ) ;
#991 = CARTESIAN_POINT ( 'NONE',  ( -2.000000000000000000, -1.249999999999998224, -32.30000000000000426 ) ) ;
#992 = ORIENTED_EDGE ( 'NONE', *, *, #1009, .F. ) ;
#993 = ORIENTED_EDGE ( 'NONE', *, *, #942, .T. ) ;
#994 = EDGE_CURVE ( 'NONE', #573, #1032, #640, .T. ) ;
#995 = CARTESIAN_POINT ( 'NONE',  ( 13.59999999999999964, 1.250000000000000000, -38.30499999999999972 ) ) ;
#996 = VERTEX_POINT ( 'NONE', #667 ) ;
#997 = CARTESIAN_POINT ( 'NONE',  ( 14.09999999999999964, 3.750000000000000000, -32.30000000000000426 ) ) ;
#998 = EDGE_LOOP ( 'NONE', ( #664, #891, #190, #758 ) ) ;
#999 = VERTEX_POINT ( 'NONE', #1006 ) ;
#1000 = LINE ( 'NONE', #351, #645 ) ;
#1001 = VECTOR ( 'NONE', #257, 1000.000000000000000 ) ;
#1002 = CARTESIAN_POINT ( 'NONE',  ( 1.000000000000000000, 2.500000000000000000, -1.000000000000000000 ) ) ;
#1003 = CIRCLE ( 'NONE', #970, 1.625000000000001332 ) ;
#1004 = ORIENTED_EDGE ( 'NONE', *, *, #151, .T. ) ;
#1005 = ORIENTED_EDGE ( 'NONE', *, *, #372, .F. ) ;
#1006 = CARTESIAN_POINT ( 'NONE',  ( 0.000000000000000000, 3.750000000000006217, 0.000000000000000000 ) ) ;
#1007 = DIRECTION ( 'NONE',  ( -1.000000000000000000, 0.000000000000000000, 0.000000000000000000 ) ) ;
#1008 = DIRECTION ( 'NONE',  ( -1.000000000000000000, 0.000000000000000000, 0.000000000000000000 ) ) ;
#1009 = EDGE_CURVE ( 'NONE', #553, #205, #268, .T. ) ;
#1010 = VERTEX_POINT ( 'NONE', #61 ) ;
#1011 = LINE ( 'NONE', #921, #1057 ) ;
#1012 = DIRECTION ( 'NONE',  ( 0.000000000000000000, 0.000000000000000000, 1.000000000000000000 ) ) ;
#1013 = DIRECTION ( 'NONE',  ( -1.072287862897752081E-16, -1.000000000000000000, 0.000000000000000000 ) ) ;
#1014 = ORIENTED_EDGE ( 'NONE', *, *, #982, .F. ) ;
#1015 = LINE ( 'NONE', #529, #849 ) ;
#1016 = DIRECTION ( 'NONE',  ( -1.000000000000000000, 1.076971301776606008E-16, -1.196634779751784481E-16 ) ) ;
#1017 = AXIS2_PLACEMENT_3D ( 'NONE', #1002, #757, #608 ) ;
#1018 = AXIS2_PLACEMENT_3D ( 'NONE', #547, #803, #477 ) ;
#1019 = CARTESIAN_POINT ( 'NONE',  ( 1.000000000000000000, 1.500000000000000000, -1.000000000000000000 ) ) ;
#1020 = DIRECTION ( 'NONE',  ( 0.000000000000000000, 0.000000000000000000, -1.000000000000000000 ) ) ;
#1021 = EDGE_CURVE ( 'NONE', #573, #126, #559, .T. ) ;
#1022 = CARTESIAN_POINT ( 'NONE',  ( 8.099999999999999645, 1.250000000000000000, -35.55500000000000682 ) ) ;
#1023 = DIRECTION ( 'NONE',  ( -1.000000000000000000, 0.000000000000000000, 0.000000000000000000 ) ) ;
#1024 = PERSON_AND_ORGANIZATION ( #451, #417 ) ;
#1025 = CARTESIAN_POINT ( 'NONE',  ( 0.000000000000000000, 2.500000000000000000, -32.30000000000000426 ) ) ;
#1026 = EDGE_LOOP ( 'NONE', ( #565, #851, #73, #89 ) ) ;
#1027 = CARTESIAN_POINT ( 'NONE',  ( 1.000000000000000000, 0.000000000000000000, -1.000000000000000000 ) ) ;
#1028 = CARTESIAN_POINT ( 'NONE',  ( 1.000000000000000000, 2.500000000000000000, -1.000000000000000000 ) ) ;
#1029 = ADVANCED_FACE ( 'NONE', ( #620 ), #862, .T. ) ;
#1030 = PLANE ( 'NONE',  #231 ) ;
#1031 = CARTESIAN_POINT ( 'NONE',  ( 32.30000000000001137, 58.73527075499401917, 0.000000000000000000 ) ) ;
#1032 = VERTEX_POINT ( 'NONE', #703 ) ;
#1033 = LINE ( 'NONE', #1052, #177 ) ;
#1034 = DIRECTION ( 'NONE',  ( 0.000000000000000000, -1.000000000000000000, 0.000000000000000000 ) ) ;
#1035 =( NAMED_UNIT ( * ) PLANE_ANGLE_UNIT ( ) SI_UNIT ( $, .RADIAN. ) );
#1036 = LINE ( 'NONE', #560, #761 ) ;
#1037 = EDGE_CURVE ( 'NONE', #999, #737, #948, .T. ) ;
#1038 = FACE_OUTER_BOUND ( 'NONE', #572, .T. ) ;
#1039 = AXIS2_PLACEMENT_3D ( 'NONE', #456, #395, #706 ) ;
#1040 = ORIENTED_EDGE ( 'NONE', *, *, #550, .F. ) ;
#1041 = LINE ( 'NONE', #303, #194 ) ;
#1042 = DIRECTION ( 'NONE',  ( -1.000000000000000000, 0.000000000000000000, 0.000000000000000000 ) ) ;
#1043 = DATE_AND_TIME ( #469, #4 ) ;
#1044 = DIRECTION ( 'NONE',  ( 0.000000000000000000, 0.000000000000000000, 1.000000000000000000 ) ) ;
#1045 = ORIENTED_EDGE ( 'NONE', *, *, #489, .F. ) ;
#1046 = ADVANCED_FACE ( 'NONE', ( #57 ), #558, .T. ) ;
#1047 = CARTESIAN_POINT ( 'NONE',  ( 32.30000000000001137, 58.73527075499401917, -39.30000000000000426 ) ) ;
#1048 = DIRECTION ( 'NONE',  ( 0.000000000000000000, 0.000000000000000000, -1.000000000000000000 ) ) ;
#1049 = APPLICATION_PROTOCOL_DEFINITION ( 'international standard', 'config_control_design', 1994, #751 ) ;
#1050 = LINE ( 'NONE', #311, #422 ) ;
#1051 = ORIENTED_EDGE ( 'NONE', *, *, #754, .F. ) ;
#1052 = CARTESIAN_POINT ( 'NONE',  ( 6.298111795459336914E-15, 58.73527075499401917, -32.30000000000000426 ) ) ;
#1053 = CARTESIAN_POINT ( 'NONE',  ( 13.59999999999999964, 1.250000000000000000, -38.30499999999999972 ) ) ;
#1054 = CARTESIAN_POINT ( 'NONE',  ( 13.59999999999999964, 1.250000000000000000, -36.67999999999999972 ) ) ;
#1055 = VECTOR ( 'NONE', #738, 1000.000000000000000 ) ;
#1056 = ORIENTED_EDGE ( 'NONE', *, *, #867, .F. ) ;
#1057 = VECTOR ( 'NONE', #14, 1000.000000000000000 ) ;
#1058 = AXIS2_PLACEMENT_3D ( 'NONE', #1054, #464, #975 ) ;
#1059 = ORIENTED_EDGE ( 'NONE', *, *, #632, .F. ) ;
#1060 = EDGE_CURVE ( 'NONE', #465, #495, #782, .T. ) ;
#1061 = CARTESIAN_POINT ( 'NONE',  ( 14.09999999999999964, -1.250000000000000000, -39.30000000000000426 ) ) ;
#1062 = EDGE_CURVE ( 'NONE', #5, #636, #789, .T. ) ;
#1063 = CARTESIAN_POINT ( 'NONE',  ( 34.30000000000000426, -1.250000000000002220, -39.30000000000000426 ) ) ;
#1064 = ORIENTED_EDGE ( 'NONE', *, *, #292, .T. ) ;
#1065 = VERTEX_POINT ( 'NONE', #723 ) ;
#1066 = EDGE_LOOP ( 'NONE', ( #791, #981, #823, #236 ) ) ;
#1067 = PLANE ( 'NONE',  #916 ) ;
#1068 = COORDINATED_UNIVERSAL_TIME_OFFSET ( 2, 0, .AHEAD. ) ;
#1069 = DIRECTION ( 'NONE',  ( 1.072287862897751958E-16, 1.000000000000000000, 0.000000000000000000 ) ) ;
#1070 = VERTEX_POINT ( 'NONE', #293 ) ;
#1071 = LINE ( 'NONE', #424, #105 ) ;
#1072 = ADVANCED_FACE ( 'NONE', ( #217 ), #1030, .F. ) ;
#1073 = ORIENTED_EDGE ( 'NONE', *, *, #771, .T. ) ;
ENDSEC;
END-ISO-10303-21;
